<svg width="300" height="300" viewBox="0 0 300 300" fill="none" xmlns="http://www.w3.org/2000/svg">
<rect width="300" height="300" rx="16" fill="#092541"/>
<path d="M118.158 64.4062V90H114.748L101.863 70.2598V90H98.4707V64.4062H101.863L114.801 84.1992V64.4062H118.158ZM127.809 64.4062V90H124.416V64.4062H127.809ZM143.418 79.9629H136.58V77.2031H143.418C144.742 77.2031 145.814 76.9922 146.635 76.5703C147.455 76.1484 148.053 75.5625 148.428 74.8125C148.814 74.0625 149.008 73.207 149.008 72.2461C149.008 71.3672 148.814 70.541 148.428 69.7676C148.053 68.9941 147.455 68.373 146.635 67.9043C145.814 67.4238 144.742 67.1836 143.418 67.1836H137.371V90H133.979V64.4062H143.418C145.352 64.4062 146.986 64.7402 148.322 65.4082C149.658 66.0762 150.672 67.002 151.363 68.1855C152.055 69.3574 152.4 70.6992 152.4 72.2109C152.4 73.8516 152.055 75.252 151.363 76.4121C150.672 77.5723 149.658 78.457 148.322 79.0664C146.986 79.6641 145.352 79.9629 143.418 79.9629ZM162.965 77.7832V80.4551H154.387V77.7832H162.965ZM181.861 75.1641V79.0664C181.861 81.1641 181.674 82.9336 181.299 84.375C180.924 85.8164 180.385 86.9766 179.682 87.8555C178.979 88.7344 178.129 89.373 177.133 89.7715C176.148 90.1582 175.035 90.3516 173.793 90.3516C172.809 90.3516 171.9 90.2285 171.068 89.9824C170.236 89.7363 169.486 89.3438 168.818 88.8047C168.162 88.2539 167.6 87.5391 167.131 86.6602C166.662 85.7812 166.305 84.7148 166.059 83.4609C165.812 82.207 165.689 80.7422 165.689 79.0664V75.1641C165.689 73.0664 165.877 71.3086 166.252 69.8906C166.639 68.4727 167.184 67.3359 167.887 66.4805C168.59 65.6133 169.434 64.9922 170.418 64.6172C171.414 64.2422 172.527 64.0547 173.758 64.0547C174.754 64.0547 175.668 64.1777 176.5 64.4238C177.344 64.6582 178.094 65.0391 178.75 65.5664C179.406 66.082 179.963 66.7734 180.42 67.6406C180.889 68.4961 181.246 69.5449 181.492 70.7871C181.738 72.0293 181.861 73.4883 181.861 75.1641ZM178.592 79.5938V74.6191C178.592 73.4707 178.521 72.4629 178.381 71.5957C178.252 70.7168 178.059 69.9668 177.801 69.3457C177.543 68.7246 177.215 68.2207 176.816 67.834C176.43 67.4473 175.979 67.166 175.463 66.9902C174.959 66.8027 174.391 66.709 173.758 66.709C172.984 66.709 172.299 66.8555 171.701 67.1484C171.104 67.4297 170.6 67.8809 170.189 68.502C169.791 69.123 169.486 69.9375 169.275 70.9453C169.064 71.9531 168.959 73.1777 168.959 74.6191V79.5938C168.959 80.7422 169.023 81.7559 169.152 82.6348C169.293 83.5137 169.498 84.2754 169.768 84.9199C170.037 85.5527 170.365 86.0742 170.752 86.4844C171.139 86.8945 171.584 87.1992 172.088 87.3984C172.604 87.5859 173.172 87.6797 173.793 87.6797C174.59 87.6797 175.287 87.5273 175.885 87.2227C176.482 86.918 176.98 86.4434 177.379 85.7988C177.789 85.1426 178.094 84.3047 178.293 83.2852C178.492 82.2539 178.592 81.0234 178.592 79.5938ZM190.158 77.8184L187.557 77.1504L188.84 64.4062H201.971V67.4121H191.6L190.826 74.373C191.295 74.1035 191.887 73.8516 192.602 73.6172C193.328 73.3828 194.16 73.2656 195.098 73.2656C196.281 73.2656 197.342 73.4707 198.279 73.8809C199.217 74.2793 200.014 74.8535 200.67 75.6035C201.338 76.3535 201.848 77.2559 202.199 78.3105C202.551 79.3652 202.727 80.543 202.727 81.8438C202.727 83.0742 202.557 84.2051 202.217 85.2363C201.889 86.2676 201.391 87.1699 200.723 87.9434C200.055 88.7051 199.211 89.2969 198.191 89.7188C197.184 90.1406 195.994 90.3516 194.623 90.3516C193.592 90.3516 192.613 90.2109 191.688 89.9297C190.773 89.6367 189.953 89.1973 189.227 88.6113C188.512 88.0137 187.926 87.2754 187.469 86.3965C187.023 85.5059 186.742 84.4629 186.625 83.2676H189.719C189.859 84.2285 190.141 85.0371 190.562 85.6934C190.984 86.3496 191.535 86.8477 192.215 87.1875C192.906 87.5156 193.709 87.6797 194.623 87.6797C195.396 87.6797 196.082 87.5449 196.68 87.2754C197.277 87.0059 197.781 86.6191 198.191 86.1152C198.602 85.6113 198.912 85.002 199.123 84.2871C199.346 83.5723 199.457 82.7695 199.457 81.8789C199.457 81.0703 199.346 80.3203 199.123 79.6289C198.9 78.9375 198.566 78.334 198.121 77.8184C197.688 77.3027 197.154 76.9043 196.521 76.623C195.889 76.3301 195.162 76.1836 194.342 76.1836C193.252 76.1836 192.426 76.3301 191.863 76.623C191.312 76.916 190.744 77.3145 190.158 77.8184Z" fill="#D2E4FF"/>
<mask id="mask0_1494_80663" style="mask-type:alpha" maskUnits="userSpaceOnUse" x="86" y="116" width="128" height="128">
<rect x="86" y="116" width="128" height="128" fill="#D9D9D9"/>
</mask>
<g mask="url(#mask0_1494_80663)">
<path d="M131.867 236L121.733 218.933L102.533 214.667L104.4 194.933L91.3335 180L104.4 165.067L102.533 145.333L121.733 141.067L131.867 124L150 131.733L168.133 124L178.267 141.067L197.467 145.333L195.6 165.067L208.667 180L195.6 194.933L197.467 214.667L178.267 218.933L168.133 236L150 228.267L131.867 236ZM136.4 222.4L150 216.533L163.867 222.4L171.333 209.6L186 206.133L184.667 191.2L194.533 180L184.667 168.533L186 153.6L171.333 150.4L163.6 137.6L150 143.467L136.133 137.6L128.667 150.4L114 153.6L115.333 168.533L105.467 180L115.333 191.2L114 206.4L128.667 209.6L136.4 222.4ZM144.4 198.933L174.533 168.8L167.067 161.067L144.4 183.733L132.933 172.533L125.467 180L144.4 198.933Z" fill="#D2E4FF"/>
</g>
</svg>
