<svg width="360" height="538" viewBox="0 0 360 538" fill="none" xmlns="http://www.w3.org/2000/svg">
<g clip-path="url(#clip0_1494_80633)">
<path d="M0 28C0 12.536 12.536 0 28 0H332C347.464 0 360 12.536 360 28V538H0V28Z" fill="#001C37"/>
<rect opacity="0.4" x="164" y="16" width="32" height="4" rx="2" fill="#8F909A"/>
<rect x="16" y="36" width="328" height="396" rx="16" fill="#001C37"/>
<rect x="16" y="36" width="328" height="396" rx="16" fill="#B5C4FF" fill-opacity="0.05"/>
<rect x="32" y="52" width="296" height="296" rx="16" fill="white"/>
<mask id="mask0_1494_80633" style="mask-type:alpha" maskUnits="userSpaceOnUse" x="32" y="52" width="296" height="296">
<rect x="32" y="52" width="296" height="296" fill="#D9D9D9"/>
</mask>
<g mask="url(#mask0_1494_80633)">
<path d="M69 187.667V89H167.667V187.667H69ZM93.6667 163H143V113.667H93.6667V163ZM69 311V212.333H167.667V311H69ZM93.6667 286.333H143V237H93.6667V286.333ZM192.333 187.667V89H291V187.667H192.333ZM217 163H266.333V113.667H217V163ZM266.333 311V286.333H291V311H266.333ZM192.333 237V212.333H217V237H192.333ZM217 261.667V237H241.667V261.667H217ZM192.333 286.333V261.667H217V286.333H192.333ZM217 311V286.333H241.667V311H217ZM241.667 286.333V261.667H266.333V286.333H241.667ZM241.667 237V212.333H266.333V237H241.667ZM266.333 261.667V237H291V261.667H266.333Z" fill="#001C37"/>
<path d="M69 187.667V89H167.667V187.667H69ZM93.6667 163H143V113.667H93.6667V163ZM69 311V212.333H167.667V311H69ZM93.6667 286.333H143V237H93.6667V286.333ZM192.333 187.667V89H291V187.667H192.333ZM217 163H266.333V113.667H217V163ZM266.333 311V286.333H291V311H266.333ZM192.333 237V212.333H217V237H192.333ZM217 261.667V237H241.667V261.667H217ZM192.333 286.333V261.667H217V286.333H192.333ZM217 311V286.333H241.667V311H217ZM241.667 286.333V261.667H266.333V286.333H241.667ZM241.667 237V212.333H266.333V237H241.667ZM266.333 261.667V237H291V261.667H266.333Z" fill="#B5C4FF" fill-opacity="0.05"/>
</g>
<path d="M136.505 370.273V386H134.518V372.755L130.511 374.216V372.422L136.193 370.273H136.505ZM142.596 384.947C142.596 384.611 142.7 384.328 142.907 384.099C143.122 383.862 143.43 383.744 143.831 383.744C144.232 383.744 144.536 383.862 144.744 384.099C144.959 384.328 145.066 384.611 145.066 384.947C145.066 385.277 144.959 385.556 144.744 385.785C144.536 386.014 144.232 386.129 143.831 386.129C143.43 386.129 143.122 386.014 142.907 385.785C142.7 385.556 142.596 385.277 142.596 384.947ZM157.968 376.934V379.318C157.968 380.6 157.853 381.682 157.624 382.562C157.395 383.443 157.065 384.152 156.636 384.689C156.206 385.227 155.687 385.617 155.078 385.86C154.477 386.097 153.796 386.215 153.037 386.215C152.436 386.215 151.881 386.14 151.372 385.989C150.864 385.839 150.405 385.599 149.997 385.27C149.596 384.933 149.252 384.496 148.966 383.959C148.679 383.422 148.461 382.77 148.311 382.004C148.16 381.238 148.085 380.342 148.085 379.318V376.934C148.085 375.652 148.2 374.577 148.429 373.711C148.665 372.844 148.998 372.15 149.428 371.627C149.857 371.097 150.373 370.717 150.975 370.488C151.583 370.259 152.264 370.145 153.016 370.145C153.624 370.145 154.183 370.22 154.691 370.37C155.207 370.513 155.665 370.746 156.066 371.068C156.467 371.383 156.808 371.806 157.087 372.336C157.373 372.859 157.592 373.5 157.742 374.259C157.893 375.018 157.968 375.91 157.968 376.934ZM155.97 379.641V376.601C155.97 375.899 155.927 375.283 155.841 374.753C155.762 374.216 155.644 373.757 155.486 373.378C155.329 372.998 155.128 372.69 154.885 372.454C154.648 372.218 154.373 372.046 154.058 371.938C153.75 371.824 153.402 371.767 153.016 371.767C152.543 371.767 152.124 371.856 151.759 372.035C151.394 372.207 151.086 372.483 150.835 372.862C150.591 373.242 150.405 373.74 150.276 374.355C150.147 374.971 150.083 375.72 150.083 376.601V379.641C150.083 380.342 150.122 380.962 150.201 381.499C150.287 382.036 150.412 382.502 150.577 382.896C150.742 383.282 150.942 383.601 151.179 383.852C151.415 384.102 151.687 384.288 151.995 384.41C152.31 384.525 152.658 384.582 153.037 384.582C153.524 384.582 153.95 384.489 154.315 384.303C154.681 384.117 154.985 383.826 155.229 383.433C155.479 383.032 155.665 382.52 155.787 381.896C155.909 381.266 155.97 380.514 155.97 379.641ZM170.343 376.934V379.318C170.343 380.6 170.228 381.682 169.999 382.562C169.77 383.443 169.44 384.152 169.011 384.689C168.581 385.227 168.062 385.617 167.453 385.86C166.852 386.097 166.171 386.215 165.412 386.215C164.811 386.215 164.256 386.14 163.747 385.989C163.239 385.839 162.78 385.599 162.372 385.27C161.971 384.933 161.627 384.496 161.341 383.959C161.054 383.422 160.836 382.77 160.686 382.004C160.535 381.238 160.46 380.342 160.46 379.318V376.934C160.46 375.652 160.575 374.577 160.804 373.711C161.04 372.844 161.373 372.15 161.803 371.627C162.232 371.097 162.748 370.717 163.35 370.488C163.958 370.259 164.639 370.145 165.391 370.145C165.999 370.145 166.558 370.22 167.066 370.37C167.582 370.513 168.04 370.746 168.441 371.068C168.842 371.383 169.183 371.806 169.462 372.336C169.748 372.859 169.967 373.5 170.117 374.259C170.268 375.018 170.343 375.91 170.343 376.934ZM168.345 379.641V376.601C168.345 375.899 168.302 375.283 168.216 374.753C168.137 374.216 168.019 373.757 167.861 373.378C167.704 372.998 167.503 372.69 167.26 372.454C167.023 372.218 166.748 372.046 166.433 371.938C166.125 371.824 165.777 371.767 165.391 371.767C164.918 371.767 164.499 371.856 164.134 372.035C163.769 372.207 163.461 372.483 163.21 372.862C162.966 373.242 162.78 373.74 162.651 374.355C162.522 374.971 162.458 375.72 162.458 376.601V379.641C162.458 380.342 162.497 380.962 162.576 381.499C162.662 382.036 162.787 382.502 162.952 382.896C163.117 383.282 163.317 383.601 163.554 383.852C163.79 384.102 164.062 384.288 164.37 384.41C164.685 384.525 165.033 384.582 165.412 384.582C165.899 384.582 166.325 384.489 166.69 384.303C167.056 384.117 167.36 383.826 167.604 383.433C167.854 383.032 168.04 382.52 168.162 381.896C168.284 381.266 168.345 380.514 168.345 379.641ZM182.718 376.934V379.318C182.718 380.6 182.603 381.682 182.374 382.562C182.145 383.443 181.815 384.152 181.386 384.689C180.956 385.227 180.437 385.617 179.828 385.86C179.227 386.097 178.546 386.215 177.787 386.215C177.186 386.215 176.631 386.14 176.122 385.989C175.614 385.839 175.155 385.599 174.747 385.27C174.346 384.933 174.002 384.496 173.716 383.959C173.429 383.422 173.211 382.77 173.061 382.004C172.91 381.238 172.835 380.342 172.835 379.318V376.934C172.835 375.652 172.95 374.577 173.179 373.711C173.415 372.844 173.748 372.15 174.178 371.627C174.607 371.097 175.123 370.717 175.725 370.488C176.333 370.259 177.014 370.145 177.766 370.145C178.374 370.145 178.933 370.22 179.441 370.37C179.957 370.513 180.415 370.746 180.816 371.068C181.217 371.383 181.558 371.806 181.837 372.336C182.123 372.859 182.342 373.5 182.492 374.259C182.643 375.018 182.718 375.91 182.718 376.934ZM180.72 379.641V376.601C180.72 375.899 180.677 375.283 180.591 374.753C180.512 374.216 180.394 373.757 180.236 373.378C180.079 372.998 179.878 372.69 179.635 372.454C179.398 372.218 179.123 372.046 178.808 371.938C178.5 371.824 178.152 371.767 177.766 371.767C177.293 371.767 176.874 371.856 176.509 372.035C176.144 372.207 175.836 372.483 175.585 372.862C175.341 373.242 175.155 373.74 175.026 374.355C174.897 374.971 174.833 375.72 174.833 376.601V379.641C174.833 380.342 174.872 380.962 174.951 381.499C175.037 382.036 175.162 382.502 175.327 382.896C175.492 383.282 175.692 383.601 175.929 383.852C176.165 384.102 176.437 384.288 176.745 384.41C177.06 384.525 177.408 384.582 177.787 384.582C178.274 384.582 178.7 384.489 179.065 384.303C179.431 384.117 179.735 383.826 179.979 383.433C180.229 383.032 180.415 382.52 180.537 381.896C180.659 381.266 180.72 380.514 180.72 379.641ZM197.714 382.917C197.714 382.631 197.649 382.366 197.521 382.122C197.399 381.871 197.145 381.646 196.758 381.445C196.378 381.238 195.805 381.059 195.039 380.908C194.395 380.772 193.811 380.611 193.288 380.425C192.772 380.239 192.332 380.013 191.967 379.748C191.609 379.483 191.333 379.172 191.14 378.813C190.946 378.455 190.85 378.036 190.85 377.557C190.85 377.098 190.95 376.665 191.15 376.257C191.358 375.849 191.648 375.487 192.021 375.172C192.4 374.857 192.855 374.61 193.385 374.431C193.915 374.252 194.506 374.162 195.157 374.162C196.088 374.162 196.883 374.327 197.542 374.656C198.201 374.986 198.706 375.426 199.057 375.978C199.408 376.522 199.583 377.127 199.583 377.793H197.596C197.596 377.471 197.499 377.159 197.306 376.858C197.119 376.55 196.844 376.296 196.479 376.096C196.12 375.895 195.68 375.795 195.157 375.795C194.606 375.795 194.158 375.881 193.814 376.053C193.478 376.217 193.231 376.429 193.073 376.687C192.923 376.944 192.848 377.216 192.848 377.503C192.848 377.718 192.883 377.911 192.955 378.083C193.034 378.248 193.17 378.402 193.363 378.545C193.557 378.681 193.829 378.81 194.18 378.932C194.531 379.053 194.978 379.175 195.522 379.297C196.475 379.512 197.259 379.77 197.875 380.07C198.491 380.371 198.949 380.74 199.25 381.177C199.551 381.614 199.701 382.144 199.701 382.767C199.701 383.275 199.594 383.741 199.379 384.163C199.171 384.586 198.867 384.951 198.466 385.259C198.072 385.56 197.599 385.796 197.048 385.968C196.504 386.132 195.891 386.215 195.211 386.215C194.187 386.215 193.32 386.032 192.611 385.667C191.902 385.302 191.365 384.829 191 384.249C190.635 383.669 190.452 383.057 190.452 382.412H192.45C192.479 382.956 192.636 383.39 192.923 383.712C193.209 384.027 193.56 384.253 193.976 384.389C194.391 384.518 194.803 384.582 195.211 384.582C195.755 384.582 196.21 384.51 196.575 384.367C196.948 384.224 197.23 384.027 197.424 383.776C197.617 383.526 197.714 383.239 197.714 382.917ZM209.165 384.013V378.029C209.165 377.571 209.072 377.174 208.886 376.837C208.707 376.493 208.435 376.228 208.069 376.042C207.704 375.856 207.253 375.763 206.716 375.763C206.215 375.763 205.774 375.849 205.395 376.021C205.022 376.192 204.729 376.418 204.514 376.697C204.306 376.977 204.202 377.277 204.202 377.6H202.215C202.215 377.184 202.322 376.772 202.537 376.364C202.752 375.956 203.06 375.587 203.461 375.258C203.869 374.921 204.356 374.656 204.922 374.463C205.495 374.262 206.132 374.162 206.834 374.162C207.679 374.162 208.424 374.305 209.068 374.592C209.72 374.878 210.229 375.312 210.594 375.892C210.966 376.465 211.152 377.184 211.152 378.051V383.465C211.152 383.852 211.185 384.263 211.249 384.7C211.321 385.137 211.424 385.513 211.561 385.828V386H209.487C209.387 385.771 209.308 385.466 209.251 385.087C209.194 384.7 209.165 384.342 209.165 384.013ZM209.509 378.953L209.53 380.35H207.521C206.956 380.35 206.451 380.396 206.007 380.489C205.563 380.575 205.19 380.708 204.89 380.887C204.589 381.066 204.36 381.291 204.202 381.563C204.045 381.828 203.966 382.14 203.966 382.498C203.966 382.863 204.048 383.196 204.213 383.497C204.378 383.798 204.625 384.038 204.954 384.217C205.291 384.389 205.702 384.475 206.189 384.475C206.798 384.475 207.335 384.346 207.801 384.088C208.266 383.83 208.635 383.515 208.907 383.143C209.187 382.77 209.337 382.409 209.358 382.058L210.207 383.014C210.157 383.314 210.021 383.647 209.799 384.013C209.577 384.378 209.28 384.729 208.907 385.065C208.542 385.395 208.105 385.671 207.597 385.893C207.095 386.107 206.53 386.215 205.899 386.215C205.112 386.215 204.421 386.061 203.826 385.753C203.239 385.445 202.781 385.033 202.451 384.518C202.129 383.995 201.968 383.411 201.968 382.767C201.968 382.144 202.09 381.596 202.333 381.123C202.576 380.643 202.927 380.246 203.386 379.931C203.844 379.608 204.396 379.365 205.04 379.2C205.685 379.035 206.404 378.953 207.199 378.953H209.509ZM219.145 374.377V375.902H212.86V374.377H219.145ZM214.987 371.552H216.975V383.121C216.975 383.515 217.035 383.812 217.157 384.013C217.279 384.213 217.437 384.346 217.63 384.41C217.823 384.475 218.031 384.507 218.253 384.507C218.418 384.507 218.59 384.493 218.769 384.464C218.955 384.428 219.094 384.399 219.188 384.378L219.198 386C219.041 386.05 218.833 386.097 218.575 386.14C218.325 386.19 218.02 386.215 217.662 386.215C217.175 386.215 216.728 386.118 216.319 385.925C215.911 385.731 215.585 385.409 215.342 384.958C215.105 384.5 214.987 383.884 214.987 383.11V371.552ZM228.243 382.917C228.243 382.631 228.179 382.366 228.05 382.122C227.928 381.871 227.674 381.646 227.287 381.445C226.908 381.238 226.335 381.059 225.568 380.908C224.924 380.772 224.34 380.611 223.817 380.425C223.302 380.239 222.861 380.013 222.496 379.748C222.138 379.483 221.862 379.172 221.669 378.813C221.476 378.455 221.379 378.036 221.379 377.557C221.379 377.098 221.479 376.665 221.68 376.257C221.887 375.849 222.177 375.487 222.55 375.172C222.929 374.857 223.384 374.61 223.914 374.431C224.444 374.252 225.035 374.162 225.687 374.162C226.618 374.162 227.412 374.327 228.071 374.656C228.73 374.986 229.235 375.426 229.586 375.978C229.937 376.522 230.112 377.127 230.112 377.793H228.125C228.125 377.471 228.028 377.159 227.835 376.858C227.649 376.55 227.373 376.296 227.008 376.096C226.65 375.895 226.209 375.795 225.687 375.795C225.135 375.795 224.688 375.881 224.344 376.053C224.007 376.217 223.76 376.429 223.603 376.687C223.452 376.944 223.377 377.216 223.377 377.503C223.377 377.718 223.413 377.911 223.484 378.083C223.563 378.248 223.699 378.402 223.893 378.545C224.086 378.681 224.358 378.81 224.709 378.932C225.06 379.053 225.507 379.175 226.052 379.297C227.004 379.512 227.788 379.77 228.404 380.07C229.02 380.371 229.479 380.74 229.779 381.177C230.08 381.614 230.23 382.144 230.23 382.767C230.23 383.275 230.123 383.741 229.908 384.163C229.701 384.586 229.396 384.951 228.995 385.259C228.601 385.56 228.129 385.796 227.577 385.968C227.033 386.132 226.421 386.215 225.74 386.215C224.716 386.215 223.85 386.032 223.141 385.667C222.432 385.302 221.895 384.829 221.529 384.249C221.164 383.669 220.981 383.057 220.981 382.412H222.979C223.008 382.956 223.166 383.39 223.452 383.712C223.739 384.027 224.09 384.253 224.505 384.389C224.92 384.518 225.332 384.582 225.74 384.582C226.285 384.582 226.739 384.51 227.104 384.367C227.477 384.224 227.76 384.027 227.953 383.776C228.146 383.526 228.243 383.239 228.243 382.917Z" fill="#D2E4FF"/>
<path d="M144.413 409.489L147.346 401.047H148.774L145.09 411H144.071L144.413 409.489ZM141.672 401.047L144.577 409.489L144.939 411H143.921L140.243 401.047H141.672ZM154.22 409.735V405.928C154.22 405.636 154.16 405.383 154.042 405.169C153.928 404.95 153.755 404.782 153.522 404.663C153.29 404.545 153.003 404.485 152.661 404.485C152.342 404.485 152.062 404.54 151.82 404.649C151.583 404.759 151.396 404.902 151.26 405.08C151.128 405.258 151.062 405.449 151.062 405.654H149.797C149.797 405.39 149.865 405.128 150.002 404.868C150.139 404.608 150.335 404.374 150.59 404.164C150.85 403.95 151.16 403.781 151.52 403.658C151.884 403.531 152.29 403.467 152.736 403.467C153.274 403.467 153.748 403.558 154.158 403.74C154.573 403.923 154.896 404.198 155.129 404.567C155.366 404.932 155.484 405.39 155.484 405.941V409.387C155.484 409.633 155.505 409.895 155.546 410.173C155.591 410.451 155.658 410.69 155.744 410.891V411H154.425C154.361 410.854 154.311 410.66 154.274 410.419C154.238 410.173 154.22 409.945 154.22 409.735ZM154.438 406.516L154.452 407.404H153.174C152.814 407.404 152.493 407.434 152.21 407.493C151.927 407.548 151.69 407.632 151.499 407.746C151.308 407.86 151.162 408.004 151.062 408.177C150.961 408.345 150.911 408.544 150.911 408.771C150.911 409.004 150.964 409.216 151.068 409.407C151.173 409.599 151.33 409.751 151.54 409.865C151.754 409.975 152.016 410.029 152.326 410.029C152.714 410.029 153.055 409.947 153.352 409.783C153.648 409.619 153.882 409.419 154.056 409.182C154.233 408.945 154.329 408.715 154.343 408.491L154.883 409.1C154.851 409.291 154.764 409.503 154.623 409.735C154.482 409.968 154.293 410.191 154.056 410.405C153.823 410.615 153.545 410.79 153.222 410.932C152.903 411.068 152.543 411.137 152.142 411.137C151.64 411.137 151.201 411.039 150.822 410.843C150.449 410.647 150.157 410.385 149.947 410.057C149.742 409.724 149.64 409.353 149.64 408.942C149.64 408.546 149.717 408.197 149.872 407.896C150.027 407.591 150.25 407.338 150.542 407.138C150.834 406.933 151.185 406.778 151.595 406.673C152.005 406.568 152.463 406.516 152.969 406.516H154.438ZM159.098 400.5V411H157.826V400.5H159.098ZM165.903 409.291V403.604H167.175V411H165.965L165.903 409.291ZM166.143 407.732L166.669 407.719C166.669 408.211 166.617 408.667 166.512 409.086C166.411 409.501 166.247 409.861 166.02 410.166C165.792 410.471 165.493 410.711 165.124 410.884C164.755 411.052 164.306 411.137 163.777 411.137C163.417 411.137 163.087 411.084 162.786 410.979C162.49 410.875 162.235 410.713 162.021 410.494C161.806 410.275 161.64 409.991 161.521 409.64C161.408 409.289 161.351 408.867 161.351 408.375V403.604H162.615V408.389C162.615 408.721 162.652 408.997 162.725 409.216C162.802 409.43 162.905 409.601 163.032 409.729C163.164 409.852 163.31 409.938 163.47 409.988C163.634 410.038 163.802 410.063 163.976 410.063C164.513 410.063 164.939 409.961 165.254 409.756C165.568 409.546 165.794 409.266 165.931 408.915C166.072 408.56 166.143 408.165 166.143 407.732ZM172.422 411.137C171.907 411.137 171.44 411.05 171.021 410.877C170.606 410.699 170.248 410.451 169.947 410.132C169.651 409.813 169.423 409.435 169.264 408.997C169.104 408.56 169.024 408.081 169.024 407.562V407.274C169.024 406.673 169.113 406.137 169.291 405.668C169.469 405.194 169.71 404.793 170.016 404.465C170.321 404.137 170.667 403.888 171.055 403.72C171.442 403.551 171.843 403.467 172.258 403.467C172.786 403.467 173.242 403.558 173.625 403.74C174.012 403.923 174.329 404.178 174.575 404.506C174.821 404.829 175.004 405.212 175.122 405.654C175.241 406.092 175.3 406.57 175.3 407.09V407.657H169.776V406.625H174.035V406.529C174.017 406.201 173.949 405.882 173.83 405.572C173.716 405.262 173.534 405.007 173.283 404.807C173.033 404.606 172.691 404.506 172.258 404.506C171.971 404.506 171.706 404.567 171.465 404.69C171.223 404.809 171.016 404.987 170.843 405.224C170.67 405.461 170.535 405.75 170.439 406.092C170.344 406.434 170.296 406.828 170.296 407.274V407.562C170.296 407.912 170.344 408.243 170.439 408.553C170.54 408.858 170.683 409.127 170.87 409.359C171.062 409.592 171.292 409.774 171.561 409.906C171.834 410.038 172.144 410.104 172.49 410.104C172.937 410.104 173.315 410.013 173.625 409.831C173.935 409.649 174.206 409.405 174.438 409.1L175.204 409.708C175.045 409.95 174.842 410.18 174.596 410.398C174.35 410.617 174.047 410.795 173.687 410.932C173.331 411.068 172.91 411.137 172.422 411.137ZM183.616 407.65V408.689H176.425V407.944L180.882 401.047H181.914L180.807 403.043L177.86 407.65H183.616ZM182.229 401.047V411H180.964V401.047H182.229ZM188.556 409.489L191.488 401.047H192.917L189.232 411H188.214L188.556 409.489ZM185.814 401.047L188.72 409.489L189.082 411H188.063L184.386 401.047H185.814ZM198.362 409.735V405.928C198.362 405.636 198.303 405.383 198.185 405.169C198.071 404.95 197.897 404.782 197.665 404.663C197.433 404.545 197.146 404.485 196.804 404.485C196.485 404.485 196.204 404.54 195.963 404.649C195.726 404.759 195.539 404.902 195.402 405.08C195.27 405.258 195.204 405.449 195.204 405.654H193.939C193.939 405.39 194.008 405.128 194.145 404.868C194.281 404.608 194.477 404.374 194.732 404.164C194.992 403.95 195.302 403.781 195.662 403.658C196.027 403.531 196.432 403.467 196.879 403.467C197.417 403.467 197.891 403.558 198.301 403.74C198.715 403.923 199.039 404.198 199.271 404.567C199.508 404.932 199.627 405.39 199.627 405.941V409.387C199.627 409.633 199.647 409.895 199.688 410.173C199.734 410.451 199.8 410.69 199.887 410.891V411H198.567C198.504 410.854 198.453 410.66 198.417 410.419C198.381 410.173 198.362 409.945 198.362 409.735ZM198.581 406.516L198.595 407.404H197.316C196.956 407.404 196.635 407.434 196.353 407.493C196.07 407.548 195.833 407.632 195.642 407.746C195.45 407.86 195.304 408.004 195.204 408.177C195.104 408.345 195.054 408.544 195.054 408.771C195.054 409.004 195.106 409.216 195.211 409.407C195.316 409.599 195.473 409.751 195.683 409.865C195.897 409.975 196.159 410.029 196.469 410.029C196.856 410.029 197.198 409.947 197.494 409.783C197.79 409.619 198.025 409.419 198.198 409.182C198.376 408.945 198.472 408.715 198.485 408.491L199.025 409.1C198.993 409.291 198.907 409.503 198.766 409.735C198.624 409.968 198.435 410.191 198.198 410.405C197.966 410.615 197.688 410.79 197.364 410.932C197.045 411.068 196.685 411.137 196.284 411.137C195.783 411.137 195.343 411.039 194.965 410.843C194.591 410.647 194.299 410.385 194.09 410.057C193.885 409.724 193.782 409.353 193.782 408.942C193.782 408.546 193.86 408.197 194.015 407.896C194.17 407.591 194.393 407.338 194.685 407.138C194.976 406.933 195.327 406.778 195.737 406.673C196.147 406.568 196.605 406.516 197.111 406.516H198.581ZM203.24 400.5V411H201.969V400.5H203.24ZM210.046 409.291V403.604H211.317V411H210.107L210.046 409.291ZM210.285 407.732L210.812 407.719C210.812 408.211 210.759 408.667 210.654 409.086C210.554 409.501 210.39 409.861 210.162 410.166C209.934 410.471 209.636 410.711 209.267 410.884C208.897 411.052 208.449 411.137 207.92 411.137C207.56 411.137 207.229 411.084 206.929 410.979C206.632 410.875 206.377 410.713 206.163 410.494C205.949 410.275 205.783 409.991 205.664 409.64C205.55 409.289 205.493 408.867 205.493 408.375V403.604H206.758V408.389C206.758 408.721 206.794 408.997 206.867 409.216C206.945 409.43 207.047 409.601 207.175 409.729C207.307 409.852 207.453 409.938 207.612 409.988C207.776 410.038 207.945 410.063 208.118 410.063C208.656 410.063 209.082 409.961 209.396 409.756C209.711 409.546 209.937 409.266 210.073 408.915C210.215 408.56 210.285 408.165 210.285 407.732ZM216.564 411.137C216.049 411.137 215.582 411.05 215.163 410.877C214.748 410.699 214.391 410.451 214.09 410.132C213.794 409.813 213.566 409.435 213.406 408.997C213.247 408.56 213.167 408.081 213.167 407.562V407.274C213.167 406.673 213.256 406.137 213.434 405.668C213.611 405.194 213.853 404.793 214.158 404.465C214.464 404.137 214.81 403.888 215.197 403.72C215.585 403.551 215.986 403.467 216.4 403.467C216.929 403.467 217.385 403.558 217.768 403.74C218.155 403.923 218.472 404.178 218.718 404.506C218.964 404.829 219.146 405.212 219.265 405.654C219.383 406.092 219.442 406.57 219.442 407.09V407.657H213.919V406.625H218.178V406.529C218.16 406.201 218.091 405.882 217.973 405.572C217.859 405.262 217.676 405.007 217.426 404.807C217.175 404.606 216.833 404.506 216.4 404.506C216.113 404.506 215.849 404.567 215.607 404.69C215.366 404.809 215.159 404.987 214.985 405.224C214.812 405.461 214.678 405.75 214.582 406.092C214.486 406.434 214.438 406.828 214.438 407.274V407.562C214.438 407.912 214.486 408.243 214.582 408.553C214.682 408.858 214.826 409.127 215.013 409.359C215.204 409.592 215.434 409.774 215.703 409.906C215.977 410.038 216.286 410.104 216.633 410.104C217.079 410.104 217.458 410.013 217.768 409.831C218.077 409.649 218.349 409.405 218.581 409.1L219.347 409.708C219.187 409.95 218.984 410.18 218.738 410.398C218.492 410.617 218.189 410.795 217.829 410.932C217.474 411.068 217.052 411.137 216.564 411.137Z" fill="#C6C6D0"/>
<g clip-path="url(#clip1_1494_80633)">
<mask id="mask1_1494_80633" style="mask-type:alpha" maskUnits="userSpaceOnUse" x="125" y="460" width="25" height="24">
<rect x="125.5" y="460" width="24" height="24" fill="#D9D9D9"/>
</mask>
<g mask="url(#mask1_1494_80633)">
<path d="M130.5 482C129.95 482 129.479 481.804 129.087 481.413C128.696 481.021 128.5 480.55 128.5 480V466H130.5V480H141.5V482H130.5ZM134.5 478C133.95 478 133.479 477.804 133.088 477.413C132.696 477.021 132.5 476.55 132.5 476V464C132.5 463.45 132.696 462.979 133.088 462.587C133.479 462.196 133.95 462 134.5 462H143.5C144.05 462 144.521 462.196 144.913 462.587C145.304 462.979 145.5 463.45 145.5 464V476C145.5 476.55 145.304 477.021 144.913 477.413C144.521 477.804 144.05 478 143.5 478H134.5ZM134.5 476H143.5V464H134.5V476Z" fill="#D2E4FF"/>
</g>
</g>
<path d="M106.641 506.287H107.766C107.707 506.826 107.553 507.309 107.303 507.734C107.053 508.16 106.699 508.498 106.242 508.748C105.785 508.994 105.215 509.117 104.531 509.117C104.031 509.117 103.576 509.023 103.166 508.836C102.76 508.648 102.41 508.383 102.117 508.039C101.824 507.691 101.598 507.275 101.438 506.791C101.281 506.303 101.203 505.76 101.203 505.162V504.312C101.203 503.715 101.281 503.174 101.438 502.689C101.598 502.201 101.826 501.783 102.123 501.436C102.424 501.088 102.785 500.82 103.207 500.633C103.629 500.445 104.104 500.352 104.631 500.352C105.275 500.352 105.82 500.473 106.266 500.715C106.711 500.957 107.057 501.293 107.303 501.723C107.553 502.148 107.707 502.643 107.766 503.205H106.641C106.586 502.807 106.484 502.465 106.336 502.18C106.188 501.891 105.977 501.668 105.703 501.512C105.43 501.355 105.072 501.277 104.631 501.277C104.252 501.277 103.918 501.35 103.629 501.494C103.344 501.639 103.104 501.844 102.908 502.109C102.717 502.375 102.572 502.693 102.475 503.064C102.377 503.436 102.328 503.848 102.328 504.301V505.162C102.328 505.58 102.371 505.973 102.457 506.34C102.547 506.707 102.682 507.029 102.861 507.307C103.041 507.584 103.27 507.803 103.547 507.963C103.824 508.119 104.152 508.197 104.531 508.197C105.012 508.197 105.395 508.121 105.68 507.969C105.965 507.816 106.18 507.598 106.324 507.312C106.473 507.027 106.578 506.686 106.641 506.287ZM109.355 505.9V505.766C109.355 505.309 109.422 504.885 109.555 504.494C109.688 504.1 109.879 503.758 110.129 503.469C110.379 503.176 110.682 502.949 111.037 502.789C111.393 502.625 111.791 502.543 112.232 502.543C112.678 502.543 113.078 502.625 113.434 502.789C113.793 502.949 114.098 503.176 114.348 503.469C114.602 503.758 114.795 504.1 114.928 504.494C115.061 504.885 115.127 505.309 115.127 505.766V505.9C115.127 506.357 115.061 506.781 114.928 507.172C114.795 507.562 114.602 507.904 114.348 508.197C114.098 508.486 113.795 508.713 113.439 508.877C113.088 509.037 112.689 509.117 112.244 509.117C111.799 509.117 111.398 509.037 111.043 508.877C110.688 508.713 110.383 508.486 110.129 508.197C109.879 507.904 109.688 507.562 109.555 507.172C109.422 506.781 109.355 506.357 109.355 505.9ZM110.439 505.766V505.9C110.439 506.217 110.477 506.516 110.551 506.797C110.625 507.074 110.736 507.32 110.885 507.535C111.037 507.75 111.227 507.92 111.453 508.045C111.68 508.166 111.943 508.227 112.244 508.227C112.541 508.227 112.801 508.166 113.023 508.045C113.25 507.92 113.438 507.75 113.586 507.535C113.734 507.32 113.846 507.074 113.92 506.797C113.998 506.516 114.037 506.217 114.037 505.9V505.766C114.037 505.453 113.998 505.158 113.92 504.881C113.846 504.6 113.732 504.352 113.58 504.137C113.432 503.918 113.244 503.746 113.018 503.621C112.795 503.496 112.533 503.434 112.232 503.434C111.936 503.434 111.674 503.496 111.447 503.621C111.225 503.746 111.037 503.918 110.885 504.137C110.736 504.352 110.625 504.6 110.551 504.881C110.477 505.158 110.439 505.453 110.439 505.766ZM118.07 503.879V511.438H116.98V502.66H117.977L118.07 503.879ZM122.342 505.777V505.9C122.342 506.361 122.287 506.789 122.178 507.184C122.068 507.574 121.908 507.914 121.697 508.203C121.49 508.492 121.234 508.717 120.93 508.877C120.625 509.037 120.275 509.117 119.881 509.117C119.479 509.117 119.123 509.051 118.814 508.918C118.506 508.785 118.244 508.592 118.029 508.338C117.814 508.084 117.643 507.779 117.514 507.424C117.389 507.068 117.303 506.668 117.256 506.223V505.566C117.303 505.098 117.391 504.678 117.52 504.307C117.648 503.936 117.818 503.619 118.029 503.357C118.244 503.092 118.504 502.891 118.809 502.754C119.113 502.613 119.465 502.543 119.863 502.543C120.262 502.543 120.615 502.621 120.924 502.777C121.232 502.93 121.492 503.148 121.703 503.434C121.914 503.719 122.072 504.061 122.178 504.459C122.287 504.854 122.342 505.293 122.342 505.777ZM121.252 505.9V505.777C121.252 505.461 121.219 505.164 121.152 504.887C121.086 504.605 120.982 504.359 120.842 504.148C120.705 503.934 120.529 503.766 120.314 503.645C120.1 503.52 119.844 503.457 119.547 503.457C119.273 503.457 119.035 503.504 118.832 503.598C118.633 503.691 118.463 503.818 118.322 503.979C118.182 504.135 118.066 504.314 117.977 504.518C117.891 504.717 117.826 504.924 117.783 505.139V506.656C117.861 506.93 117.971 507.188 118.111 507.43C118.252 507.668 118.439 507.861 118.674 508.01C118.908 508.154 119.203 508.227 119.559 508.227C119.852 508.227 120.104 508.166 120.314 508.045C120.529 507.92 120.705 507.75 120.842 507.535C120.982 507.32 121.086 507.074 121.152 506.797C121.219 506.516 121.252 506.217 121.252 505.9ZM125.936 508.344L127.699 502.66H128.859L126.316 509.979C126.258 510.135 126.18 510.303 126.082 510.482C125.988 510.666 125.867 510.84 125.719 511.004C125.57 511.168 125.391 511.301 125.18 511.402C124.973 511.508 124.725 511.561 124.436 511.561C124.35 511.561 124.24 511.549 124.107 511.525C123.975 511.502 123.881 511.482 123.826 511.467L123.82 510.588C123.852 510.592 123.9 510.596 123.967 510.6C124.037 510.607 124.086 510.611 124.113 510.611C124.359 510.611 124.568 510.578 124.74 510.512C124.912 510.449 125.057 510.342 125.174 510.189C125.295 510.041 125.398 509.836 125.484 509.574L125.936 508.344ZM124.641 502.66L126.287 507.582L126.568 508.725L125.789 509.123L123.457 502.66H124.641ZM134.992 502.66V509H133.902V502.66H134.992ZM133.82 500.979C133.82 500.803 133.873 500.654 133.979 500.533C134.088 500.412 134.248 500.352 134.459 500.352C134.666 500.352 134.824 500.412 134.934 500.533C135.047 500.654 135.104 500.803 135.104 500.979C135.104 501.146 135.047 501.291 134.934 501.412C134.824 501.529 134.666 501.588 134.459 501.588C134.248 501.588 134.088 501.529 133.979 501.412C133.873 501.291 133.82 501.146 133.82 500.979ZM138.316 504.014V509H137.232V502.66H138.258L138.316 504.014ZM138.059 505.59L137.607 505.572C137.611 505.139 137.676 504.738 137.801 504.371C137.926 504 138.102 503.678 138.328 503.404C138.555 503.131 138.824 502.92 139.137 502.771C139.453 502.619 139.803 502.543 140.186 502.543C140.498 502.543 140.779 502.586 141.029 502.672C141.279 502.754 141.492 502.887 141.668 503.07C141.848 503.254 141.984 503.492 142.078 503.785C142.172 504.074 142.219 504.428 142.219 504.846V509H141.129V504.834C141.129 504.502 141.08 504.236 140.982 504.037C140.885 503.834 140.742 503.688 140.555 503.598C140.367 503.504 140.137 503.457 139.863 503.457C139.594 503.457 139.348 503.514 139.125 503.627C138.906 503.74 138.717 503.896 138.557 504.096C138.4 504.295 138.277 504.523 138.188 504.781C138.102 505.035 138.059 505.305 138.059 505.59ZM146.293 508.021L148.027 502.66H149.135L146.855 509H146.129L146.293 508.021ZM144.846 502.66L146.633 508.051L146.756 509H146.029L143.732 502.66H144.846ZM150.297 505.9V505.766C150.297 505.309 150.363 504.885 150.496 504.494C150.629 504.1 150.82 503.758 151.07 503.469C151.32 503.176 151.623 502.949 151.979 502.789C152.334 502.625 152.732 502.543 153.174 502.543C153.619 502.543 154.02 502.625 154.375 502.789C154.734 502.949 155.039 503.176 155.289 503.469C155.543 503.758 155.736 504.1 155.869 504.494C156.002 504.885 156.068 505.309 156.068 505.766V505.9C156.068 506.357 156.002 506.781 155.869 507.172C155.736 507.562 155.543 507.904 155.289 508.197C155.039 508.486 154.736 508.713 154.381 508.877C154.029 509.037 153.631 509.117 153.186 509.117C152.74 509.117 152.34 509.037 151.984 508.877C151.629 508.713 151.324 508.486 151.07 508.197C150.82 507.904 150.629 507.562 150.496 507.172C150.363 506.781 150.297 506.357 150.297 505.9ZM151.381 505.766V505.9C151.381 506.217 151.418 506.516 151.492 506.797C151.566 507.074 151.678 507.32 151.826 507.535C151.979 507.75 152.168 507.92 152.395 508.045C152.621 508.166 152.885 508.227 153.186 508.227C153.482 508.227 153.742 508.166 153.965 508.045C154.191 507.92 154.379 507.75 154.527 507.535C154.676 507.32 154.787 507.074 154.861 506.797C154.939 506.516 154.979 506.217 154.979 505.9V505.766C154.979 505.453 154.939 505.158 154.861 504.881C154.787 504.6 154.674 504.352 154.521 504.137C154.373 503.918 154.186 503.746 153.959 503.621C153.736 503.496 153.475 503.434 153.174 503.434C152.877 503.434 152.615 503.496 152.389 503.621C152.166 503.746 151.979 503.918 151.826 504.137C151.678 504.352 151.566 504.6 151.492 504.881C151.418 505.158 151.381 505.453 151.381 505.766ZM159.105 502.66V509H158.016V502.66H159.105ZM157.934 500.979C157.934 500.803 157.986 500.654 158.092 500.533C158.201 500.412 158.361 500.352 158.572 500.352C158.779 500.352 158.938 500.412 159.047 500.533C159.16 500.654 159.217 500.803 159.217 500.979C159.217 501.146 159.16 501.291 159.047 501.412C158.938 501.529 158.779 501.588 158.572 501.588C158.361 501.588 158.201 501.529 158.092 501.412C157.986 501.291 157.934 501.146 157.934 500.979ZM163.883 508.227C164.141 508.227 164.379 508.174 164.598 508.068C164.816 507.963 164.996 507.818 165.137 507.635C165.277 507.447 165.357 507.234 165.377 506.996H166.408C166.389 507.371 166.262 507.721 166.027 508.045C165.797 508.365 165.494 508.625 165.119 508.824C164.744 509.02 164.332 509.117 163.883 509.117C163.406 509.117 162.99 509.033 162.635 508.865C162.283 508.697 161.99 508.467 161.756 508.174C161.525 507.881 161.352 507.545 161.234 507.166C161.121 506.783 161.064 506.379 161.064 505.953V505.707C161.064 505.281 161.121 504.879 161.234 504.5C161.352 504.117 161.525 503.779 161.756 503.486C161.99 503.193 162.283 502.963 162.635 502.795C162.99 502.627 163.406 502.543 163.883 502.543C164.379 502.543 164.812 502.645 165.184 502.848C165.555 503.047 165.846 503.32 166.057 503.668C166.271 504.012 166.389 504.402 166.408 504.84H165.377C165.357 504.578 165.283 504.342 165.154 504.131C165.029 503.92 164.857 503.752 164.639 503.627C164.424 503.498 164.172 503.434 163.883 503.434C163.551 503.434 163.271 503.5 163.045 503.633C162.822 503.762 162.645 503.938 162.512 504.16C162.383 504.379 162.289 504.623 162.23 504.893C162.176 505.158 162.148 505.43 162.148 505.707V505.953C162.148 506.23 162.176 506.504 162.23 506.773C162.285 507.043 162.377 507.287 162.506 507.506C162.639 507.725 162.816 507.9 163.039 508.033C163.266 508.162 163.547 508.227 163.883 508.227ZM170.758 509.117C170.316 509.117 169.916 509.043 169.557 508.895C169.201 508.742 168.895 508.529 168.637 508.256C168.383 507.982 168.188 507.658 168.051 507.283C167.914 506.908 167.846 506.498 167.846 506.053V505.807C167.846 505.291 167.922 504.832 168.074 504.43C168.227 504.023 168.434 503.68 168.695 503.398C168.957 503.117 169.254 502.904 169.586 502.76C169.918 502.615 170.262 502.543 170.617 502.543C171.07 502.543 171.461 502.621 171.789 502.777C172.121 502.934 172.393 503.152 172.604 503.434C172.814 503.711 172.971 504.039 173.072 504.418C173.174 504.793 173.225 505.203 173.225 505.648V506.135H168.49V505.25H172.141V505.168C172.125 504.887 172.066 504.613 171.965 504.348C171.867 504.082 171.711 503.863 171.496 503.691C171.281 503.52 170.988 503.434 170.617 503.434C170.371 503.434 170.145 503.486 169.938 503.592C169.73 503.693 169.553 503.846 169.404 504.049C169.256 504.252 169.141 504.5 169.059 504.793C168.977 505.086 168.936 505.424 168.936 505.807V506.053C168.936 506.354 168.977 506.637 169.059 506.902C169.145 507.164 169.268 507.395 169.428 507.594C169.592 507.793 169.789 507.949 170.02 508.062C170.254 508.176 170.52 508.232 170.816 508.232C171.199 508.232 171.523 508.154 171.789 507.998C172.055 507.842 172.287 507.633 172.486 507.371L173.143 507.893C173.006 508.1 172.832 508.297 172.621 508.484C172.41 508.672 172.15 508.824 171.842 508.941C171.537 509.059 171.176 509.117 170.758 509.117Z" fill="#D2E4FF"/>
<g clip-path="url(#clip2_1494_80633)">
<mask id="mask2_1494_80633" style="mask-type:alpha" maskUnits="userSpaceOnUse" x="213" y="460" width="24" height="24">
<rect x="213" y="460" width="24" height="24" fill="#D9D9D9"/>
</mask>
<g mask="url(#mask2_1494_80633)">
<path d="M229 473.5C229.433 473.5 229.792 473.358 230.075 473.075C230.358 472.792 230.5 472.433 230.5 472C230.5 471.567 230.358 471.208 230.075 470.925C229.792 470.642 229.433 470.5 229 470.5C228.567 470.5 228.208 470.642 227.925 470.925C227.642 471.208 227.5 471.567 227.5 472C227.5 472.433 227.642 472.792 227.925 473.075C228.208 473.358 228.567 473.5 229 473.5ZM218 481C217.45 481 216.979 480.804 216.587 480.413C216.196 480.021 216 479.55 216 479V465C216 464.45 216.196 463.979 216.587 463.587C216.979 463.196 217.45 463 218 463H232C232.55 463 233.021 463.196 233.413 463.587C233.804 463.979 234 464.45 234 465V467.5H232V465H218V479H232V476.5H234V479C234 479.55 233.804 480.021 233.413 480.413C233.021 480.804 232.55 481 232 481H218ZM226 477C225.45 477 224.979 476.804 224.588 476.413C224.196 476.021 224 475.55 224 475V469C224 468.45 224.196 467.979 224.588 467.587C224.979 467.196 225.45 467 226 467H233C233.55 467 234.021 467.196 234.413 467.587C234.804 467.979 235 468.45 235 469V475C235 475.55 234.804 476.021 234.413 476.413C234.021 476.804 233.55 477 233 477H226ZM233 475V469H226V475H233Z" fill="#D2E4FF"/>
</g>
</g>
<path d="M198.059 504.465V505.004C198.059 505.645 197.979 506.219 197.818 506.727C197.658 507.234 197.428 507.666 197.127 508.021C196.826 508.377 196.465 508.648 196.043 508.836C195.625 509.023 195.156 509.117 194.637 509.117C194.133 509.117 193.67 509.023 193.248 508.836C192.83 508.648 192.467 508.377 192.158 508.021C191.854 507.666 191.617 507.234 191.449 506.727C191.281 506.219 191.197 505.645 191.197 505.004V504.465C191.197 503.824 191.279 503.252 191.443 502.748C191.611 502.24 191.848 501.809 192.152 501.453C192.457 501.094 192.818 500.82 193.236 500.633C193.658 500.445 194.121 500.352 194.625 500.352C195.145 500.352 195.613 500.445 196.031 500.633C196.453 500.82 196.814 501.094 197.115 501.453C197.42 501.809 197.652 502.24 197.812 502.748C197.977 503.252 198.059 503.824 198.059 504.465ZM196.939 505.004V504.453C196.939 503.945 196.887 503.496 196.781 503.105C196.68 502.715 196.529 502.387 196.33 502.121C196.131 501.855 195.887 501.654 195.598 501.518C195.312 501.381 194.988 501.312 194.625 501.312C194.273 501.312 193.955 501.381 193.67 501.518C193.389 501.654 193.146 501.855 192.943 502.121C192.744 502.387 192.59 502.715 192.48 503.105C192.371 503.496 192.316 503.945 192.316 504.453V505.004C192.316 505.516 192.371 505.969 192.48 506.363C192.59 506.754 192.746 507.084 192.949 507.354C193.156 507.619 193.4 507.82 193.682 507.957C193.967 508.094 194.285 508.162 194.637 508.162C195.004 508.162 195.33 508.094 195.615 507.957C195.9 507.82 196.141 507.619 196.336 507.354C196.535 507.084 196.686 506.754 196.787 506.363C196.889 505.969 196.939 505.516 196.939 505.004ZM201.172 503.879V511.438H200.082V502.66H201.078L201.172 503.879ZM205.443 505.777V505.9C205.443 506.361 205.389 506.789 205.279 507.184C205.17 507.574 205.01 507.914 204.799 508.203C204.592 508.492 204.336 508.717 204.031 508.877C203.727 509.037 203.377 509.117 202.982 509.117C202.58 509.117 202.225 509.051 201.916 508.918C201.607 508.785 201.346 508.592 201.131 508.338C200.916 508.084 200.744 507.779 200.615 507.424C200.49 507.068 200.404 506.668 200.357 506.223V505.566C200.404 505.098 200.492 504.678 200.621 504.307C200.75 503.936 200.92 503.619 201.131 503.357C201.346 503.092 201.605 502.891 201.91 502.754C202.215 502.613 202.566 502.543 202.965 502.543C203.363 502.543 203.717 502.621 204.025 502.777C204.334 502.93 204.594 503.148 204.805 503.434C205.016 503.719 205.174 504.061 205.279 504.459C205.389 504.854 205.443 505.293 205.443 505.777ZM204.354 505.9V505.777C204.354 505.461 204.32 505.164 204.254 504.887C204.188 504.605 204.084 504.359 203.943 504.148C203.807 503.934 203.631 503.766 203.416 503.645C203.201 503.52 202.945 503.457 202.648 503.457C202.375 503.457 202.137 503.504 201.934 503.598C201.734 503.691 201.564 503.818 201.424 503.979C201.283 504.135 201.168 504.314 201.078 504.518C200.992 504.717 200.928 504.924 200.885 505.139V506.656C200.963 506.93 201.072 507.188 201.213 507.43C201.354 507.668 201.541 507.861 201.775 508.01C202.01 508.154 202.305 508.227 202.66 508.227C202.953 508.227 203.205 508.166 203.416 508.045C203.631 507.92 203.807 507.75 203.943 507.535C204.084 507.32 204.188 507.074 204.254 506.797C204.32 506.516 204.354 506.217 204.354 505.9ZM209.957 509.117C209.516 509.117 209.115 509.043 208.756 508.895C208.4 508.742 208.094 508.529 207.836 508.256C207.582 507.982 207.387 507.658 207.25 507.283C207.113 506.908 207.045 506.498 207.045 506.053V505.807C207.045 505.291 207.121 504.832 207.273 504.43C207.426 504.023 207.633 503.68 207.895 503.398C208.156 503.117 208.453 502.904 208.785 502.76C209.117 502.615 209.461 502.543 209.816 502.543C210.27 502.543 210.66 502.621 210.988 502.777C211.32 502.934 211.592 503.152 211.803 503.434C212.014 503.711 212.17 504.039 212.271 504.418C212.373 504.793 212.424 505.203 212.424 505.648V506.135H207.689V505.25H211.34V505.168C211.324 504.887 211.266 504.613 211.164 504.348C211.066 504.082 210.91 503.863 210.695 503.691C210.48 503.52 210.188 503.434 209.816 503.434C209.57 503.434 209.344 503.486 209.137 503.592C208.93 503.693 208.752 503.846 208.604 504.049C208.455 504.252 208.34 504.5 208.258 504.793C208.176 505.086 208.135 505.424 208.135 505.807V506.053C208.135 506.354 208.176 506.637 208.258 506.902C208.344 507.164 208.467 507.395 208.627 507.594C208.791 507.793 208.988 507.949 209.219 508.062C209.453 508.176 209.719 508.232 210.016 508.232C210.398 508.232 210.723 508.154 210.988 507.998C211.254 507.842 211.486 507.633 211.686 507.371L212.342 507.893C212.205 508.1 212.031 508.297 211.82 508.484C211.609 508.672 211.35 508.824 211.041 508.941C210.736 509.059 210.375 509.117 209.957 509.117ZM215.273 504.014V509H214.189V502.66H215.215L215.273 504.014ZM215.016 505.59L214.564 505.572C214.568 505.139 214.633 504.738 214.758 504.371C214.883 504 215.059 503.678 215.285 503.404C215.512 503.131 215.781 502.92 216.094 502.771C216.41 502.619 216.76 502.543 217.143 502.543C217.455 502.543 217.736 502.586 217.986 502.672C218.236 502.754 218.449 502.887 218.625 503.07C218.805 503.254 218.941 503.492 219.035 503.785C219.129 504.074 219.176 504.428 219.176 504.846V509H218.086V504.834C218.086 504.502 218.037 504.236 217.939 504.037C217.842 503.834 217.699 503.688 217.512 503.598C217.324 503.504 217.094 503.457 216.82 503.457C216.551 503.457 216.305 503.514 216.082 503.627C215.863 503.74 215.674 503.896 215.514 504.096C215.357 504.295 215.234 504.523 215.145 504.781C215.059 505.035 215.016 505.305 215.016 505.59ZM226.404 507.875L228.033 502.66H228.748L228.607 503.697L226.949 509H226.252L226.404 507.875ZM225.309 502.66L226.697 507.934L226.797 509H226.064L224.225 502.66H225.309ZM230.307 507.893L231.631 502.66H232.709L230.869 509H230.143L230.307 507.893ZM228.906 502.66L230.5 507.787L230.682 509H229.99L228.285 503.686L228.145 502.66H228.906ZM238.061 507.916V504.652C238.061 504.402 238.01 504.186 237.908 504.002C237.811 503.814 237.662 503.67 237.463 503.568C237.264 503.467 237.018 503.416 236.725 503.416C236.451 503.416 236.211 503.463 236.004 503.557C235.801 503.65 235.641 503.773 235.523 503.926C235.41 504.078 235.354 504.242 235.354 504.418H234.27C234.27 504.191 234.328 503.967 234.445 503.744C234.562 503.521 234.73 503.32 234.949 503.141C235.172 502.957 235.438 502.812 235.746 502.707C236.059 502.598 236.406 502.543 236.789 502.543C237.25 502.543 237.656 502.621 238.008 502.777C238.363 502.934 238.641 503.17 238.84 503.486C239.043 503.799 239.145 504.191 239.145 504.664V507.617C239.145 507.828 239.162 508.053 239.197 508.291C239.236 508.529 239.293 508.734 239.367 508.906V509H238.236C238.182 508.875 238.139 508.709 238.107 508.502C238.076 508.291 238.061 508.096 238.061 507.916ZM238.248 505.156L238.26 505.918H237.164C236.855 505.918 236.58 505.943 236.338 505.994C236.096 506.041 235.893 506.113 235.729 506.211C235.564 506.309 235.439 506.432 235.354 506.58C235.268 506.725 235.225 506.895 235.225 507.09C235.225 507.289 235.27 507.471 235.359 507.635C235.449 507.799 235.584 507.93 235.764 508.027C235.947 508.121 236.172 508.168 236.438 508.168C236.77 508.168 237.062 508.098 237.316 507.957C237.57 507.816 237.771 507.645 237.92 507.441C238.072 507.238 238.154 507.041 238.166 506.85L238.629 507.371C238.602 507.535 238.527 507.717 238.406 507.916C238.285 508.115 238.123 508.307 237.92 508.49C237.721 508.67 237.482 508.82 237.205 508.941C236.932 509.059 236.623 509.117 236.279 509.117C235.85 509.117 235.473 509.033 235.148 508.865C234.828 508.697 234.578 508.473 234.398 508.191C234.223 507.906 234.135 507.588 234.135 507.236C234.135 506.896 234.201 506.598 234.334 506.34C234.467 506.078 234.658 505.861 234.908 505.689C235.158 505.514 235.459 505.381 235.811 505.291C236.162 505.201 236.555 505.156 236.988 505.156H238.248ZM242.527 500V509H241.438V500H242.527ZM245.945 500V509H244.855V500H245.945ZM250.816 509.117C250.375 509.117 249.975 509.043 249.615 508.895C249.26 508.742 248.953 508.529 248.695 508.256C248.441 507.982 248.246 507.658 248.109 507.283C247.973 506.908 247.904 506.498 247.904 506.053V505.807C247.904 505.291 247.98 504.832 248.133 504.43C248.285 504.023 248.492 503.68 248.754 503.398C249.016 503.117 249.312 502.904 249.645 502.76C249.977 502.615 250.32 502.543 250.676 502.543C251.129 502.543 251.52 502.621 251.848 502.777C252.18 502.934 252.451 503.152 252.662 503.434C252.873 503.711 253.029 504.039 253.131 504.418C253.232 504.793 253.283 505.203 253.283 505.648V506.135H248.549V505.25H252.199V505.168C252.184 504.887 252.125 504.613 252.023 504.348C251.926 504.082 251.77 503.863 251.555 503.691C251.34 503.52 251.047 503.434 250.676 503.434C250.43 503.434 250.203 503.486 249.996 503.592C249.789 503.693 249.611 503.846 249.463 504.049C249.314 504.252 249.199 504.5 249.117 504.793C249.035 505.086 248.994 505.424 248.994 505.807V506.053C248.994 506.354 249.035 506.637 249.117 506.902C249.203 507.164 249.326 507.395 249.486 507.594C249.65 507.793 249.848 507.949 250.078 508.062C250.312 508.176 250.578 508.232 250.875 508.232C251.258 508.232 251.582 508.154 251.848 507.998C252.113 507.842 252.346 507.633 252.545 507.371L253.201 507.893C253.064 508.1 252.891 508.297 252.68 508.484C252.469 508.672 252.209 508.824 251.9 508.941C251.596 509.059 251.234 509.117 250.816 509.117ZM257.703 502.66V503.492H254.275V502.66H257.703ZM255.436 501.119H256.52V507.43C256.52 507.645 256.553 507.807 256.619 507.916C256.686 508.025 256.771 508.098 256.877 508.133C256.982 508.168 257.096 508.186 257.217 508.186C257.307 508.186 257.4 508.178 257.498 508.162C257.6 508.143 257.676 508.127 257.727 508.115L257.732 509C257.646 509.027 257.533 509.053 257.393 509.076C257.256 509.104 257.09 509.117 256.895 509.117C256.629 509.117 256.385 509.064 256.162 508.959C255.939 508.854 255.762 508.678 255.629 508.432C255.5 508.182 255.436 507.846 255.436 507.424V501.119Z" fill="#D2E4FF"/>
</g>
<defs>
<clipPath id="clip0_1494_80633">
<path d="M0 28C0 12.536 12.536 0 28 0H332C347.464 0 360 12.536 360 28V538H0V28Z" fill="white"/>
</clipPath>
<clipPath id="clip1_1494_80633">
<rect x="117.5" y="452" width="40" height="40" rx="20" fill="white"/>
</clipPath>
<clipPath id="clip2_1494_80633">
<rect x="205" y="452" width="40" height="40" rx="20" fill="white"/>
</clipPath>
</defs>
</svg>
