<svg width="489" height="272" viewBox="0 0 489 272" fill="none" xmlns="http://www.w3.org/2000/svg">
<g clip-path="url(#clip0_1419_79987)">
<mask id="mask0_1419_79987" style="mask-type:luminance" maskUnits="userSpaceOnUse" x="0" y="0" width="489" height="272">
<path d="M489 0H0V272H489V0Z" fill="white"/>
</mask>
<g mask="url(#mask0_1419_79987)">
<path d="M266.836 168.901C248.744 241.76 175.245 286.1 102.668 267.931C30.1206 249.766 -14.0435 175.97 4.05727 103.116C22.1411 30.2498 95.6407 -14.0947 168.197 4.06978C240.769 22.2343 284.928 96.0398 266.836 168.901Z" fill="#F7931A"/>
<path d="M195.17 116.627C197.866 98.5307 184.143 88.8021 165.377 82.3124L171.464 57.7984L156.602 54.0796L150.676 77.9476C146.768 76.9701 142.755 76.0478 138.768 75.1341L144.736 51.1089L129.883 47.3901L123.791 71.8956C120.557 71.1561 117.382 70.4252 114.3 69.6558L114.318 69.5794L93.8207 64.4412L89.867 80.3786C89.867 80.3786 100.895 82.9158 100.661 83.0732C106.681 84.5819 107.768 88.5812 107.587 91.7516L100.653 119.678C101.068 119.784 101.606 119.938 102.198 120.176C101.703 120.052 101.173 119.916 100.628 119.784L90.9083 158.906C90.1719 160.742 88.305 163.496 84.0973 162.451C84.2454 162.667 73.2943 159.743 73.2943 159.743L65.916 176.824L85.2572 181.664C88.8553 182.57 92.3815 183.517 95.8526 184.41L89.702 209.205L104.547 212.923L110.639 188.392C114.694 189.497 118.631 190.518 122.484 191.478L116.413 215.894L131.275 219.613L137.426 194.865C162.77 199.68 181.827 197.738 189.849 174.724C196.313 156.195 189.528 145.506 176.193 138.536C185.904 136.288 193.219 129.874 195.17 116.627ZM161.212 164.435C156.619 182.965 125.543 172.948 115.469 170.436L123.631 137.588C133.706 140.112 166.012 145.11 161.212 164.435ZM165.81 116.359C161.618 133.215 135.754 124.651 127.364 122.552L134.763 92.7589C143.153 94.8584 170.173 98.7766 165.81 116.359Z" fill="white"/>
<path d="M353.524 272.003C428.337 272.003 488.984 211.114 488.984 136.003C488.984 60.8922 428.337 0.00292969 353.524 0.00292969C278.712 0.00292969 218.064 60.8922 218.064 136.003C218.064 211.114 278.712 272.003 353.524 272.003Z" fill="#7B1AF7"/>
<path d="M294.707 138.939L385.014 60.8111C388.949 58.281 392.7 60.8111 390.298 65.1515L361.477 122.06H412.874C412.874 122.06 421.04 122.06 412.874 128.811L324.009 207.421C317.764 212.726 313.441 209.833 317.764 201.634L345.625 146.173H294.707C294.707 146.173 286.541 146.173 294.707 138.939Z" fill="white"/>
</g>
</g>
<defs>
<clipPath id="clip0_1419_79987">
<rect width="489" height="272" fill="white"/>
</clipPath>
</defs>
</svg>
