<svg width="3183" height="633" viewBox="0 0 3183 633" fill="none" xmlns="http://www.w3.org/2000/svg">
<path fill-rule="evenodd" clip-rule="evenodd" d="M628.093 372.32C628.946 367.529 629.691 362.701 630.325 357.838C632.09 344.308 633 330.511 633 316.5C633 302.489 632.09 288.692 630.325 275.162C629.691 270.299 628.946 265.471 628.093 260.68C627.234 255.851 626.265 251.06 625.19 246.309C609.859 249.026 599.231 263.356 601.266 278.953C602.867 291.228 603.694 303.76 603.694 316.5C603.694 329.24 602.867 341.771 601.266 354.047C599.231 369.644 609.859 383.974 625.19 386.691C626.265 381.94 627.234 377.149 628.093 372.32ZM618.935 410.087C604.297 404.79 587.938 411.899 581.914 426.427C572.238 449.759 559.568 471.552 544.374 491.324C534.788 503.798 536.796 521.531 548.702 531.57C552.024 527.986 555.263 524.325 558.417 520.59C561.568 516.86 564.633 513.055 567.611 509.18C584.347 487.401 598.314 463.383 608.984 437.652C610.851 433.15 612.617 428.595 614.28 423.99C615.935 419.404 617.488 414.769 618.935 410.087ZM531.57 548.702C521.531 536.796 503.798 534.788 491.323 544.374C471.552 559.568 449.759 572.238 426.427 581.914C411.899 587.938 404.79 604.297 410.087 618.935C414.769 617.488 419.404 615.935 423.99 614.28C428.595 612.617 433.15 610.851 437.652 608.984C463.383 598.314 487.401 584.347 509.18 567.611C513.055 564.633 516.86 561.568 520.59 558.417C524.325 555.263 527.986 552.024 531.57 548.702ZM386.691 625.19C383.974 609.859 369.644 599.231 354.047 601.266C341.772 602.867 329.24 603.694 316.5 603.694C303.76 603.694 291.229 602.867 278.953 601.266C263.356 599.231 249.026 609.859 246.309 625.19C251.06 626.265 255.851 627.234 260.68 628.093C265.471 628.946 270.299 629.691 275.162 630.325C288.692 632.09 302.489 633 316.5 633C330.511 633 344.308 632.09 357.838 630.325C362.701 629.691 367.529 628.946 372.32 628.093C377.149 627.234 381.94 626.265 386.691 625.19ZM222.912 618.935C228.21 604.297 221.101 587.938 206.573 581.914C183.241 572.238 161.448 559.568 141.676 544.374C129.202 534.788 111.469 536.796 101.43 548.702C105.014 552.024 108.675 555.263 112.41 558.417C116.14 561.568 119.945 564.633 123.82 567.611C145.599 584.347 169.617 598.314 195.348 608.984C199.85 610.851 204.405 612.617 209.01 614.28C213.596 615.935 218.231 617.488 222.912 618.935ZM84.2976 531.57C96.2042 521.531 98.2123 503.798 88.626 491.323C73.4323 471.552 60.762 449.759 51.0865 426.427C45.0622 411.899 28.7028 404.79 14.0649 410.087C15.5119 414.769 17.0647 419.404 18.7203 423.99C20.3828 428.595 22.149 433.15 24.0162 437.652C34.6863 463.383 48.6528 487.401 65.3891 509.18C68.367 513.055 71.4325 516.86 74.5828 520.59C77.7371 524.325 80.9764 527.986 84.2976 531.57ZM7.81038 386.691C23.1414 383.974 33.769 369.644 31.7345 354.047C30.1333 341.772 29.3056 329.24 29.3056 316.5C29.3056 303.76 30.1333 291.229 31.7345 278.953C33.769 263.356 23.1414 249.026 7.81037 246.309C6.73473 251.06 5.76594 255.851 4.90666 260.68C4.05417 265.471 3.30947 270.299 2.67515 275.162C0.910357 288.692 0 302.489 0 316.5C0 330.511 0.910358 344.308 2.67515 357.838C3.30947 362.701 4.05417 367.529 4.90666 372.32C5.76595 377.149 6.73474 381.94 7.81038 386.691ZM14.0649 222.913C28.7028 228.21 45.0622 221.101 51.0865 206.573C60.762 183.241 73.4324 161.448 88.626 141.676C98.2123 129.202 96.2043 111.469 84.2976 101.43C80.9764 105.014 77.7372 108.675 74.5828 112.41C71.4325 116.14 68.367 119.945 65.3891 123.82C48.6529 145.599 34.6863 169.617 24.0162 195.348C22.149 199.85 20.3828 204.405 18.7204 209.01C17.0647 213.596 15.5119 218.231 14.0649 222.913ZM101.43 84.2976C111.469 96.2042 129.202 98.2123 141.676 88.626C161.448 73.4323 183.241 60.762 206.573 51.0865C221.101 45.0622 228.21 28.7028 222.913 14.0649C218.231 15.5119 213.596 17.0647 209.01 18.7204C204.405 20.3828 199.85 22.149 195.348 24.0162C169.617 34.6863 145.599 48.6528 123.82 65.3891C119.945 68.367 116.14 71.4325 112.41 74.5828C108.675 77.7371 105.014 80.9764 101.43 84.2976ZM246.309 7.81038C249.026 23.1414 263.356 33.769 278.953 31.7345C291.228 30.1333 303.76 29.3056 316.5 29.3056C329.24 29.3056 341.771 30.1333 354.047 31.7345C369.644 33.769 383.974 23.1414 386.691 7.81037C381.94 6.73473 377.149 5.76594 372.32 4.90666C367.529 4.05417 362.701 3.30947 357.838 2.67515C344.308 0.910357 330.511 0 316.5 0C302.489 0 288.692 0.910358 275.162 2.67515C270.299 3.30947 265.471 4.05417 260.68 4.90666C255.851 5.76595 251.06 6.73474 246.309 7.81038ZM410.087 14.0649C404.79 28.7028 411.899 45.0622 426.427 51.0865C449.759 60.762 471.552 73.4324 491.324 88.626C503.798 98.2123 521.531 96.2043 531.57 84.2976C527.986 80.9764 524.325 77.7372 520.59 74.5828C516.86 71.4325 513.055 68.367 509.18 65.3891C487.401 48.6529 463.383 34.6863 437.652 24.0162C433.15 22.149 428.595 20.3828 423.99 18.7204C419.404 17.0647 414.769 15.5119 410.087 14.0649ZM548.702 101.43C536.796 111.469 534.788 129.202 544.374 141.676C559.568 161.448 572.238 183.241 581.914 206.573C587.938 221.101 604.297 228.21 618.935 222.912C617.488 218.231 615.935 213.596 614.28 209.01C612.617 204.405 610.851 199.85 608.984 195.348C598.314 169.617 584.347 145.599 567.611 123.82C564.633 119.945 561.568 116.14 558.417 112.41C555.263 108.675 552.024 105.014 548.702 101.43Z" fill="#FDFCFF"/>
<path fill-rule="evenodd" clip-rule="evenodd" d="M628.093 372.32C628.946 367.529 629.691 362.701 630.325 357.838C632.09 344.308 633 330.511 633 316.5C633 302.489 632.09 288.692 630.325 275.162C629.691 270.299 628.946 265.471 628.093 260.68C627.234 255.851 626.265 251.06 625.19 246.309C609.859 249.026 599.231 263.356 601.266 278.953C602.867 291.228 603.694 303.76 603.694 316.5C603.694 329.24 602.867 341.771 601.266 354.047C599.231 369.644 609.859 383.974 625.19 386.691C626.265 381.94 627.234 377.149 628.093 372.32ZM618.935 410.087C604.297 404.79 587.938 411.899 581.914 426.427C572.238 449.759 559.568 471.552 544.374 491.324C534.788 503.798 536.796 521.531 548.702 531.57C552.024 527.986 555.263 524.325 558.417 520.59C561.568 516.86 564.633 513.055 567.611 509.18C584.347 487.401 598.314 463.383 608.984 437.652C610.851 433.15 612.617 428.595 614.28 423.99C615.935 419.404 617.488 414.769 618.935 410.087ZM531.57 548.702C521.531 536.796 503.798 534.788 491.323 544.374C471.552 559.568 449.759 572.238 426.427 581.914C411.899 587.938 404.79 604.297 410.087 618.935C414.769 617.488 419.404 615.935 423.99 614.28C428.595 612.617 433.15 610.851 437.652 608.984C463.383 598.314 487.401 584.347 509.18 567.611C513.055 564.633 516.86 561.568 520.59 558.417C524.325 555.263 527.986 552.024 531.57 548.702ZM386.691 625.19C383.974 609.859 369.644 599.231 354.047 601.266C341.772 602.867 329.24 603.694 316.5 603.694C303.76 603.694 291.229 602.867 278.953 601.266C263.356 599.231 249.026 609.859 246.309 625.19C251.06 626.265 255.851 627.234 260.68 628.093C265.471 628.946 270.299 629.691 275.162 630.325C288.692 632.09 302.489 633 316.5 633C330.511 633 344.308 632.09 357.838 630.325C362.701 629.691 367.529 628.946 372.32 628.093C377.149 627.234 381.94 626.265 386.691 625.19ZM222.912 618.935C228.21 604.297 221.101 587.938 206.573 581.914C183.241 572.238 161.448 559.568 141.676 544.374C129.202 534.788 111.469 536.796 101.43 548.702C105.014 552.024 108.675 555.263 112.41 558.417C116.14 561.568 119.945 564.633 123.82 567.611C145.599 584.347 169.617 598.314 195.348 608.984C199.85 610.851 204.405 612.617 209.01 614.28C213.596 615.935 218.231 617.488 222.912 618.935ZM84.2976 531.57C96.2042 521.531 98.2123 503.798 88.626 491.323C73.4323 471.552 60.762 449.759 51.0865 426.427C45.0622 411.899 28.7028 404.79 14.0649 410.087C15.5119 414.769 17.0647 419.404 18.7203 423.99C20.3828 428.595 22.149 433.15 24.0162 437.652C34.6863 463.383 48.6528 487.401 65.3891 509.18C68.367 513.055 71.4325 516.86 74.5828 520.59C77.7371 524.325 80.9764 527.986 84.2976 531.57ZM7.81038 386.691C23.1414 383.974 33.769 369.644 31.7345 354.047C30.1333 341.772 29.3056 329.24 29.3056 316.5C29.3056 303.76 30.1333 291.229 31.7345 278.953C33.769 263.356 23.1414 249.026 7.81037 246.309C6.73473 251.06 5.76594 255.851 4.90666 260.68C4.05417 265.471 3.30947 270.299 2.67515 275.162C0.910357 288.692 0 302.489 0 316.5C0 330.511 0.910358 344.308 2.67515 357.838C3.30947 362.701 4.05417 367.529 4.90666 372.32C5.76595 377.149 6.73474 381.94 7.81038 386.691ZM14.0649 222.913C28.7028 228.21 45.0622 221.101 51.0865 206.573C60.762 183.241 73.4324 161.448 88.626 141.676C98.2123 129.202 96.2043 111.469 84.2976 101.43C80.9764 105.014 77.7372 108.675 74.5828 112.41C71.4325 116.14 68.367 119.945 65.3891 123.82C48.6529 145.599 34.6863 169.617 24.0162 195.348C22.149 199.85 20.3828 204.405 18.7204 209.01C17.0647 213.596 15.5119 218.231 14.0649 222.913ZM101.43 84.2976C111.469 96.2042 129.202 98.2123 141.676 88.626C161.448 73.4323 183.241 60.762 206.573 51.0865C221.101 45.0622 228.21 28.7028 222.913 14.0649C218.231 15.5119 213.596 17.0647 209.01 18.7204C204.405 20.3828 199.85 22.149 195.348 24.0162C169.617 34.6863 145.599 48.6528 123.82 65.3891C119.945 68.367 116.14 71.4325 112.41 74.5828C108.675 77.7371 105.014 80.9764 101.43 84.2976ZM246.309 7.81038C249.026 23.1414 263.356 33.769 278.953 31.7345C291.228 30.1333 303.76 29.3056 316.5 29.3056C329.24 29.3056 341.771 30.1333 354.047 31.7345C369.644 33.769 383.974 23.1414 386.691 7.81037C381.94 6.73473 377.149 5.76594 372.32 4.90666C367.529 4.05417 362.701 3.30947 357.838 2.67515C344.308 0.910357 330.511 0 316.5 0C302.489 0 288.692 0.910358 275.162 2.67515C270.299 3.30947 265.471 4.05417 260.68 4.90666C255.851 5.76595 251.06 6.73474 246.309 7.81038ZM410.087 14.0649C404.79 28.7028 411.899 45.0622 426.427 51.0865C449.759 60.762 471.552 73.4324 491.324 88.626C503.798 98.2123 521.531 96.2043 531.57 84.2976C527.986 80.9764 524.325 77.7372 520.59 74.5828C516.86 71.4325 513.055 68.367 509.18 65.3891C487.401 48.6529 463.383 34.6863 437.652 24.0162C433.15 22.149 428.595 20.3828 423.99 18.7204C419.404 17.0647 414.769 15.5119 410.087 14.0649ZM548.702 101.43C536.796 111.469 534.788 129.202 544.374 141.676C559.568 161.448 572.238 183.241 581.914 206.573C587.938 221.101 604.297 228.21 618.935 222.912C617.488 218.231 615.935 213.596 614.28 209.01C612.617 204.405 610.851 199.85 608.984 195.348C598.314 169.617 584.347 145.599 567.611 123.82C564.633 119.945 561.568 116.14 558.417 112.41C555.263 108.675 552.024 105.014 548.702 101.43Z" fill="#FDFCFF"/>
<path d="M1120 461.8H1062.6V224H890.4V461.8H833V174.8H890.4V215.8L931.4 174.8H1062.6C1078.45 174.8 1091.85 180.54 1102.78 192.02C1114.26 202.953 1120 216.347 1120 232.2V461.8Z" fill="#FDFCFF"/>
<path d="M1521.99 404.4C1521.99 420.253 1516.25 433.92 1504.77 445.4C1493.84 456.333 1480.45 461.8 1464.59 461.8H1292.39C1276.54 461.8 1262.87 456.333 1251.39 445.4C1240.46 433.92 1234.99 420.253 1234.99 404.4V232.2C1234.99 216.347 1240.46 202.953 1251.39 192.02C1262.87 180.54 1276.54 174.8 1292.39 174.8H1464.59C1480.45 174.8 1493.84 180.54 1504.77 192.02C1516.25 202.953 1521.99 216.347 1521.99 232.2V404.4ZM1464.59 412.6V224H1292.39V412.6H1464.59Z" fill="#FDFCFF"/>
<path d="M1870.68 174.8L1820.66 224H1682.08V289.6H1796.88C1812.74 289.6 1826.13 295.34 1837.06 306.82C1848.54 317.753 1854.28 331.147 1854.28 347V404.4C1854.28 420.253 1848.54 433.92 1837.06 445.4C1826.13 456.333 1812.74 461.8 1796.88 461.8H1624.68V412.6H1796.88V338.8H1682.08C1666.23 338.8 1652.56 333.333 1641.08 322.4C1630.15 310.92 1624.68 297.253 1624.68 281.4V232.2C1624.68 216.347 1630.15 202.953 1641.08 192.02C1652.56 180.54 1666.23 174.8 1682.08 174.8H1870.68Z" fill="#FDFCFF"/>
<path d="M2145.1 461.8H2030.3C2014.44 461.8 2000.78 456.333 1989.3 445.4C1978.36 433.92 1972.9 420.253 1972.9 404.4V224H1890.9L1940.1 174.8H1972.9V117.4L2030.3 60V174.8H2145.1V224H2030.3V412.6H2145.1V461.8Z" fill="#FDFCFF"/>
<path d="M2456.76 289.6H2399.36V224H2284.56V461.8H2227.16V174.8H2284.56V215.8L2325.56 174.8H2399.36C2415.21 174.8 2428.61 180.54 2439.54 192.02C2451.02 202.953 2456.76 216.347 2456.76 232.2V289.6Z" fill="#FDFCFF"/>
<path d="M2833.67 404.4C2833.67 420.253 2827.93 433.92 2816.45 445.4C2805.52 456.333 2792.13 461.8 2776.27 461.8H2604.07C2588.22 461.8 2574.55 456.333 2563.07 445.4C2552.14 433.92 2546.67 420.253 2546.67 404.4V232.2C2546.67 216.347 2552.14 202.953 2563.07 192.02C2574.55 180.54 2588.22 174.8 2604.07 174.8H2776.27C2792.13 174.8 2805.52 180.54 2816.45 192.02C2827.93 202.953 2833.67 216.347 2833.67 232.2V404.4ZM2776.27 412.6V224H2604.07V412.6H2776.27Z" fill="#FDFCFF"/>
<path d="M3182.36 174.8L3132.34 224H2993.76V289.6H3108.56C3124.42 289.6 3137.81 295.34 3148.74 306.82C3160.22 317.753 3165.96 331.147 3165.96 347V404.4C3165.96 420.253 3160.22 433.92 3148.74 445.4C3137.81 456.333 3124.42 461.8 3108.56 461.8H2936.36V412.6H3108.56V338.8H2993.76C2977.91 338.8 2964.24 333.333 2952.76 322.4C2941.83 310.92 2936.36 297.253 2936.36 281.4V232.2C2936.36 216.347 2941.83 202.953 2952.76 192.02C2964.24 180.54 2977.91 174.8 2993.76 174.8H3182.36Z" fill="#FDFCFF"/>
</svg>
