<svg xmlns="http://www.w3.org/2000/svg" width="328" height="506" fill="none"><g clip-path="url(#a)"><path fill="#001C37" d="M0 28C0 12.536 12.536 0 28 0h272c15.464 0 28 12.536 28 28v478H0V28Z"/><rect width="32" height="4" x="148" y="16" fill="#8F909A" opacity=".4" rx="2"/><rect width="296" height="364" x="16" y="36" fill="#001C37" rx="16"/><rect width="296" height="364" x="16" y="36" fill="#B5C4FF" fill-opacity=".05" rx="16"/><rect width="264" height="264" x="32" y="52" fill="#fff" rx="16"/><mask id="b" width="264" height="265" x="32" y="51" maskUnits="userSpaceOnUse" style="mask-type:alpha"><path fill="#D9D9D9" d="M32 51.999h264v264H32z"/></mask><g mask="url(#b)"><path fill="#001C37" d="M65 173V85h88v88H65Zm22-22h44v-44H87v44ZM65 283v-88h88v88H65Zm22-22h44v-44H87v44Zm88-88V85h88v88h-88Zm22-22h44v-44h-44v44Zm44 132v-22h22v22h-22Zm-66-66v-22h22v22h-22Zm22 22v-22h22v22h-22Zm-22 22v-22h22v22h-22Zm22 22v-22h22v22h-22Zm22-22v-22h22v22h-22Zm0-44v-22h22v22h-22Zm22 22v-22h22v22h-22Z"/><path fill="#B5C4FF" fill-opacity=".05" d="M65 173V85h88v88H65Zm22-22h44v-44H87v44ZM65 283v-88h88v88H65Zm22-22h44v-44H87v44Zm88-88V85h88v88h-88Zm22-22h44v-44h-44v44Zm44 132v-22h22v22h-22Zm-66-66v-22h22v22h-22Zm22 22v-22h22v22h-22Zm-22 22v-22h22v22h-22Zm22 22v-22h22v22h-22Zm22-22v-22h22v22h-22Zm0-44v-22h22v22h-22Zm22 22v-22h22v22h-22Z"/></g><path fill="#D2E4FF" d="M120.505 338.273V354h-1.987v-13.245l-4.007 1.461v-1.794l5.682-2.149h.312Zm6.091 14.674c0-.336.104-.619.311-.848.215-.237.523-.355.924-.355s.705.118.913.355c.215.229.322.512.322.848 0 .33-.107.609-.322.838-.208.229-.512.344-.913.344s-.709-.115-.924-.344a1.205 1.205 0 0 1-.311-.838Zm15.372-8.013v2.384c0 1.282-.115 2.364-.344 3.244-.229.881-.559 1.59-.988 2.127-.43.538-.949.928-1.558 1.171-.601.237-1.282.355-2.041.355a5.834 5.834 0 0 1-1.665-.226 3.954 3.954 0 0 1-1.375-.719 4.366 4.366 0 0 1-1.031-1.311c-.287-.537-.505-1.189-.655-1.955-.151-.766-.226-1.662-.226-2.686v-2.384c0-1.282.115-2.357.344-3.223.236-.867.569-1.561.999-2.084a3.63 3.63 0 0 1 1.547-1.139c.608-.229 1.289-.343 2.041-.343.608 0 1.167.075 1.675.225.516.143.974.376 1.375.698.401.315.742.738 1.021 1.268.286.523.505 1.164.655 1.923.151.759.226 1.651.226 2.675Zm-1.998 2.707v-3.04c0-.702-.043-1.318-.129-1.848a5.789 5.789 0 0 0-.355-1.375 2.71 2.71 0 0 0-.601-.924 2.141 2.141 0 0 0-.827-.516 2.989 2.989 0 0 0-1.042-.171 2.82 2.82 0 0 0-1.257.268 2.267 2.267 0 0 0-.924.827c-.244.38-.43.878-.559 1.493-.129.616-.193 1.365-.193 2.246v3.04c0 .701.039 1.321.118 1.858.086.537.211 1.003.376 1.397.165.386.365.705.602.956.236.25.508.436.816.558.315.115.663.172 1.042.172.487 0 .913-.093 1.278-.279.366-.186.67-.477.914-.87.25-.401.436-.913.558-1.537.122-.63.183-1.382.183-2.255Zm14.373-2.707v2.384c0 1.282-.115 2.364-.344 3.244-.229.881-.559 1.59-.988 2.127-.43.538-.949.928-1.558 1.171-.601.237-1.282.355-2.041.355a5.834 5.834 0 0 1-1.665-.226 3.954 3.954 0 0 1-1.375-.719 4.366 4.366 0 0 1-1.031-1.311c-.287-.537-.505-1.189-.655-1.955-.151-.766-.226-1.662-.226-2.686v-2.384c0-1.282.115-2.357.344-3.223.236-.867.569-1.561.999-2.084a3.63 3.63 0 0 1 1.547-1.139c.608-.229 1.289-.343 2.041-.343.608 0 1.167.075 1.675.225.516.143.974.376 1.375.698.401.315.742.738 1.021 1.268.286.523.505 1.164.655 1.923.151.759.226 1.651.226 2.675Zm-1.998 2.707v-3.04c0-.702-.043-1.318-.129-1.848a5.789 5.789 0 0 0-.355-1.375 2.71 2.71 0 0 0-.601-.924 2.141 2.141 0 0 0-.827-.516 2.989 2.989 0 0 0-1.042-.171 2.82 2.82 0 0 0-1.257.268 2.267 2.267 0 0 0-.924.827c-.244.38-.43.878-.559 1.493-.129.616-.193 1.365-.193 2.246v3.04c0 .701.039 1.321.118 1.858.086.537.211 1.003.376 1.397.165.386.365.705.602.956.236.25.508.436.816.558.315.115.663.172 1.042.172.487 0 .913-.093 1.278-.279.366-.186.67-.477.914-.87.25-.401.436-.913.558-1.537.122-.63.183-1.382.183-2.255Zm14.373-2.707v2.384c0 1.282-.115 2.364-.344 3.244-.229.881-.559 1.59-.988 2.127-.43.538-.949.928-1.558 1.171-.601.237-1.282.355-2.041.355a5.834 5.834 0 0 1-1.665-.226 3.954 3.954 0 0 1-1.375-.719 4.366 4.366 0 0 1-1.031-1.311c-.287-.537-.505-1.189-.655-1.955-.151-.766-.226-1.662-.226-2.686v-2.384c0-1.282.115-2.357.344-3.223.236-.867.569-1.561.999-2.084a3.63 3.63 0 0 1 1.547-1.139c.608-.229 1.289-.343 2.041-.343.608 0 1.167.075 1.675.225.516.143.974.376 1.375.698.401.315.742.738 1.021 1.268.286.523.505 1.164.655 1.923.151.759.226 1.651.226 2.675Zm-1.998 2.707v-3.04c0-.702-.043-1.318-.129-1.848a5.789 5.789 0 0 0-.355-1.375 2.71 2.71 0 0 0-.601-.924 2.141 2.141 0 0 0-.827-.516 2.989 2.989 0 0 0-1.042-.171 2.82 2.82 0 0 0-1.257.268 2.267 2.267 0 0 0-.924.827c-.244.38-.43.878-.559 1.493-.129.616-.193 1.365-.193 2.246v3.04c0 .701.039 1.321.118 1.858.086.537.211 1.003.376 1.397.165.386.365.705.602.956.236.25.508.436.816.558.315.115.663.172 1.042.172.487 0 .913-.093 1.278-.279.366-.186.67-.477.914-.87.25-.401.436-.913.558-1.537.122-.63.183-1.382.183-2.255Zm16.994 3.276c0-.286-.065-.551-.193-.795-.122-.251-.376-.476-.763-.677-.38-.207-.953-.386-1.719-.537a13.673 13.673 0 0 1-1.751-.483 5.29 5.29 0 0 1-1.321-.677 2.828 2.828 0 0 1-.827-.935c-.194-.358-.29-.777-.29-1.256 0-.459.1-.892.3-1.3.208-.408.498-.77.871-1.085a4.224 4.224 0 0 1 1.364-.741 5.516 5.516 0 0 1 1.772-.269c.931 0 1.726.165 2.385.494.659.33 1.164.77 1.515 1.322.351.544.526 1.149.526 1.815h-1.987a1.71 1.71 0 0 0-.29-.935 2.142 2.142 0 0 0-.827-.762c-.359-.201-.799-.301-1.322-.301-.551 0-.999.086-1.343.258-.336.164-.583.376-.741.634-.15.257-.225.529-.225.816 0 .215.035.408.107.58.079.165.215.319.408.462.194.136.466.265.817.387.351.121.798.243 1.342.365.953.215 1.737.473 2.353.773.616.301 1.074.67 1.375 1.107.301.437.451.967.451 1.59 0 .508-.107.974-.322 1.396a3.097 3.097 0 0 1-.913 1.096 4.542 4.542 0 0 1-1.418.709 6.36 6.36 0 0 1-1.837.247c-1.024 0-1.891-.183-2.6-.548-.709-.365-1.246-.838-1.611-1.418a3.394 3.394 0 0 1-.548-1.837h1.998c.029.544.186.978.473 1.3.286.315.637.541 1.053.677.415.129.827.193 1.235.193.544 0 .999-.072 1.364-.215.373-.143.655-.34.849-.591.193-.25.29-.537.29-.859Zm11.451 1.096v-5.984c0-.458-.093-.855-.279-1.192a1.823 1.823 0 0 0-.817-.795c-.365-.186-.816-.279-1.353-.279-.501 0-.942.086-1.321.258a2.29 2.29 0 0 0-.881.676c-.208.28-.312.58-.312.903h-1.987c0-.416.107-.828.322-1.236.215-.408.523-.777.924-1.106a4.599 4.599 0 0 1 1.461-.795 5.745 5.745 0 0 1 1.912-.301c.845 0 1.59.143 2.234.43.652.286 1.161.72 1.526 1.3.372.573.558 1.292.558 2.159v5.414c0 .387.033.798.097 1.235.072.437.175.813.312 1.128V354h-2.074a3.716 3.716 0 0 1-.236-.913 7.41 7.41 0 0 1-.086-1.074Zm.344-5.06.021 1.397h-2.009c-.565 0-1.07.046-1.514.139-.444.086-.817.219-1.117.398-.301.179-.53.404-.688.676a1.801 1.801 0 0 0-.236.935c0 .365.082.698.247.999a1.8 1.8 0 0 0 .741.72c.337.172.748.258 1.235.258.609 0 1.146-.129 1.612-.387a3.362 3.362 0 0 0 1.106-.945c.28-.373.43-.734.451-1.085l.849.956c-.05.3-.186.633-.408.999a4.752 4.752 0 0 1-.892 1.052 4.8 4.8 0 0 1-1.31.828c-.502.214-1.067.322-1.698.322-.787 0-1.478-.154-2.073-.462a3.555 3.555 0 0 1-1.375-1.235 3.274 3.274 0 0 1-.483-1.751c0-.623.122-1.171.365-1.644a3.16 3.16 0 0 1 1.053-1.192c.458-.323 1.01-.566 1.654-.731a8.714 8.714 0 0 1 2.159-.247h2.31Zm9.636-4.576v1.525h-6.285v-1.525h6.285Zm-4.158-2.825h1.988v11.569c0 .394.06.691.182.892.122.2.28.333.473.397.193.065.401.097.623.097.165 0 .337-.014.516-.043.186-.036.325-.065.419-.086l.01 1.622c-.157.05-.365.097-.623.14-.25.05-.555.075-.913.075-.487 0-.934-.097-1.343-.29-.408-.194-.734-.516-.977-.967-.237-.458-.355-1.074-.355-1.848v-11.558Zm13.256 11.365c0-.286-.064-.551-.193-.795-.122-.251-.376-.476-.763-.677-.379-.207-.952-.386-1.719-.537a13.673 13.673 0 0 1-1.751-.483 5.308 5.308 0 0 1-1.321-.677 2.828 2.828 0 0 1-.827-.935c-.193-.358-.29-.777-.29-1.256 0-.459.1-.892.301-1.3a3.47 3.47 0 0 1 .87-1.085 4.224 4.224 0 0 1 1.364-.741 5.518 5.518 0 0 1 1.773-.269c.931 0 1.725.165 2.384.494.659.33 1.164.77 1.515 1.322.351.544.526 1.149.526 1.815h-1.987a1.71 1.71 0 0 0-.29-.935 2.135 2.135 0 0 0-.827-.762c-.358-.201-.799-.301-1.321-.301-.552 0-.999.086-1.343.258-.337.164-.584.376-.741.634a1.585 1.585 0 0 0-.226.816c0 .215.036.408.107.58.079.165.215.319.409.462.193.136.465.265.816.387.351.121.798.243 1.343.365.952.215 1.736.473 2.352.773.616.301 1.075.67 1.375 1.107.301.437.451.967.451 1.59a3.087 3.087 0 0 1-1.235 2.492 4.531 4.531 0 0 1-1.418.709 6.355 6.355 0 0 1-1.837.247c-1.024 0-1.89-.183-2.599-.548-.709-.365-1.246-.838-1.612-1.418a3.394 3.394 0 0 1-.548-1.837h1.998c.029.544.187.978.473 1.3.287.315.638.541 1.053.677.415.129.827.193 1.235.193.545 0 .999-.072 1.364-.215.373-.143.656-.34.849-.591.193-.25.29-.537.29-.859Z"/><path fill="#C6C6D0" d="m128.413 377.489 2.933-8.442h1.428L129.09 379h-1.019l.342-1.511Zm-2.741-8.442 2.905 8.442.362 1.511h-1.018l-3.678-9.953h1.429Zm12.548 8.688v-3.807c0-.292-.06-.545-.178-.759a1.163 1.163 0 0 0-.52-.506c-.232-.118-.519-.178-.861-.178-.319 0-.599.055-.841.164a1.46 1.46 0 0 0-.56.431.945.945 0 0 0-.198.574h-1.265c0-.264.068-.526.205-.786.137-.26.333-.494.588-.704.26-.214.57-.383.93-.506.364-.127.77-.191 1.216-.191.538 0 1.012.091 1.422.273.415.183.738.458.971.827.237.365.355.823.355 1.374v3.446c0 .246.021.508.062.786.045.278.112.517.198.718V379h-1.319a2.383 2.383 0 0 1-.151-.581 4.745 4.745 0 0 1-.054-.684Zm.218-3.219.014.888h-1.278c-.36 0-.681.03-.964.089-.283.055-.52.139-.711.253a1.205 1.205 0 0 0-.437.431 1.133 1.133 0 0 0-.151.594c0 .233.053.445.157.636.105.192.262.344.472.458.214.11.476.164.786.164.388 0 .729-.082 1.026-.246.296-.164.53-.364.704-.601.177-.237.273-.467.287-.691l.54.609a1.842 1.842 0 0 1-.26.635 3.09 3.09 0 0 1-1.401 1.197 2.73 2.73 0 0 1-1.08.205c-.502 0-.941-.098-1.32-.294a2.264 2.264 0 0 1-.875-.786 2.082 2.082 0 0 1-.307-1.115c0-.396.077-.745.232-1.046.155-.305.378-.558.67-.758.292-.205.643-.36 1.053-.465.41-.105.868-.157 1.374-.157h1.469Zm4.66-6.016V379h-1.272v-10.5h1.272Zm6.805 8.791v-5.687h1.272V379h-1.21l-.062-1.709Zm.24-1.559.526-.013c0 .492-.052.948-.157 1.367a2.957 2.957 0 0 1-.492 1.08 2.334 2.334 0 0 1-.896.718c-.369.168-.818.253-1.347.253-.36 0-.69-.053-.991-.158a1.966 1.966 0 0 1-.765-.485 2.206 2.206 0 0 1-.5-.854c-.113-.351-.17-.773-.17-1.265v-4.771h1.264v4.785c0 .332.037.608.11.827.077.214.18.385.307.513.132.123.278.209.438.259.164.05.332.075.506.075.537 0 .963-.102 1.278-.307.314-.21.54-.49.677-.841.141-.355.212-.75.212-1.183Zm6.279 3.405c-.515 0-.982-.087-1.401-.26a3.183 3.183 0 0 1-1.074-.745 3.305 3.305 0 0 1-.683-1.135 4.147 4.147 0 0 1-.24-1.435v-.288c0-.601.089-1.137.267-1.606.178-.474.419-.875.725-1.203a3.087 3.087 0 0 1 1.039-.745 2.975 2.975 0 0 1 1.203-.253c.528 0 .984.091 1.367.273.387.183.704.438.95.766.246.323.429.706.547 1.148.119.438.178.916.178 1.436v.567h-5.524v-1.032h4.259v-.096a3.133 3.133 0 0 0-.205-.957 1.713 1.713 0 0 0-.547-.765c-.25-.201-.592-.301-1.025-.301a1.72 1.72 0 0 0-1.415.718 2.693 2.693 0 0 0-.404.868 4.43 4.43 0 0 0-.143 1.182v.288c0 .35.048.681.143.991.101.305.244.574.431.806.192.233.422.415.691.547.273.132.583.198.929.198.447 0 .825-.091 1.135-.273a2.8 2.8 0 0 0 .813-.731l.766.608a3.486 3.486 0 0 1-.608.69 2.904 2.904 0 0 1-.909.534c-.356.136-.777.205-1.265.205Zm11.194-3.487v1.039h-7.191v-.745l4.457-6.897h1.032l-1.107 1.996-2.947 4.607h5.756Zm-1.387-6.603V379h-1.265v-9.953h1.265Zm6.327 8.442 2.932-8.442h1.429L173.232 379h-1.018l.342-1.511Zm-2.742-8.442 2.906 8.442.362 1.511h-1.019l-3.677-9.953h1.428Zm12.548 8.688v-3.807c0-.292-.059-.545-.177-.759a1.168 1.168 0 0 0-.52-.506c-.232-.118-.519-.178-.861-.178-.319 0-.6.055-.841.164-.237.11-.424.253-.561.431a.945.945 0 0 0-.198.574h-1.265c0-.264.069-.526.206-.786a2.29 2.29 0 0 1 .587-.704c.26-.214.57-.383.93-.506.365-.127.77-.191 1.217-.191.538 0 1.012.091 1.422.273.414.183.738.458.97.827.237.365.356.823.356 1.374v3.446c0 .246.02.508.061.786.046.278.112.517.199.718V379h-1.32a2.388 2.388 0 0 1-.15-.581 4.754 4.754 0 0 1-.055-.684Zm.219-3.219.014.888h-1.279c-.36 0-.681.03-.963.089-.283.055-.52.139-.711.253a1.2 1.2 0 0 0-.438.431c-.1.168-.15.367-.15.594 0 .233.052.445.157.636.105.192.262.344.472.458.214.11.476.164.786.164.387 0 .729-.082 1.025-.246.296-.164.531-.364.704-.601.178-.237.274-.467.287-.691l.54.609a1.837 1.837 0 0 1-.259.635 3.06 3.06 0 0 1-1.402 1.197 2.73 2.73 0 0 1-1.08.205c-.501 0-.941-.098-1.319-.294a2.25 2.25 0 0 1-.875-.786 2.083 2.083 0 0 1-.308-1.115c0-.396.078-.745.233-1.046.155-.305.378-.558.67-.758a3.18 3.18 0 0 1 1.052-.465c.41-.105.868-.157 1.374-.157h1.47Zm4.659-6.016V379h-1.271v-10.5h1.271Zm6.806 8.791v-5.687h1.271V379h-1.21l-.061-1.709Zm.239-1.559.527-.013c0 .492-.053.948-.158 1.367-.1.415-.264.775-.492 1.08a2.33 2.33 0 0 1-.895.718c-.37.168-.818.253-1.347.253-.36 0-.691-.053-.991-.158a1.962 1.962 0 0 1-.766-.485 2.217 2.217 0 0 1-.499-.854c-.114-.351-.171-.773-.171-1.265v-4.771h1.265v4.785c0 .332.036.608.109.827.078.214.18.385.308.513.132.123.278.209.437.259.164.05.333.075.506.075.538 0 .964-.102 1.278-.307.315-.21.541-.49.677-.841.142-.355.212-.75.212-1.183Zm6.279 3.405c-.515 0-.982-.087-1.401-.26a3.179 3.179 0 0 1-1.073-.745 3.323 3.323 0 0 1-.684-1.135 4.17 4.17 0 0 1-.239-1.435v-.288c0-.601.089-1.137.267-1.606.177-.474.419-.875.724-1.203a3.107 3.107 0 0 1 1.039-.745 2.982 2.982 0 0 1 1.203-.253c.529 0 .985.091 1.368.273.387.183.704.438.95.766.246.323.428.706.547 1.148.118.438.177.916.177 1.436v.567h-5.523v-1.032h4.259v-.096a3.163 3.163 0 0 0-.205-.957 1.721 1.721 0 0 0-.547-.765c-.251-.201-.593-.301-1.026-.301a1.723 1.723 0 0 0-1.415.718 2.692 2.692 0 0 0-.403.868 4.387 4.387 0 0 0-.144 1.182v.288c0 .35.048.681.144.991.1.305.244.574.431.806.191.233.421.415.69.547.274.132.583.198.93.198.446 0 .825-.091 1.135-.273.309-.182.581-.426.813-.731l.766.608c-.16.242-.363.472-.609.69a2.904 2.904 0 0 1-.909.534c-.355.136-.777.205-1.265.205Z"/><g clip-path="url(#c)"><mask id="d" width="25" height="24" x="109" y="428" maskUnits="userSpaceOnUse" style="mask-type:alpha"><path fill="#D9D9D9" d="M109.5 428h24v24h-24z"/></mask><g mask="url(#d)"><path fill="#D2E4FF" d="M114.5 450a1.93 1.93 0 0 1-1.413-.587A1.93 1.93 0 0 1 112.5 448v-14h2v14h11v2h-11Zm4-4c-.55 0-1.021-.196-1.412-.587A1.927 1.927 0 0 1 116.5 444v-12c0-.55.196-1.021.588-1.413A1.926 1.926 0 0 1 118.5 430h9c.55 0 1.021.196 1.413.587.391.392.587.863.587 1.413v12a1.93 1.93 0 0 1-.587 1.413 1.93 1.93 0 0 1-1.413.587h-9Zm0-2h9v-12h-9v12Z"/></g></g><path fill="#D2E4FF" d="M90.64 474.287h1.126a3.583 3.583 0 0 1-.463 1.447c-.25.426-.604.764-1.06 1.014-.458.246-1.028.369-1.712.369-.5 0-.955-.094-1.365-.281a3.038 3.038 0 0 1-1.049-.797 3.736 3.736 0 0 1-.68-1.248 5.323 5.323 0 0 1-.234-1.629v-.85c0-.597.078-1.138.234-1.623.16-.488.39-.906.686-1.253a3.05 3.05 0 0 1 1.084-.803 3.462 3.462 0 0 1 1.424-.281c.644 0 1.19.121 1.635.363.445.242.79.578 1.037 1.008.25.425.404.92.463 1.482H90.64a3.134 3.134 0 0 0-.305-1.025 1.582 1.582 0 0 0-.633-.668c-.273-.157-.63-.235-1.072-.235a2.22 2.22 0 0 0-1.002.217c-.285.145-.526.35-.72.615a2.868 2.868 0 0 0-.434.955 4.87 4.87 0 0 0-.147 1.237v.861c0 .418.043.811.129 1.178.09.367.225.689.404.967.18.277.408.496.686.656.277.156.605.234.984.234.48 0 .863-.076 1.149-.228.285-.153.5-.371.644-.657.149-.285.254-.626.317-1.025Zm2.716-.387v-.134c0-.457.066-.881.199-1.272.132-.394.324-.736.574-1.025.25-.293.553-.52.908-.68a2.82 2.82 0 0 1 1.195-.246c.446 0 .846.082 1.202.246.359.16.664.387.914.68.254.289.447.631.58 1.025.133.391.199.815.199 1.272v.134c0 .457-.066.881-.2 1.272-.132.39-.325.732-.58 1.025a2.66 2.66 0 0 1-.907.68c-.352.16-.75.24-1.196.24-.445 0-.846-.08-1.201-.24a2.719 2.719 0 0 1-.914-.68 3.102 3.102 0 0 1-.574-1.025 3.931 3.931 0 0 1-.2-1.272Zm1.084-.134v.134c0 .317.037.616.11.897.075.277.186.523.335.738.152.215.342.385.568.51.227.121.49.182.791.182.297 0 .557-.061.78-.182.226-.125.413-.295.562-.51.148-.215.26-.461.334-.738.078-.281.117-.58.117-.897v-.134c0-.313-.039-.608-.117-.885a2.282 2.282 0 0 0-.34-.744 1.615 1.615 0 0 0-.562-.516 1.578 1.578 0 0 0-.786-.187c-.296 0-.558.062-.785.187-.222.125-.41.297-.562.516-.149.215-.26.463-.334.744a3.408 3.408 0 0 0-.112.885Zm7.63-1.887v7.559h-1.09v-8.778h.997l.093 1.219Zm4.272 1.898v.123c0 .461-.055.889-.164 1.284-.11.39-.27.73-.481 1.019a2.19 2.19 0 0 1-.767.674c-.305.16-.655.24-1.049.24a2.68 2.68 0 0 1-1.067-.199 2.11 2.11 0 0 1-.785-.58 2.967 2.967 0 0 1-.515-.914 5.305 5.305 0 0 1-.258-1.201v-.657c.047-.468.135-.888.264-1.259.128-.371.298-.688.509-.95.215-.265.475-.466.78-.603a2.482 2.482 0 0 1 1.054-.211c.399 0 .752.078 1.061.234.308.153.568.371.779.657.211.285.369.627.475 1.025.109.395.164.834.164 1.318Zm-1.09.123v-.123a3.78 3.78 0 0 0-.1-.89 2.252 2.252 0 0 0-.31-.739 1.486 1.486 0 0 0-.528-.503 1.496 1.496 0 0 0-.767-.188c-.274 0-.512.047-.715.141-.199.093-.369.22-.51.381-.14.156-.256.335-.345.539a3.088 3.088 0 0 0-.194.621v1.517c.078.274.188.532.328.774.141.238.328.431.563.58.234.144.529.217.885.217.293 0 .545-.061.755-.182.215-.125.391-.295.528-.51.14-.215.244-.461.31-.738.067-.281.1-.58.1-.897Zm4.684 2.444 1.763-5.684h1.16l-2.543 7.319a3.857 3.857 0 0 1-.234.503 2.427 2.427 0 0 1-.363.522 1.726 1.726 0 0 1-.539.398 1.615 1.615 0 0 1-.744.159 3.408 3.408 0 0 1-.61-.094l-.006-.879c.032.004.08.008.147.012a1.755 1.755 0 0 0 .773-.088.948.948 0 0 0 .434-.323c.121-.148.224-.353.31-.615l.452-1.23Zm-1.295-5.684 1.646 4.922.281 1.143-.779.398-2.332-6.463h1.184Zm10.351 0V477h-1.09v-6.34h1.09Zm-1.172-1.681c0-.176.053-.325.159-.446.109-.121.269-.181.48-.181.207 0 .365.06.475.181a.63.63 0 0 1 .17.446.614.614 0 0 1-.17.433c-.11.117-.268.176-.475.176-.211 0-.371-.059-.48-.176a.636.636 0 0 1-.159-.433Zm4.496 3.035V477h-1.084v-6.34h1.026l.058 1.354Zm-.257 1.576-.452-.018c.004-.433.069-.834.194-1.201.125-.371.301-.693.527-.967.227-.273.496-.484.809-.633a2.39 2.39 0 0 1 1.049-.228c.312 0 .593.043.843.129.25.082.463.215.639.398.18.184.316.422.41.715.094.289.141.643.141 1.061V477h-1.09v-4.166c0-.332-.049-.598-.147-.797a.899.899 0 0 0-.427-.439 1.535 1.535 0 0 0-.692-.141 1.61 1.61 0 0 0-.738.17 1.748 1.748 0 0 0-.568.469c-.157.199-.28.427-.369.685a2.507 2.507 0 0 0-.129.809Zm8.234 2.431 1.734-5.361h1.108l-2.28 6.34h-.726l.164-.979Zm-1.447-5.361 1.787 5.391.123.949h-.727l-2.297-6.34h1.114Zm5.451 3.24v-.134c0-.457.066-.881.199-1.272.133-.394.324-.736.574-1.025.25-.293.553-.52.909-.68a2.815 2.815 0 0 1 1.195-.246c.445 0 .846.082 1.201.246.359.16.664.387.914.68.254.289.447.631.58 1.025.133.391.199.815.199 1.272v.134c0 .457-.066.881-.199 1.272-.133.39-.326.732-.58 1.025-.25.289-.553.516-.908.68-.352.16-.75.24-1.195.24-.446 0-.846-.08-1.202-.24a2.724 2.724 0 0 1-.914-.68 3.105 3.105 0 0 1-.574-1.025 3.926 3.926 0 0 1-.199-1.272Zm1.084-.134v.134c0 .317.037.616.111.897.074.277.186.523.334.738.153.215.342.385.569.51.226.121.49.182.791.182.296 0 .556-.061.779-.182.226-.125.414-.295.562-.51.149-.215.26-.461.334-.738a3.34 3.34 0 0 0 .118-.897v-.134c0-.313-.04-.608-.118-.885a2.264 2.264 0 0 0-.34-.744 1.605 1.605 0 0 0-.562-.516 1.577 1.577 0 0 0-.785-.187c-.297 0-.559.062-.785.187-.223.125-.41.297-.563.516-.148.215-.26.463-.334.744a3.417 3.417 0 0 0-.111.885Zm7.724-3.106V477h-1.089v-6.34h1.089Zm-1.171-1.681c0-.176.052-.325.158-.446.109-.121.269-.181.48-.181.207 0 .366.06.475.181a.63.63 0 0 1 .17.446.614.614 0 0 1-.17.433c-.109.117-.268.176-.475.176-.211 0-.371-.059-.48-.176a.636.636 0 0 1-.158-.433Zm5.949 7.248c.258 0 .496-.053.715-.159.218-.105.398-.25.539-.433.14-.188.22-.401.24-.639h1.031a1.924 1.924 0 0 1-.381 1.049c-.23.32-.533.58-.908.779a2.627 2.627 0 0 1-1.236.293c-.477 0-.893-.084-1.248-.252a2.466 2.466 0 0 1-.879-.691 3.096 3.096 0 0 1-.522-1.008 4.264 4.264 0 0 1-.17-1.213v-.246c0-.426.057-.828.17-1.207.118-.383.291-.721.522-1.014.234-.293.527-.523.879-.691.355-.168.771-.252 1.248-.252.496 0 .929.102 1.301.305.371.199.662.472.873.82.214.344.332.734.351 1.172h-1.031a1.566 1.566 0 0 0-.223-.709 1.392 1.392 0 0 0-.515-.504 1.441 1.441 0 0 0-.756-.193c-.332 0-.612.066-.838.199-.223.129-.4.305-.533.527a2.473 2.473 0 0 0-.282.733 4.072 4.072 0 0 0-.082.814v.246c0 .277.028.551.082.82.055.27.147.514.276.733.133.219.31.394.533.527.227.129.508.194.844.194Zm6.875.89c-.442 0-.842-.074-1.201-.222a2.736 2.736 0 0 1-.92-.639 2.85 2.85 0 0 1-.586-.973 3.56 3.56 0 0 1-.205-1.23v-.246c0-.516.076-.975.228-1.377.153-.407.36-.75.621-1.032a2.66 2.66 0 0 1 .891-.638 2.55 2.55 0 0 1 1.031-.217c.453 0 .844.078 1.172.234.332.157.604.375.815.657.21.277.367.605.468.984.102.375.153.785.153 1.23v.487h-4.735v-.885h3.651v-.082a2.728 2.728 0 0 0-.176-.82 1.478 1.478 0 0 0-.469-.657c-.215-.171-.508-.257-.879-.257a1.466 1.466 0 0 0-1.213.615 2.307 2.307 0 0 0-.345.744 3.775 3.775 0 0 0-.123 1.014v.246c0 .301.041.584.123.849.086.262.209.493.369.692.164.199.361.355.592.468.234.114.5.17.796.17.383 0 .707-.078.973-.234.266-.156.498-.365.697-.627l.657.522a3.026 3.026 0 0 1-.522.591c-.211.188-.471.34-.779.457-.305.118-.666.176-1.084.176Z"/><g clip-path="url(#e)"><mask id="f" width="24" height="24" x="197" y="428" maskUnits="userSpaceOnUse" style="mask-type:alpha"><path fill="#D9D9D9" d="M197 428h24v24h-24z"/></mask><g mask="url(#f)"><path fill="#D2E4FF" d="M213 441.5c.433 0 .792-.142 1.075-.425.283-.283.425-.642.425-1.075 0-.433-.142-.792-.425-1.075-.283-.283-.642-.425-1.075-.425-.433 0-.792.142-1.075.425-.283.283-.425.642-.425 1.075 0 .433.142.792.425 1.075.283.283.642.425 1.075.425Zm-11 7.5a1.93 1.93 0 0 1-1.413-.587A1.93 1.93 0 0 1 200 447v-14c0-.55.196-1.021.587-1.413A1.93 1.93 0 0 1 202 431h14c.55 0 1.021.196 1.413.587.391.392.587.863.587 1.413v2.5h-2V433h-14v14h14v-2.5h2v2.5a1.93 1.93 0 0 1-.587 1.413A1.93 1.93 0 0 1 216 449h-14Zm8-4c-.55 0-1.021-.196-1.412-.587A1.927 1.927 0 0 1 208 443v-6c0-.55.196-1.021.588-1.413A1.926 1.926 0 0 1 210 435h7c.55 0 1.021.196 1.413.587.391.392.587.863.587 1.413v6a1.93 1.93 0 0 1-.587 1.413A1.93 1.93 0 0 1 217 445h-7Zm7-2v-6h-7v6h7Z"/></g></g><path fill="#D2E4FF" d="M182.059 472.465v.539c0 .641-.08 1.215-.241 1.723-.16.507-.39.939-.691 1.294a3 3 0 0 1-1.084.815 3.407 3.407 0 0 1-1.406.281 3.39 3.39 0 0 1-1.389-.281 3.127 3.127 0 0 1-1.09-.815 3.805 3.805 0 0 1-.709-1.294c-.168-.508-.252-1.082-.252-1.723v-.539c0-.641.082-1.213.246-1.717a3.81 3.81 0 0 1 .709-1.295 3.037 3.037 0 0 1 1.084-.82 3.374 3.374 0 0 1 1.389-.281c.52 0 .988.093 1.406.281a2.97 2.97 0 0 1 1.084.82c.305.356.537.787.697 1.295.165.504.247 1.076.247 1.717Zm-1.12.539v-.551a5.17 5.17 0 0 0-.158-1.348 2.794 2.794 0 0 0-.451-.984 1.932 1.932 0 0 0-.732-.603 2.224 2.224 0 0 0-.973-.206c-.352 0-.67.069-.955.206a2.012 2.012 0 0 0-.727.603 2.974 2.974 0 0 0-.463.984c-.109.391-.164.84-.164 1.348v.551c0 .512.055.965.164 1.359.11.391.266.721.469.991.207.265.451.466.733.603.285.137.603.205.955.205.367 0 .693-.068.978-.205.285-.137.526-.338.721-.603.199-.27.35-.6.451-.991.102-.394.152-.847.152-1.359Zm4.233-1.125v7.559h-1.09v-8.778h.996l.094 1.219Zm4.271 1.898v.123c0 .461-.054.889-.164 1.284-.109.39-.269.73-.48 1.019a2.184 2.184 0 0 1-.768.674 2.22 2.22 0 0 1-1.049.24c-.402 0-.757-.066-1.066-.199a2.102 2.102 0 0 1-.785-.58 2.969 2.969 0 0 1-.516-.914 5.305 5.305 0 0 1-.258-1.201v-.657c.047-.468.135-.888.264-1.259.129-.371.299-.688.51-.95.215-.265.474-.466.779-.603a2.487 2.487 0 0 1 1.055-.211c.398 0 .752.078 1.06.234.309.153.569.371.78.657.211.285.369.627.474 1.025.11.395.164.834.164 1.318Zm-1.089.123v-.123c0-.316-.034-.613-.1-.89a2.232 2.232 0 0 0-.311-.739 1.475 1.475 0 0 0-.527-.503 1.502 1.502 0 0 0-.768-.188c-.273 0-.511.047-.714.141-.2.093-.37.22-.51.381a1.999 1.999 0 0 0-.346.539c-.086.199-.15.406-.193.621v1.517c.078.274.187.532.328.774.141.238.328.431.562.58.235.144.53.217.885.217.293 0 .545-.061.756-.182.215-.125.391-.295.527-.51a2.31 2.31 0 0 0 .311-.738c.066-.281.1-.58.1-.897Zm5.603 3.217c-.441 0-.842-.074-1.201-.222a2.736 2.736 0 0 1-.92-.639 2.85 2.85 0 0 1-.586-.973 3.56 3.56 0 0 1-.205-1.23v-.246c0-.516.076-.975.228-1.377.153-.407.36-.75.622-1.032.261-.281.558-.494.89-.638a2.55 2.55 0 0 1 1.031-.217c.454 0 .844.078 1.172.234.332.157.604.375.815.657.211.277.367.605.468.984.102.375.153.785.153 1.23v.487h-4.735v-.885h3.651v-.082a2.698 2.698 0 0 0-.176-.82 1.478 1.478 0 0 0-.469-.657c-.215-.171-.507-.257-.879-.257a1.466 1.466 0 0 0-1.212.615 2.287 2.287 0 0 0-.346.744 3.775 3.775 0 0 0-.123 1.014v.246c0 .301.041.584.123.849.086.262.209.493.369.692.164.199.361.355.592.468.234.114.5.17.797.17.382 0 .707-.078.972-.234.266-.156.498-.365.698-.627l.656.522a3.026 3.026 0 0 1-.522.591 2.47 2.47 0 0 1-.779.457c-.305.118-.666.176-1.084.176Zm5.316-5.103V477h-1.084v-6.34h1.026l.058 1.354Zm-.257 1.576-.452-.018c.004-.433.069-.834.194-1.201.125-.371.301-.693.527-.967.227-.273.496-.484.809-.633a2.39 2.39 0 0 1 1.049-.228c.312 0 .593.043.843.129.25.082.463.215.639.398.18.184.316.422.41.715.094.289.141.643.141 1.061V477h-1.09v-4.166c0-.332-.049-.598-.147-.797a.899.899 0 0 0-.427-.439 1.535 1.535 0 0 0-.692-.141 1.61 1.61 0 0 0-.738.17 1.748 1.748 0 0 0-.568.469c-.157.199-.28.427-.369.685a2.507 2.507 0 0 0-.129.809Zm11.388 2.285 1.629-5.215h.715l-.141 1.037-1.658 5.303h-.697l.152-1.125Zm-1.095-5.215 1.388 5.274.1 1.066h-.733l-1.839-6.34h1.084Zm4.998 5.233 1.324-5.233h1.078l-1.84 6.34h-.726l.164-1.107Zm-1.401-5.233 1.594 5.127.182 1.213h-.692l-1.705-5.314-.14-1.026h.761Zm9.155 5.256v-3.264c0-.25-.051-.466-.153-.65a.995.995 0 0 0-.445-.434 1.62 1.62 0 0 0-.738-.152c-.274 0-.514.047-.721.141a1.25 1.25 0 0 0-.481.369.808.808 0 0 0-.169.492h-1.084c0-.227.058-.451.175-.674.117-.223.285-.424.504-.603.223-.184.489-.329.797-.434.313-.109.66-.164 1.043-.164.461 0 .867.078 1.219.234.355.157.633.393.832.709.203.313.305.705.305 1.178v2.953c0 .211.017.436.052.674.039.238.096.443.17.615V477h-1.131a2.091 2.091 0 0 1-.129-.498 4.042 4.042 0 0 1-.046-.586Zm.187-2.76.012.762h-1.096c-.309 0-.584.025-.826.076a1.883 1.883 0 0 0-.609.217c-.165.098-.29.221-.375.369a.981.981 0 0 0-.129.51c0 .199.045.381.134.545.09.164.225.295.405.392.183.094.408.141.674.141.332 0 .624-.07.878-.211s.455-.312.604-.516c.152-.203.234-.4.246-.591l.463.521a1.57 1.57 0 0 1-.223.545 2.618 2.618 0 0 1-1.201 1.025 2.313 2.313 0 0 1-.926.176 2.43 2.43 0 0 1-1.131-.252 1.933 1.933 0 0 1-.75-.674 1.788 1.788 0 0 1-.263-.955c0-.34.066-.638.199-.896.133-.262.324-.479.574-.651.25-.175.551-.308.903-.398.351-.09.744-.135 1.177-.135h1.26Zm4.279-5.156v9h-1.089v-9h1.089Zm3.418 0v9h-1.09v-9h1.09Zm4.871 9.117a3.13 3.13 0 0 1-1.201-.222 2.746 2.746 0 0 1-.92-.639 2.85 2.85 0 0 1-.586-.973 3.583 3.583 0 0 1-.205-1.23v-.246c0-.516.076-.975.229-1.377.152-.407.359-.75.621-1.032a2.65 2.65 0 0 1 .891-.638 2.547 2.547 0 0 1 1.031-.217c.453 0 .844.078 1.172.234.332.157.603.375.814.657.211.277.367.605.469.984.101.375.152.785.152 1.23v.487h-4.734v-.885h3.65v-.082a2.668 2.668 0 0 0-.176-.82 1.468 1.468 0 0 0-.468-.657c-.215-.171-.508-.257-.879-.257a1.47 1.47 0 0 0-1.213.615 2.287 2.287 0 0 0-.346.744 3.775 3.775 0 0 0-.123 1.014v.246c0 .301.041.584.123.849.086.262.209.493.369.692.164.199.362.355.592.468.234.114.5.17.797.17.383 0 .707-.078.973-.234.265-.156.498-.365.697-.627l.656.522a3.02 3.02 0 0 1-.521.591c-.211.188-.471.34-.78.457-.304.118-.666.176-1.084.176Zm6.887-6.457v.832h-3.428v-.832h3.428Zm-2.267-1.541h1.084v6.311c0 .215.033.377.099.486a.478.478 0 0 0 .258.217c.105.035.219.053.34.053.09 0 .183-.008.281-.024.102-.019.178-.035.229-.047l.005.885a2.53 2.53 0 0 1-.339.076 2.536 2.536 0 0 1-.498.041c-.266 0-.51-.053-.733-.158a1.174 1.174 0 0 1-.533-.527c-.129-.25-.193-.586-.193-1.008v-6.305Z"/></g><defs><clipPath id="a"><path fill="#fff" d="M0 28C0 12.536 12.536 0 28 0h272c15.464 0 28 12.536 28 28v478H0V28Z"/></clipPath><clipPath id="c"><rect width="40" height="40" x="101.5" y="420" fill="#fff" rx="20"/></clipPath><clipPath id="e"><rect width="40" height="40" x="189" y="420" fill="#fff" rx="20"/></clipPath></defs></svg>