<svg xmlns="http://www.w3.org/2000/svg" width="328" height="306" fill="none"><g clip-path="url(#a)"><path fill="#001C37" d="M0 16C0 7.163 7.163 0 16 0h296c8.837 0 16 7.163 16 16v290H0V16Z"/><path fill="#B5C4FF" fill-opacity=".05" d="M0 16C0 7.163 7.163 0 16 0h296c8.837 0 16 7.163 16 16v290H0V16Z"/><g clip-path="url(#b)"><path stroke="#00325A" d="M0 .5h328"/><path fill="#D2E4FF" d="M33.482 24.013V34h-1.647v-8.032l-2.44.827v-1.36l3.889-1.422h.198Zm3.723 9.167c0-.255.087-.47.26-.643.173-.178.408-.267.704-.267.3 0 .535.09.704.267.173.173.26.388.26.643s-.087.47-.26.642c-.169.173-.403.26-.704.26-.296 0-.531-.087-.704-.26a.873.873 0 0 1-.26-.642Zm11.684-.663v-3.528c0-.264-.047-.492-.143-.683a1.005 1.005 0 0 0-.438-.445c-.191-.105-.432-.157-.724-.157-.27 0-.502.046-.698.137a1.128 1.128 0 0 0-.458.369.89.89 0 0 0-.163.526h-1.641c0-.291.07-.574.212-.847.141-.274.346-.518.615-.732.269-.214.59-.383.964-.506a4.008 4.008 0 0 1 1.258-.184c.556 0 1.048.093 1.476.28.433.187.773.47 1.019.848.25.373.376.843.376 1.408v3.288c0 .337.023.64.068.91.05.264.12.494.212.69V34h-1.688a2.918 2.918 0 0 1-.185-.677 5.528 5.528 0 0 1-.062-.806Zm.24-3.015.013 1.018H47.96c-.306 0-.575.03-.807.09a1.656 1.656 0 0 0-.58.245c-.156.11-.272.242-.35.397-.077.155-.116.33-.116.526s.046.376.137.54c.091.16.223.285.396.376.178.091.392.137.643.137.337 0 .631-.068.882-.205.255-.141.456-.312.601-.513.146-.205.224-.398.233-.58l.533.73a2.506 2.506 0 0 1-.28.602c-.132.214-.306.42-.52.615a2.584 2.584 0 0 1-1.77.656c-.483 0-.914-.095-1.292-.286a2.297 2.297 0 0 1-.889-.787 2.039 2.039 0 0 1-.321-1.128c0-.391.073-.738.218-1.038.15-.306.37-.561.657-.766.291-.205.647-.36 1.066-.465.42-.11.898-.164 1.436-.164h1.292Zm3.244-6.002h1.648v8.92L53.864 34h-1.49V23.5Zm6.474 6.733v.144c0 .547-.062 1.05-.185 1.51a3.48 3.48 0 0 1-.547 1.19c-.241.337-.542.6-.902.786-.355.183-.768.274-1.237.274-.46 0-.861-.087-1.203-.26a2.393 2.393 0 0 1-.862-.738 4.098 4.098 0 0 1-.553-1.142 7.544 7.544 0 0 1-.301-1.463v-.458c.06-.538.16-1.025.3-1.463.142-.442.327-.822.554-1.141.233-.324.518-.572.855-.745.342-.174.74-.26 1.196-.26.474 0 .891.09 1.251.273.365.183.668.442.91.78.24.332.42.729.54 1.189.122.46.184.968.184 1.524Zm-1.648.144v-.144a5.08 5.08 0 0 0-.082-.936 2.46 2.46 0 0 0-.273-.78 1.37 1.37 0 0 0-.506-.526c-.21-.132-.472-.198-.786-.198-.292 0-.542.05-.752.15-.21.1-.385.237-.526.41a2.031 2.031 0 0 0-.335.602c-.078.228-.13.474-.158.738v1.238c.041.341.128.656.26.943.137.283.328.51.574.684.246.168.563.252.95.252.306 0 .563-.061.773-.184a1.35 1.35 0 0 0 .5-.513c.127-.223.218-.483.273-.779.059-.296.088-.615.088-.957Zm4.906-6.877V34h-1.654V23.5h1.654Zm5.166 10.637a3.944 3.944 0 0 1-1.484-.267 3.275 3.275 0 0 1-1.121-.759 3.364 3.364 0 0 1-.704-1.141 3.999 3.999 0 0 1-.246-1.415v-.274c0-.578.084-1.103.253-1.572.168-.47.403-.87.704-1.203.3-.337.656-.595 1.066-.773.41-.177.855-.266 1.333-.266.529 0 .992.089 1.388.266.396.178.725.429.984.752.265.32.46.7.588 1.142.132.442.199.93.199 1.463v.704h-5.715V29.61h4.087v-.13a2.312 2.312 0 0 0-.177-.834 1.417 1.417 0 0 0-.486-.628c-.218-.16-.51-.24-.875-.24-.273 0-.517.06-.731.178-.21.114-.385.28-.526.5-.142.218-.251.482-.329.792-.072.305-.109.65-.109 1.032v.274c0 .323.043.624.13.902.091.273.223.513.397.718.173.205.382.367.628.485.246.114.527.171.841.171.397 0 .75-.08 1.06-.24.31-.159.579-.384.806-.676l.869.84c-.16.233-.367.457-.623.67-.255.21-.567.381-.936.514a3.727 3.727 0 0 1-1.272.198Z"/><rect width="95" height="31" x="12.5" y="13.5" stroke="#8F909A" rx="7.5"/><path fill="#D2E4FF" d="M139.593 32.688V34h-6.672v-1.128l3.241-3.534c.355-.401.635-.748.84-1.04a3.36 3.36 0 0 0 .431-.785c.087-.237.13-.467.13-.69 0-.315-.059-.59-.178-.828a1.298 1.298 0 0 0-.506-.567c-.223-.142-.494-.212-.813-.212-.369 0-.679.08-.93.24-.251.159-.44.38-.567.662a2.265 2.265 0 0 0-.192.957h-1.647c0-.579.132-1.107.396-1.586a2.908 2.908 0 0 1 1.149-1.148c.501-.287 1.105-.43 1.811-.43.666 0 1.231.11 1.696.334.464.223.818.54 1.059.95.246.41.369.896.369 1.456 0 .31-.05.618-.15.923-.1.306-.244.61-.431.916-.182.301-.398.604-.649.91-.251.3-.526.606-.827.915l-2.154 2.372h4.594Zm1.549.492c0-.255.087-.47.26-.643.173-.178.408-.267.704-.267.301 0 .536.09.704.267a.87.87 0 0 1 .26.643.87.87 0 0 1-.26.642c-.168.173-.403.26-.704.26-.296 0-.531-.087-.704-.26a.874.874 0 0 1-.26-.642Zm9.279-9.68V34h-1.655V23.5h1.655Zm3.668 3.104V34h-1.654v-7.396h1.654Zm-1.764-1.942c0-.25.082-.458.246-.622.169-.169.401-.253.698-.253.291 0 .521.084.69.253a.83.83 0 0 1 .253.622.822.822 0 0 1-.253.615c-.169.164-.399.246-.69.246-.297 0-.529-.082-.698-.246a.835.835 0 0 1-.246-.615Zm8.406 1.942h1.497v7.19c0 .666-.141 1.231-.424 1.696a2.72 2.72 0 0 1-1.183 1.06c-.505.246-1.091.369-1.756.369-.283 0-.597-.041-.944-.123a3.867 3.867 0 0 1-.998-.397 2.483 2.483 0 0 1-.8-.704l.773-.97c.264.314.556.544.875.69.319.146.654.219 1.005.219.378 0 .699-.07.964-.212.269-.137.476-.34.622-.608.146-.27.218-.597.218-.985v-5.55l.151-1.675Zm-5.025 3.78v-.144c0-.56.069-1.07.206-1.531.136-.465.332-.864.587-1.196.256-.338.566-.595.93-.773a2.73 2.73 0 0 1 1.237-.273c.479 0 .887.086 1.224.26.342.173.627.421.855.745.227.319.405.701.533 1.148.132.442.23.934.294 1.477v.458a7.473 7.473 0 0 1-.301 1.449 3.977 3.977 0 0 1-.561 1.135 2.386 2.386 0 0 1-.861.738c-.337.173-.736.26-1.196.26-.451 0-.859-.094-1.224-.28a2.787 2.787 0 0 1-.93-.787 3.711 3.711 0 0 1-.587-1.19 5.227 5.227 0 0 1-.206-1.496Zm1.648-.144v.144c0 .337.032.651.096.943.068.292.171.55.307.773.142.218.319.392.533.52.219.122.477.184.773.184.387 0 .704-.082.95-.246.251-.164.442-.386.574-.663.137-.283.233-.598.287-.944v-1.237a3.031 3.031 0 0 0-.17-.752 2.04 2.04 0 0 0-.335-.608 1.4 1.4 0 0 0-.534-.41c-.214-.1-.467-.151-.758-.151-.297 0-.554.064-.773.191a1.564 1.564 0 0 0-.54.527 2.613 2.613 0 0 0-.308.779 4.24 4.24 0 0 0-.102.95Zm8.31-6.74V34h-1.641V23.5h1.641Zm-.287 6.528-.533-.006c.004-.51.075-.983.211-1.416.142-.433.338-.809.588-1.128a2.61 2.61 0 0 1 2.099-1.012c.365 0 .693.05.984.151.297.1.552.262.766.485.214.22.376.506.485.862.114.35.171.78.171 1.285V34h-1.654v-4.765c0-.355-.052-.638-.157-.847a.916.916 0 0 0-.445-.452 1.623 1.623 0 0 0-.717-.143c-.297 0-.559.06-.787.178-.223.118-.41.28-.56.485-.15.205-.264.442-.342.711a3.276 3.276 0 0 0-.109.861Zm9.93-3.424v1.203h-4.17v-1.203h4.17Zm-2.967-1.812h1.648v7.164c0 .228.031.403.095.526a.515.515 0 0 0 .28.24c.119.04.258.061.417.061.114 0 .224-.007.329-.02.104-.014.189-.028.253-.041l.006 1.258a4.175 4.175 0 0 1-.478.109 3.517 3.517 0 0 1-.615.048c-.379 0-.714-.066-1.005-.199a1.478 1.478 0 0 1-.684-.663c-.164-.305-.246-.71-.246-1.216v-7.267Z"/><rect width="95" height="31" x="116.5" y="13.5" stroke="#8F909A" rx="7.5"/><path fill="#D2E4FF" d="M238.737 28.278h.984c.383 0 .7-.066.95-.198.255-.132.445-.314.568-.547.123-.232.184-.499.184-.8 0-.314-.057-.583-.171-.806a1.151 1.151 0 0 0-.506-.527c-.223-.123-.508-.184-.854-.184-.292 0-.556.06-.793.178a1.351 1.351 0 0 0-.554.492c-.136.21-.205.46-.205.752h-1.654c0-.529.139-.998.417-1.409.278-.41.656-.731 1.135-.963a3.643 3.643 0 0 1 1.627-.356c.642 0 1.203.107 1.681.321.483.21.859.524 1.128.944.269.42.404.939.404 1.558 0 .283-.067.57-.199.862a2.495 2.495 0 0 1-.588.8c-.259.236-.583.43-.97.58-.388.146-.837.22-1.347.22h-1.237v-.917Zm0 1.286v-.903h1.237c.583 0 1.08.069 1.49.205.415.137.752.326 1.012.568.26.237.449.508.567.813.123.305.185.629.185.97 0 .466-.084.88-.253 1.245-.164.36-.399.665-.704.916-.305.25-.663.44-1.073.567a4.404 4.404 0 0 1-1.327.192c-.428 0-.838-.06-1.23-.178a3.36 3.36 0 0 1-1.053-.526 2.606 2.606 0 0 1-.738-.882 2.713 2.713 0 0 1-.267-1.23h1.648c0 .295.068.558.205.785.141.224.337.4.588.527.255.127.547.191.875.191.346 0 .645-.061.895-.184.251-.123.442-.306.575-.547.136-.242.205-.533.205-.875 0-.388-.076-.702-.226-.944a1.326 1.326 0 0 0-.643-.533 2.497 2.497 0 0 0-.984-.177h-.984Zm6.286 3.616c0-.255.087-.47.26-.643.173-.178.408-.267.704-.267.301 0 .536.09.704.267.173.173.26.388.26.643s-.087.47-.26.642c-.168.173-.403.26-.704.26-.296 0-.531-.087-.704-.26a.874.874 0 0 1-.26-.642Zm11.664-1.183a.826.826 0 0 0-.123-.444c-.082-.137-.239-.26-.472-.37-.227-.109-.565-.209-1.011-.3a8.717 8.717 0 0 1-1.08-.308 3.416 3.416 0 0 1-.834-.444 1.857 1.857 0 0 1-.54-.615 1.7 1.7 0 0 1-.192-.82c0-.302.066-.586.198-.855.133-.27.322-.506.568-.711.246-.205.544-.367.895-.485a3.75 3.75 0 0 1 1.19-.178c.62 0 1.15.105 1.593.314.446.205.788.486 1.025.841.237.351.355.747.355 1.19h-1.647c0-.196-.05-.379-.15-.547a1.05 1.05 0 0 0-.438-.417c-.196-.11-.442-.164-.738-.164-.283 0-.518.045-.704.136a.967.967 0 0 0-.411.342.877.877 0 0 0-.129.465c0 .123.022.235.068.335.05.096.132.184.246.267.114.077.269.15.465.218.2.069.451.135.752.198.565.119 1.05.272 1.456.459.41.182.725.419.943.71.219.288.328.652.328 1.094 0 .328-.07.63-.212.902a2.04 2.04 0 0 1-.601.705 3.018 3.018 0 0 1-.95.458c-.365.109-.775.164-1.231.164-.67 0-1.237-.119-1.702-.356-.465-.241-.818-.549-1.059-.923a2.186 2.186 0 0 1-.356-1.175h1.593c.018.305.102.549.253.731.155.178.346.308.574.39.232.077.472.116.718.116.296 0 .544-.039.745-.116.2-.082.353-.192.458-.328a.782.782 0 0 0 .157-.479Zm4.81-3.972v8.819h-1.647v-10.24h1.517l.13 1.421Zm4.819 2.208v.144c0 .538-.063 1.037-.191 1.497a3.659 3.659 0 0 1-.554 1.196c-.241.338-.54.6-.895.786-.356.187-.766.28-1.231.28-.46 0-.863-.084-1.21-.252a2.486 2.486 0 0 1-.868-.732 3.974 3.974 0 0 1-.574-1.107 7.112 7.112 0 0 1-.301-1.408v-.554c.059-.542.16-1.034.301-1.477.146-.442.337-.822.574-1.141.237-.32.527-.565.868-.738.342-.174.741-.26 1.197-.26.464 0 .877.09 1.237.273.36.178.663.433.909.766.246.328.431.724.554 1.19.123.46.184.972.184 1.537Zm-1.647.144v-.144c0-.341-.032-.658-.096-.95a2.48 2.48 0 0 0-.301-.78 1.467 1.467 0 0 0-.526-.519 1.432 1.432 0 0 0-.759-.191c-.291 0-.542.05-.752.15-.209.096-.385.23-.526.404a1.901 1.901 0 0 0-.328.608 3.616 3.616 0 0 0-.164.745v1.326c.054.329.148.63.28.903.132.273.319.492.561.656.246.16.56.24.943.24.296 0 .549-.065.759-.192.209-.128.38-.303.512-.527.137-.227.237-.49.301-.786a4.46 4.46 0 0 0 .096-.943Zm2.834.007v-.157c0-.534.078-1.028.233-1.484.155-.46.378-.859.67-1.196a3.02 3.02 0 0 1 1.08-.793 3.513 3.513 0 0 1 1.449-.287c.542 0 1.025.096 1.449.287.429.187.791.451 1.087.793.296.337.522.736.677 1.196.155.456.232.95.232 1.484v.157c0 .533-.077 1.027-.232 1.483a3.555 3.555 0 0 1-.677 1.196 3.132 3.132 0 0 1-1.08.793c-.424.187-.905.28-1.442.28a3.603 3.603 0 0 1-1.456-.28 3.132 3.132 0 0 1-1.08-.793 3.538 3.538 0 0 1-.677-1.196 4.579 4.579 0 0 1-.233-1.483Zm1.648-.157v.157c0 .332.034.647.102.943.069.296.176.556.322.78.145.223.332.398.56.526.228.127.499.191.814.191.305 0 .569-.064.793-.191.227-.128.414-.303.56-.527.146-.223.253-.483.321-.779.073-.296.11-.61.11-.943v-.157c0-.329-.037-.639-.11-.93a2.368 2.368 0 0 0-.328-.786 1.568 1.568 0 0 0-.56-.534 1.545 1.545 0 0 0-.8-.198c-.31 0-.579.066-.807.198a1.581 1.581 0 0 0-.553.534c-.146.228-.253.49-.322.786a4.084 4.084 0 0 0-.102.93Zm6.396.157v-.157c0-.534.077-1.028.232-1.484.155-.46.378-.859.67-1.196a3.02 3.02 0 0 1 1.08-.793 3.516 3.516 0 0 1 1.449-.287c.543 0 1.026.096 1.45.287.428.187.79.451 1.086.793.297.337.522.736.677 1.196.155.456.233.95.233 1.484v.157c0 .533-.078 1.027-.233 1.483-.155.456-.38.855-.677 1.196a3.132 3.132 0 0 1-1.08.793c-.423.187-.904.28-1.442.28a3.607 3.607 0 0 1-1.456-.28 3.132 3.132 0 0 1-1.08-.793 3.555 3.555 0 0 1-.677-1.196 4.579 4.579 0 0 1-.232-1.483Zm1.647-.157v.157c0 .332.034.647.103.943.068.296.175.556.321.78.146.223.333.398.561.526.227.127.499.191.813.191.305 0 .57-.064.793-.191a1.59 1.59 0 0 0 .561-.527 2.43 2.43 0 0 0 .321-.779 3.93 3.93 0 0 0 .109-.943v-.157c0-.329-.036-.639-.109-.93a2.41 2.41 0 0 0-.328-.786 1.57 1.57 0 0 0-.561-.534 1.543 1.543 0 0 0-.8-.198c-.31 0-.578.066-.806.198a1.584 1.584 0 0 0-.554.534c-.146.228-.253.49-.321.786a4.028 4.028 0 0 0-.103.93Zm8.344-2.044V34h-1.647v-7.396h1.552l.095 1.579Zm-.294 1.845-.533-.006a4.834 4.834 0 0 1 .219-1.443c.146-.437.346-.813.601-1.128.26-.314.57-.556.93-.724.36-.174.761-.26 1.203-.26.356 0 .677.05.964.15.292.096.54.253.745.472.21.219.369.503.479.854.109.347.164.773.164 1.279V34h-1.654v-4.785c0-.356-.053-.636-.158-.841a.878.878 0 0 0-.444-.444c-.191-.091-.431-.137-.718-.137-.282 0-.535.06-.759.178-.223.118-.412.28-.567.485-.15.205-.267.442-.349.711a2.938 2.938 0 0 0-.123.861Z"/><rect width="95" height="31" x="220.5" y="13.5" stroke="#8F909A" rx="7.5"/><path fill="#D2E4FF" d="M36.054 78.452v1.313h-7.178l-.055-.992 4.293-6.726h1.32l-1.429 2.447-2.468 3.958h5.517Zm-1.244-6.405V82h-1.648v-9.953h1.648Zm2.609 9.133c0-.256.086-.47.26-.643.172-.178.407-.267.703-.267.301 0 .536.09.705.267.173.173.26.387.26.643 0 .255-.087.47-.26.642-.17.173-.404.26-.705.26-.296 0-.53-.087-.704-.26a.873.873 0 0 1-.26-.642Zm9.524-.82 1.709-5.757h1.053l-.288 1.723L47.695 82h-.944l.192-1.64Zm-1.005-5.757 1.333 5.784.11 1.613h-1.053l-2.003-7.397h1.613Zm5.366 5.715 1.292-5.715h1.607L52.206 82h-1.052l.15-1.682Zm-1.422-5.715 1.689 5.688.212 1.709h-.944l-1.743-5.68-.287-1.716h1.073Zm7.305 0V82h-1.654v-7.397h1.654Zm-1.763-1.94c0-.251.082-.459.246-.623.168-.169.4-.253.697-.253.292 0 .522.084.69.253a.832.832 0 0 1 .253.622.823.823 0 0 1-.253.615c-.168.164-.398.246-.69.246-.296 0-.529-.082-.697-.246a.835.835 0 0 1-.246-.615Zm5.302 3.52V82h-1.648v-7.397h1.552l.096 1.58Zm-.294 1.845-.533-.007a4.812 4.812 0 0 1 .218-1.442c.146-.437.347-.813.602-1.128.26-.314.57-.556.93-.724a2.74 2.74 0 0 1 1.203-.26c.355 0 .677.05.964.15.291.096.54.253.745.472.21.219.369.503.478.854.11.347.164.773.164 1.279V82H63.55v-4.785c0-.356-.052-.636-.157-.841a.88.88 0 0 0-.445-.444c-.19-.092-.43-.137-.717-.137-.283 0-.536.06-.76.178-.222.118-.411.28-.566.485-.15.205-.267.442-.35.711a2.938 2.938 0 0 0-.122.861Zm9.944-3.425v1.204h-4.17v-1.204h4.17Zm-2.967-1.811h1.647v7.164c0 .228.032.403.096.526a.511.511 0 0 0 .28.24c.119.04.258.061.417.061.114 0 .224-.007.328-.02.105-.014.19-.028.253-.041l.007 1.258a4.205 4.205 0 0 1-.478.109 3.514 3.514 0 0 1-.616.048c-.378 0-.713-.066-1.005-.198a1.479 1.479 0 0 1-.683-.664c-.164-.305-.246-.71-.246-1.216v-7.267Zm7.599 9.345a3.944 3.944 0 0 1-1.484-.267 3.275 3.275 0 0 1-1.12-.759 3.364 3.364 0 0 1-.705-1.141 3.999 3.999 0 0 1-.246-1.415v-.274c0-.579.084-1.103.253-1.572.169-.47.403-.87.704-1.203.3-.337.656-.595 1.067-.773.41-.177.854-.266 1.333-.266.528 0 .99.089 1.387.266.397.178.725.429.985.752.264.32.46.7.587 1.142.133.442.199.93.199 1.463v.704h-5.715V77.61h4.088v-.13a2.312 2.312 0 0 0-.178-.834 1.417 1.417 0 0 0-.485-.628c-.219-.16-.51-.24-.875-.24-.274 0-.517.06-.732.178-.21.114-.385.28-.526.5-.141.218-.25.482-.328.792-.073.305-.11.65-.11 1.032v.274c0 .323.044.624.13.902.092.274.224.513.397.718.173.205.383.367.629.485.246.114.526.171.84.171.397 0 .75-.08 1.06-.24.31-.159.579-.384.807-.676l.868.84c-.16.233-.367.457-.622.67-.255.21-.568.381-.937.514a3.727 3.727 0 0 1-1.271.198Zm6-6.125V82H79.36v-7.397h1.572l.075 1.409Zm2.262-1.456-.014 1.53a4.29 4.29 0 0 0-.67-.055c-.282.001-.53.042-.745.124a1.403 1.403 0 0 0-.54.342c-.141.146-.25.324-.328.533-.077.21-.123.445-.137.704l-.376.028c0-.465.046-.896.137-1.292.091-.397.228-.745.41-1.046.187-.301.42-.536.697-.704a1.87 1.87 0 0 1 .978-.253c.1 0 .207.009.321.027.119.018.208.039.267.062Z"/><rect width="95" height="31" x="12.5" y="61.5" stroke="#8F909A" rx="7.5"/><path fill="#D2E4FF" d="m134.662 77.372-1.312-.321.54-5.004h5.366v1.394h-3.999l-.273 2.44c.155-.09.369-.18.642-.266.274-.09.586-.136.937-.136.469 0 .888.077 1.258.232.373.15.69.371.95.663.259.287.458.638.594 1.053.137.41.206.872.206 1.387 0 .46-.069.891-.206 1.292a3.003 3.003 0 0 1-.601 1.06 2.77 2.77 0 0 1-1.019.718c-.405.168-.886.253-1.442.253-.415 0-.814-.06-1.196-.178a3.258 3.258 0 0 1-1.019-.54 2.76 2.76 0 0 1-.725-.889 3.049 3.049 0 0 1-.314-1.223h1.613c.041.323.13.599.267.827.141.223.328.394.56.513.233.118.502.177.807.177.278 0 .517-.048.718-.143.2-.1.367-.242.499-.424.137-.187.237-.406.301-.656.068-.251.102-.53.102-.834 0-.292-.039-.559-.116-.8a1.745 1.745 0 0 0-.335-.63 1.431 1.431 0 0 0-.554-.41c-.223-.1-.48-.15-.772-.15-.392 0-.693.057-.902.171a2.82 2.82 0 0 0-.575.424Zm6.492 3.808a.87.87 0 0 1 .26-.643c.173-.178.408-.267.704-.267.301 0 .535.09.704.267.173.173.26.387.26.643 0 .255-.087.47-.26.642-.169.173-.403.26-.704.26-.296 0-.531-.087-.704-.26a.87.87 0 0 1-.26-.642Zm9.278-6.577V82h-1.654v-7.397h1.654Zm-1.764-1.94c0-.251.082-.459.246-.623.169-.169.401-.253.698-.253.291 0 .522.084.69.253a.83.83 0 0 1 .253.622.822.822 0 0 1-.253.615c-.168.164-.399.246-.69.246-.297 0-.529-.082-.698-.246a.835.835 0 0 1-.246-.615Zm5.303 3.52V82h-1.648v-7.397h1.552l.096 1.58Zm-.294 1.845-.534-.007a4.834 4.834 0 0 1 .219-1.442 3.54 3.54 0 0 1 .602-1.128c.259-.314.569-.556.929-.724.36-.174.761-.26 1.203-.26.356 0 .677.05.964.15.292.096.54.253.745.472.21.219.37.503.479.854.109.347.164.773.164 1.279V82h-1.654v-4.785c0-.356-.053-.636-.157-.841a.883.883 0 0 0-.445-.444c-.191-.092-.43-.137-.718-.137-.282 0-.535.06-.758.178-.224.118-.413.28-.568.485-.15.205-.266.442-.348.711a2.938 2.938 0 0 0-.123.861ZM162.458 82h-1.647v-8.107c0-.552.102-1.014.307-1.388.21-.378.508-.663.896-.855.387-.196.845-.294 1.374-.294.164 0 .326.012.485.035.16.018.315.047.465.088l-.041 1.272a1.875 1.875 0 0 0-.301-.048 3.96 3.96 0 0 0-.342-.014c-.25 0-.467.048-.649.144a.947.947 0 0 0-.41.403 1.429 1.429 0 0 0-.137.657V82Zm1.525-7.397v1.204h-4.307v-1.204h4.307Zm.981 3.78v-.156c0-.534.078-1.028.233-1.484.155-.46.378-.859.67-1.196a3.02 3.02 0 0 1 1.08-.793 3.513 3.513 0 0 1 1.449-.287c.542 0 1.025.096 1.449.287.429.187.791.451 1.087.793.296.337.522.736.677 1.196.155.456.232.95.232 1.484v.157c0 .533-.077 1.028-.232 1.483a3.555 3.555 0 0 1-.677 1.197 3.132 3.132 0 0 1-1.08.792c-.424.187-.904.28-1.442.28a3.603 3.603 0 0 1-1.456-.28 3.132 3.132 0 0 1-1.08-.792 3.538 3.538 0 0 1-.677-1.197 4.579 4.579 0 0 1-.233-1.483Zm1.648-.156v.157c0 .332.034.647.102.943.069.296.176.556.322.78.146.223.332.398.56.526.228.127.499.191.814.191.305 0 .569-.064.793-.191.228-.128.414-.303.56-.527.146-.223.253-.483.322-.779.072-.296.109-.61.109-.943v-.157c0-.329-.037-.639-.109-.93a2.39 2.39 0 0 0-.329-.786 1.56 1.56 0 0 0-1.36-.732c-.31 0-.579.066-.807.199a1.59 1.59 0 0 0-.553.533c-.146.228-.253.49-.322.786a4.084 4.084 0 0 0-.102.93Zm8.365-2.215V82h-1.648v-7.397h1.572l.076 1.409Zm2.262-1.456-.013 1.53a4.253 4.253 0 0 0-.67-.055c-.283.001-.531.042-.745.124a1.391 1.391 0 0 0-.54.342 1.502 1.502 0 0 0-.329.533c-.077.21-.123.445-.136.704l-.376.028c0-.465.045-.896.136-1.292.092-.397.228-.745.411-1.046.186-.301.419-.536.697-.704.282-.169.608-.253.977-.253.101 0 .208.009.322.027.118.018.207.039.266.062Zm2.78 1.551V82h-1.648v-7.397h1.552l.096 1.504Zm-.267 1.921-.56-.007c0-.51.064-.982.191-1.415.128-.432.315-.808.561-1.127a2.46 2.46 0 0 1 .916-.746c.369-.177.795-.266 1.278-.266.337 0 .645.05.923.15.282.096.526.249.731.458.21.21.37.479.479.807.114.328.171.724.171 1.19V82h-1.648v-4.785c0-.36-.054-.643-.164-.848a.908.908 0 0 0-.458-.437 1.656 1.656 0 0 0-.704-.137c-.31 0-.574.06-.793.178-.214.118-.389.28-.526.485a2.172 2.172 0 0 0-.301.711 3.712 3.712 0 0 0-.096.861Zm4.587-.437-.772.17c0-.446.061-.867.184-1.264.128-.401.313-.752.554-1.053.246-.305.549-.544.909-.717.36-.174.773-.26 1.238-.26.378 0 .715.052 1.011.157.301.1.556.26.766.479.21.218.369.503.478.854.11.346.164.766.164 1.258V82h-1.654v-4.792c0-.374-.055-.663-.164-.868a.851.851 0 0 0-.451-.424 1.82 1.82 0 0 0-.704-.123c-.255 0-.481.048-.677.143a1.344 1.344 0 0 0-.485.39 1.732 1.732 0 0 0-.301.568 2.425 2.425 0 0 0-.096.697Z"/><rect width="95" height="31" x="116.5" y="61.5" stroke="#8F909A" rx="7.5"/><g clip-path="url(#c)"><path fill="#D2E4FF" d="M242.223 71.985h.205v1.347h-.116c-.588 0-1.097.091-1.525.274a2.822 2.822 0 0 0-1.046.751 3.203 3.203 0 0 0-.615 1.121 4.527 4.527 0 0 0-.198 1.354v1.566c0 .396.043.747.13 1.052.086.301.207.554.362.759.159.2.342.353.547.458.205.105.426.157.663.157.246 0 .469-.05.67-.15.2-.105.371-.249.512-.43.142-.183.249-.4.322-.65.073-.25.109-.524.109-.82 0-.283-.036-.547-.109-.793a1.99 1.99 0 0 0-.308-.657 1.408 1.408 0 0 0-.513-.444c-.2-.11-.432-.164-.697-.164a1.76 1.76 0 0 0-.895.232 1.907 1.907 0 0 0-.643.609 1.575 1.575 0 0 0-.26.786l-.629-.205c.037-.424.13-.805.281-1.142.155-.337.357-.624.608-.861s.54-.417.868-.54a3.035 3.035 0 0 1 1.094-.192c.483 0 .902.091 1.258.274.355.182.649.43.882.745.237.31.412.665.526 1.066.119.397.178.811.178 1.244 0 .479-.073.926-.219 1.34-.146.41-.36.77-.643 1.08-.278.31-.617.552-1.018.725-.397.173-.848.26-1.354.26a3.206 3.206 0 0 1-1.428-.308 3.14 3.14 0 0 1-1.06-.848 3.86 3.86 0 0 1-.656-1.244 4.837 4.837 0 0 1-.226-1.49v-.683c0-.757.096-1.47.287-2.14.192-.675.486-1.27.882-1.784a4.132 4.132 0 0 1 1.538-1.21c.625-.297 1.37-.445 2.236-.445Zm3.244 9.195c0-.256.087-.47.26-.643.173-.178.408-.267.704-.267.301 0 .536.09.704.267.173.173.26.387.26.643 0 .255-.087.47-.26.642-.168.173-.403.26-.704.26-.296 0-.531-.087-.704-.26a.874.874 0 0 1-.26-.642Zm10.775.957a3.945 3.945 0 0 1-1.483-.267 3.27 3.27 0 0 1-1.121-.759 3.367 3.367 0 0 1-.704-1.141 3.999 3.999 0 0 1-.246-1.415v-.274c0-.579.084-1.103.253-1.572.168-.47.403-.87.704-1.203a3.026 3.026 0 0 1 1.066-.773c.41-.177.855-.266 1.333-.266.529 0 .991.089 1.388.266.396.178.724.429.984.752.265.32.46.7.588 1.142.132.442.198.93.198 1.463v.704h-5.715V77.61h4.088v-.13a2.318 2.318 0 0 0-.177-.834 1.418 1.418 0 0 0-.486-.628c-.218-.16-.51-.24-.875-.24-.273 0-.517.06-.731.178-.21.114-.385.28-.527.5-.141.218-.25.482-.328.792-.073.305-.109.65-.109 1.032v.274c0 .323.043.624.13.902.091.274.223.513.396.718.174.205.383.367.629.485.246.114.527.171.841.171.397 0 .75-.08 1.06-.24.31-.159.578-.384.806-.676l.868.84a3.347 3.347 0 0 1-.622.67c-.255.21-.567.381-.936.514a3.732 3.732 0 0 1-1.272.198Zm5.979-5.954V82h-1.647v-7.397h1.552l.095 1.58Zm-.294 1.845-.533-.007a4.834 4.834 0 0 1 .219-1.442c.146-.437.346-.813.601-1.128.26-.314.57-.556.93-.724.36-.174.761-.26 1.203-.26.356 0 .677.05.964.15.292.096.54.253.745.472.21.219.369.503.479.854.109.347.164.773.164 1.279V82h-1.654v-4.785c0-.356-.053-.636-.158-.841a.878.878 0 0 0-.444-.444c-.191-.092-.431-.137-.718-.137-.282 0-.535.06-.759.178-.223.118-.412.28-.567.485-.15.205-.267.442-.349.711a2.938 2.938 0 0 0-.123.861Zm11.065 2.44V71.5h1.654V82h-1.497l-.157-1.531Zm-4.812-2.084v-.144c0-.56.066-1.07.198-1.531.132-.465.323-.864.574-1.196.251-.338.556-.595.916-.773.36-.182.766-.273 1.217-.273.447 0 .839.086 1.176.26.337.173.624.421.861.745.237.319.426.702.567 1.148.142.442.242.934.301 1.477v.458a7.327 7.327 0 0 1-.301 1.449c-.141.437-.33.816-.567 1.135a2.45 2.45 0 0 1-.868.738c-.337.173-.732.26-1.183.26-.446 0-.85-.094-1.21-.28a2.68 2.68 0 0 1-.909-.787 3.69 3.69 0 0 1-.574-1.19 5.413 5.413 0 0 1-.198-1.496Zm1.647-.144v.144c0 .337.03.651.089.943.064.292.162.55.294.773.132.218.303.392.513.52.214.122.469.184.765.184.374 0 .682-.082.923-.246a1.68 1.68 0 0 0 .568-.664c.141-.282.236-.597.287-.943v-1.237a3.077 3.077 0 0 0-.171-.752 2.018 2.018 0 0 0-.335-.609 1.416 1.416 0 0 0-.527-.41c-.205-.1-.448-.15-.731-.15-.301 0-.556.064-.766.191a1.56 1.56 0 0 0-.519.527 2.6 2.6 0 0 0-.294.779 4.495 4.495 0 0 0-.096.95Zm8.406-6.74V82h-1.654V71.5h1.654Zm5.165 10.637a3.941 3.941 0 0 1-1.483-.267 3.27 3.27 0 0 1-1.121-.759 3.352 3.352 0 0 1-.704-1.141 3.999 3.999 0 0 1-.246-1.415v-.274c0-.579.084-1.103.252-1.572.169-.47.404-.87.705-1.203.3-.337.656-.595 1.066-.773.41-.177.854-.266 1.333-.266.529 0 .991.089 1.388.266.396.178.724.429.984.752.264.32.46.7.588 1.142.132.442.198.93.198 1.463v.704h-5.715V77.61h4.088v-.13a2.318 2.318 0 0 0-.177-.834 1.418 1.418 0 0 0-.486-.628c-.219-.16-.51-.24-.875-.24-.273 0-.517.06-.731.178-.21.114-.385.28-.527.5-.141.218-.25.482-.328.792-.073.305-.109.65-.109 1.032v.274c0 .323.043.624.13.902.091.274.223.513.396.718.173.205.383.367.629.485.246.114.526.171.841.171.396 0 .75-.08 1.06-.24.309-.159.578-.384.806-.676l.868.84a3.376 3.376 0 0 1-.622.67c-.255.21-.567.381-.936.514a3.732 3.732 0 0 1-1.272.198Zm8.495-2.14a.826.826 0 0 0-.123-.444c-.082-.137-.24-.26-.472-.37-.228-.109-.565-.209-1.012-.3a8.717 8.717 0 0 1-1.08-.308 3.453 3.453 0 0 1-.834-.444 1.88 1.88 0 0 1-.54-.615 1.71 1.71 0 0 1-.191-.82c0-.302.066-.586.198-.855.132-.27.321-.506.567-.711.247-.205.545-.367.896-.486a3.744 3.744 0 0 1 1.189-.177c.62 0 1.151.105 1.593.314.447.205.789.486 1.026.841.237.351.355.748.355 1.19h-1.647c0-.196-.051-.379-.151-.547a1.048 1.048 0 0 0-.437-.417c-.196-.11-.442-.164-.739-.164-.282 0-.517.045-.704.136a.964.964 0 0 0-.41.342.878.878 0 0 0-.061.8c.05.096.132.184.246.266.114.078.269.15.465.22.2.068.451.134.752.198.565.118 1.05.27 1.456.457.41.183.724.42.943.712.219.287.328.651.328 1.093 0 .328-.071.63-.212.903a2.051 2.051 0 0 1-.601.704 3.024 3.024 0 0 1-.951.458c-.364.109-.774.164-1.23.164-.67 0-1.237-.119-1.702-.356-.465-.241-.818-.549-1.06-.923a2.184 2.184 0 0 1-.355-1.175h1.592c.019.305.103.549.253.731.155.178.347.308.575.39.232.077.471.116.717.116.297 0 .545-.039.746-.116.2-.082.353-.192.458-.328a.788.788 0 0 0 .157-.479Zm7.305 0a.826.826 0 0 0-.123-.444c-.082-.137-.239-.26-.472-.37-.228-.109-.565-.209-1.012-.3a8.717 8.717 0 0 1-1.08-.308 3.453 3.453 0 0 1-.834-.444 1.88 1.88 0 0 1-.54-.615 1.71 1.71 0 0 1-.191-.82c0-.302.066-.586.198-.855.132-.27.321-.506.568-.711.246-.205.544-.367.895-.486a3.748 3.748 0 0 1 1.189-.177c.62 0 1.151.105 1.593.314.447.205.789.486 1.026.841.237.351.355.748.355 1.19h-1.647c0-.196-.05-.379-.151-.547a1.042 1.042 0 0 0-.437-.417c-.196-.11-.442-.164-.739-.164-.282 0-.517.045-.704.136a.964.964 0 0 0-.41.342.878.878 0 0 0-.061.8c.05.096.132.184.246.266.114.078.269.15.465.22.2.068.451.134.752.198.565.118 1.05.27 1.456.457.41.183.724.42.943.712.219.287.328.651.328 1.093 0 .328-.071.63-.212.903a2.04 2.04 0 0 1-.601.704 3.024 3.024 0 0 1-.951.458c-.364.109-.774.164-1.23.164-.67 0-1.237-.119-1.702-.356-.465-.241-.818-.549-1.06-.923a2.184 2.184 0 0 1-.355-1.175h1.593c.018.305.102.549.253.731.154.178.346.308.574.39.232.077.471.116.718.116.296 0 .544-.039.745-.116.2-.082.353-.192.458-.328a.788.788 0 0 0 .157-.479Z"/></g><rect width="95" height="31" x="220.5" y="61.5" stroke="#8F909A" rx="7.5"/><path fill="#D2E4FF" d="M35.782 120.047v.902L31.803 130h-1.736l3.971-8.641h-5.154v-1.312h6.898Zm1.61 9.133c0-.256.087-.47.26-.643.173-.178.408-.266.704-.266.301 0 .536.088.704.266.173.173.26.387.26.643a.872.872 0 0 1-.26.642c-.168.173-.403.26-.704.26-.296 0-.53-.087-.704-.26a.872.872 0 0 1-.26-.642Zm10.536-.356c.27 0 .51-.052.725-.157.219-.109.394-.26.526-.451.137-.192.212-.413.226-.663h1.552a2.31 2.31 0 0 1-.424 1.305 2.946 2.946 0 0 1-1.087.937c-.451.228-.95.342-1.497.342-.565 0-1.057-.096-1.477-.287a2.918 2.918 0 0 1-1.046-.807 3.549 3.549 0 0 1-.629-1.183 4.873 4.873 0 0 1-.205-1.435v-.239c0-.511.069-.989.206-1.436a3.53 3.53 0 0 1 .628-1.189 2.847 2.847 0 0 1 1.046-.8c.42-.196.91-.294 1.47-.294.592 0 1.112.118 1.559.355.446.233.797.559 1.052.978.26.415.395.898.404 1.449h-1.552a1.65 1.65 0 0 0-.205-.738 1.348 1.348 0 0 0-.506-.533 1.435 1.435 0 0 0-.773-.199c-.332 0-.608.069-.827.205-.218.133-.39.315-.512.547a2.673 2.673 0 0 0-.267.773c-.05.282-.075.576-.075.882v.239c0 .305.025.601.075.888.05.288.137.545.26.773.127.223.3.403.52.54.218.132.496.198.833.198Zm6.02-9.324V130h-1.64v-10.5h1.64Zm-.287 6.528-.533-.007c.005-.51.075-.982.212-1.415.141-.432.337-.808.588-1.127a2.616 2.616 0 0 1 2.099-1.012c.364 0 .692.05.984.15.296.1.551.262.765.486.215.218.376.505.486.861.114.351.17.779.17 1.285V130h-1.654v-4.765c0-.355-.052-.638-.157-.847a.91.91 0 0 0-.444-.451 1.621 1.621 0 0 0-.718-.144c-.296 0-.558.059-.786.178-.224.118-.41.28-.56.485-.151.205-.265.442-.343.711a3.28 3.28 0 0 0-.109.861Zm9.8 4.109a3.94 3.94 0 0 1-1.483-.267 3.265 3.265 0 0 1-1.121-.759 3.362 3.362 0 0 1-.704-1.141 4 4 0 0 1-.246-1.415v-.274c0-.579.084-1.103.253-1.572.168-.469.403-.87.704-1.203.3-.337.656-.595 1.066-.773.41-.177.855-.266 1.333-.266.529 0 .991.089 1.388.266.396.178.724.429.984.752.264.319.46.7.588 1.142.132.442.198.93.198 1.463v.704h-5.715v-1.183h4.088v-.13a2.315 2.315 0 0 0-.177-.834 1.416 1.416 0 0 0-.486-.628c-.218-.16-.51-.24-.875-.24-.273 0-.517.06-.731.178-.21.114-.385.28-.527.499-.14.219-.25.483-.328.793-.073.305-.11.649-.11 1.032v.274c0 .323.044.624.13.902.092.273.224.513.397.718.173.205.383.367.63.485.245.114.526.171.84.171.396 0 .75-.08 1.06-.239.31-.16.578-.385.806-.677l.868.841c-.16.232-.367.456-.622.67-.255.209-.567.38-.936.512-.365.133-.789.199-1.272.199Zm8.515-1.62v-3.528a1.51 1.51 0 0 0-.143-.683 1.004 1.004 0 0 0-.438-.445c-.191-.104-.433-.157-.724-.157-.27 0-.502.046-.698.137a1.126 1.126 0 0 0-.458.369.89.89 0 0 0-.164.526h-1.64c0-.291.07-.574.212-.847.14-.274.346-.518.615-.732.269-.214.59-.383.964-.506a4.01 4.01 0 0 1 1.258-.184c.556 0 1.048.093 1.476.28.433.187.773.469 1.019.848.25.373.376.843.376 1.408v3.288c0 .337.022.64.068.909.05.265.12.495.212.691V130h-1.689a2.916 2.916 0 0 1-.184-.677 5.528 5.528 0 0 1-.062-.806Zm.24-3.015.013 1.019h-1.182c-.306 0-.575.029-.807.088a1.669 1.669 0 0 0-.581.246c-.155.11-.271.242-.349.397a1.16 1.16 0 0 0-.116.526c0 .196.046.376.137.54.091.16.223.285.396.376.178.091.392.137.643.137.337 0 .631-.068.882-.205.255-.141.456-.312.601-.513.146-.205.224-.398.233-.581l.533.732a2.492 2.492 0 0 1-.28.601c-.132.214-.306.42-.52.615a2.567 2.567 0 0 1-1.77.657c-.483 0-.914-.096-1.292-.287a2.293 2.293 0 0 1-.889-.787 2.034 2.034 0 0 1-.321-1.127c0-.392.073-.739.218-1.04.15-.305.37-.56.657-.765a3.18 3.18 0 0 1 1.066-.465c.42-.109.898-.164 1.436-.164h1.292Zm4.892-1.477v8.819H75.46v-10.24h1.518l.13 1.421Zm4.819 2.208v.144a5.58 5.58 0 0 1-.192 1.497 3.645 3.645 0 0 1-.553 1.196c-.242.338-.54.6-.896.786a2.604 2.604 0 0 1-1.23.281c-.46 0-.864-.085-1.21-.253a2.474 2.474 0 0 1-.868-.732 3.964 3.964 0 0 1-.575-1.107 7.11 7.11 0 0 1-.3-1.408v-.554c.059-.542.16-1.034.3-1.477.146-.442.338-.822.575-1.141a2.45 2.45 0 0 1 .868-.738c.342-.174.74-.26 1.196-.26.465 0 .877.091 1.237.273.36.178.664.433.91.766.246.328.43.724.553 1.189.123.461.185.973.185 1.538Zm-1.648.144v-.144c0-.341-.031-.658-.095-.95a2.48 2.48 0 0 0-.301-.779 1.438 1.438 0 0 0-1.285-.711c-.292 0-.543.05-.752.15-.21.096-.385.231-.526.404-.142.173-.251.376-.329.608a3.643 3.643 0 0 0-.164.745v1.326c.055.328.148.629.28.903.133.273.32.492.561.656.246.159.56.239.944.239.296 0 .549-.064.758-.191.21-.128.38-.303.513-.527a2.55 2.55 0 0 0 .3-.786c.065-.296.096-.61.096-.943Z"/><rect width="95" height="31" x="12.5" y="109.5" stroke="#8F909A" rx="7.5"/><g clip-path="url(#d)"><path fill="#D2E4FF" d="M139.485 127.286c0 .62-.143 1.142-.43 1.566a2.695 2.695 0 0 1-1.176.963c-.492.215-1.048.322-1.668.322-.62 0-1.178-.107-1.675-.322a2.695 2.695 0 0 1-1.176-.963c-.287-.424-.43-.946-.43-1.566a2.495 2.495 0 0 1 .916-1.982 3.174 3.174 0 0 1 1.039-.568 4.173 4.173 0 0 1 1.312-.198c.629 0 1.192.116 1.689.349.496.232.886.553 1.169.964.287.41.43.888.43 1.435Zm-1.654-.082c0-.333-.068-.624-.205-.875a1.44 1.44 0 0 0-.574-.581 1.728 1.728 0 0 0-.855-.205 1.7 1.7 0 0 0-.854.205 1.45 1.45 0 0 0-.568.581 1.851 1.851 0 0 0-.198.875c0 .337.066.629.198.875.133.242.322.426.568.554.246.127.535.191.868.191.333 0 .62-.064.861-.191.242-.128.429-.312.561-.554.132-.246.198-.538.198-.875Zm1.429-4.539c0 .497-.132.939-.397 1.326a2.66 2.66 0 0 1-1.08.916c-.46.219-.984.328-1.572.328-.593 0-1.121-.109-1.586-.328a2.714 2.714 0 0 1-1.087-.916 2.322 2.322 0 0 1-.39-1.326c0-.592.13-1.091.39-1.497.264-.41.627-.722 1.087-.937.46-.214.987-.321 1.579-.321.593 0 1.119.107 1.579.321.46.215.821.527 1.08.937.265.406.397.905.397 1.497Zm-1.648.055a1.65 1.65 0 0 0-.177-.78 1.286 1.286 0 0 0-.486-.533 1.409 1.409 0 0 0-.745-.191c-.287 0-.535.061-.745.184-.21.123-.371.297-.485.52a1.74 1.74 0 0 0-.171.8c0 .305.057.572.171.8.114.223.275.398.485.526.214.128.465.191.752.191s.535-.063.745-.191a1.29 1.29 0 0 0 .485-.526c.114-.228.171-.495.171-.8Zm3.587 6.46c0-.256.086-.47.259-.643.174-.178.408-.266.705-.266.3 0 .535.088.704.266a.872.872 0 0 1 .259.643.872.872 0 0 1-.259.642c-.169.173-.404.26-.704.26-.297 0-.531-.087-.705-.26a.872.872 0 0 1-.259-.642Zm9.168-5.168V130h-1.647v-7.396h1.572l.075 1.408Zm2.263-1.456-.014 1.531a4.345 4.345 0 0 0-.67-.055c-.282 0-.53.041-.745.123a1.419 1.419 0 0 0-.54.342c-.141.146-.25.324-.328.533-.077.21-.123.445-.137.704l-.375.028c0-.465.045-.896.136-1.292a3.53 3.53 0 0 1 .41-1.046c.187-.301.42-.536.698-.704.282-.169.608-.253.977-.253.1 0 .208.009.321.027.119.018.208.039.267.062Zm4.256 7.581a3.937 3.937 0 0 1-1.483-.267 3.261 3.261 0 0 1-1.121-.759 3.349 3.349 0 0 1-.704-1.141 4 4 0 0 1-.246-1.415v-.274c0-.579.084-1.103.253-1.572.168-.469.403-.87.704-1.203.3-.337.656-.595 1.066-.773a3.33 3.33 0 0 1 1.333-.266c.529 0 .991.089 1.388.266.396.178.724.429.984.752.264.319.46.7.588 1.142a5.1 5.1 0 0 1 .198 1.463v.704h-5.715v-1.183h4.088v-.13a2.32 2.32 0 0 0-.177-.834 1.417 1.417 0 0 0-.486-.628c-.219-.16-.51-.24-.875-.24-.273 0-.517.06-.731.178a1.45 1.45 0 0 0-.527.499 2.65 2.65 0 0 0-.328.793 4.447 4.447 0 0 0-.109 1.032v.274c0 .323.043.624.13.902.091.273.223.513.396.718.173.205.383.367.629.485.246.114.527.171.841.171.397 0 .75-.08 1.06-.239a2.44 2.44 0 0 0 .806-.677l.868.841a3.352 3.352 0 0 1-.622.67 3.12 3.12 0 0 1-.936.512c-.365.133-.789.199-1.272.199Zm8.796-1.88v-5.653h1.654V130h-1.559l-.095-1.743Zm.232-1.538.554-.014c0 .497-.055.955-.164 1.374-.11.415-.278.777-.506 1.087-.228.305-.52.545-.875.718-.356.168-.782.253-1.278.253-.36 0-.691-.053-.992-.158-.3-.104-.56-.266-.779-.485a2.204 2.204 0 0 1-.499-.854c-.118-.351-.178-.771-.178-1.258v-4.778h1.648v4.792c0 .268.032.494.095.676.064.178.151.322.26.431.11.109.237.187.383.232.146.046.301.069.465.069.469 0 .838-.091 1.107-.274.274-.187.467-.437.581-.752a2.97 2.97 0 0 0 .178-1.059Zm4.844-2.536V130h-1.647v-7.396h1.551l.096 1.579Zm-.294 1.845-.533-.007a4.834 4.834 0 0 1 .219-1.442 3.57 3.57 0 0 1 .601-1.128c.26-.314.57-.556.93-.724.36-.174.761-.26 1.203-.26.356 0 .677.05.964.15.292.096.54.253.745.472.21.219.369.503.479.854.109.347.164.773.164 1.279V130h-1.655v-4.785c0-.356-.052-.636-.157-.841a.874.874 0 0 0-.444-.444 1.672 1.672 0 0 0-.718-.137c-.282 0-.535.059-.759.178-.223.118-.412.28-.567.485-.15.205-.267.442-.349.711a2.938 2.938 0 0 0-.123.861Zm8.317-3.424V130h-1.654v-7.396h1.654Zm-1.764-1.942c0-.251.082-.458.246-.622.169-.169.402-.253.698-.253.291 0 .522.084.69.253a.83.83 0 0 1 .253.622.821.821 0 0 1-.253.615c-.168.164-.399.246-.69.246-.296 0-.529-.082-.698-.246a.834.834 0 0 1-.246-.615Zm3.354 5.722v-.157c0-.534.078-1.028.233-1.484a3.52 3.52 0 0 1 .67-1.196 3.02 3.02 0 0 1 1.08-.793 3.503 3.503 0 0 1 1.449-.287c.542 0 1.025.095 1.449.287.429.187.791.451 1.087.793.296.337.522.736.677 1.196.155.456.232.95.232 1.484v.157c0 .533-.077 1.027-.232 1.483a3.543 3.543 0 0 1-.677 1.196 3.117 3.117 0 0 1-1.08.793 3.54 3.54 0 0 1-1.442.281 3.602 3.602 0 0 1-1.456-.281 3.13 3.13 0 0 1-1.081-.793 3.54 3.54 0 0 1-.676-1.196 4.579 4.579 0 0 1-.233-1.483Zm1.648-.157v.157c0 .332.034.647.102.943.069.296.176.556.322.779.145.224.332.399.56.527.228.127.499.191.814.191.305 0 .569-.064.793-.191.227-.128.414-.303.56-.527.146-.223.253-.483.321-.779a3.93 3.93 0 0 0 .11-.943v-.157c0-.329-.037-.638-.11-.93a2.37 2.37 0 0 0-.328-.786 1.56 1.56 0 0 0-.56-.533 1.537 1.537 0 0 0-.8-.199c-.31 0-.579.066-.807.199a1.574 1.574 0 0 0-.553.533c-.146.228-.253.49-.322.786a4.085 4.085 0 0 0-.102.93Zm8.344-2.044V130h-1.648v-7.396h1.552l.096 1.579Zm-.294 1.845-.533-.007a4.803 4.803 0 0 1 .218-1.442c.146-.437.347-.813.602-1.128.26-.314.57-.556.93-.724.36-.174.761-.26 1.203-.26.355 0 .677.05.964.15.291.096.54.253.745.472.209.219.369.503.478.854.11.347.164.773.164 1.279V130h-1.654v-4.785c0-.356-.052-.636-.157-.841a.874.874 0 0 0-.444-.444 1.672 1.672 0 0 0-.718-.137c-.283 0-.536.059-.759.178-.223.118-.412.28-.567.485a2.335 2.335 0 0 0-.349.711 2.938 2.938 0 0 0-.123.861Z"/></g><rect width="95" height="31" x="116.5" y="109.5" stroke="#8F909A" rx="7.5"/><path fill="#D2E4FF" d="M238.135 128.701h.137c.629 0 1.153-.082 1.572-.246.424-.169.761-.401 1.012-.697.25-.296.43-.645.54-1.046.109-.401.164-.836.164-1.306v-1.716c0-.405-.044-.761-.13-1.066a2.199 2.199 0 0 0-.356-.772 1.503 1.503 0 0 0-.526-.472 1.326 1.326 0 0 0-.636-.157c-.25 0-.476.057-.676.171a1.48 1.48 0 0 0-.499.458 2.234 2.234 0 0 0-.308.676 3.183 3.183 0 0 0-.103.821c0 .273.032.537.096.793.068.25.169.474.301.67.132.195.298.35.499.464.2.114.435.171.704.171.255 0 .49-.048.704-.143.214-.101.401-.235.561-.404.159-.168.284-.357.376-.567a1.79 1.79 0 0 0 .15-.643l.629.192c0 .346-.073.688-.219 1.025a3.17 3.17 0 0 1-.595.916c-.25.274-.544.492-.881.656a2.413 2.413 0 0 1-1.087.247c-.474 0-.894-.089-1.258-.267a2.628 2.628 0 0 1-.902-.738 3.271 3.271 0 0 1-.534-1.067 4.453 4.453 0 0 1-.177-1.264c0-.479.072-.928.218-1.347.146-.419.358-.788.636-1.107a2.84 2.84 0 0 1 1.012-.752 3.24 3.24 0 0 1 1.36-.274c.538 0 1.01.105 1.415.315.406.209.748.499 1.026.868s.487.797.628 1.285c.142.488.212 1.012.212 1.572v.581a9 9 0 0 1-.157 1.702 5.683 5.683 0 0 1-.513 1.511c-.232.46-.54.866-.922 1.217a4.046 4.046 0 0 1-1.395.813c-.547.192-1.189.288-1.928.288h-.15v-1.361Zm6.895.479a.87.87 0 0 1 .26-.643c.173-.178.408-.266.704-.266.301 0 .535.088.704.266.173.173.26.387.26.643a.872.872 0 0 1-.26.642c-.169.173-.403.26-.704.26-.296 0-.531-.087-.704-.26a.869.869 0 0 1-.26-.642Zm11.664-1.183a.824.824 0 0 0-.123-.444c-.082-.137-.24-.26-.472-.369-.228-.11-.565-.21-1.012-.301a8.698 8.698 0 0 1-1.08-.308 3.452 3.452 0 0 1-.834-.444 1.877 1.877 0 0 1-.54-.615 1.713 1.713 0 0 1-.191-.821c0-.3.066-.585.198-.854a2.16 2.16 0 0 1 .567-.711c.247-.205.545-.367.896-.485a3.73 3.73 0 0 1 1.189-.178c.62 0 1.151.105 1.593.314.447.205.789.486 1.026.841.237.351.355.747.355 1.19h-1.647c0-.196-.051-.379-.151-.547a1.038 1.038 0 0 0-.437-.417c-.196-.11-.442-.164-.739-.164-.282 0-.517.045-.704.136a.969.969 0 0 0-.41.342.877.877 0 0 0-.061.8c.05.096.132.184.246.267.114.077.269.15.465.218.2.069.451.135.751.199a6.825 6.825 0 0 1 1.457.458c.41.182.724.419.943.71.219.288.328.652.328 1.094 0 .328-.071.629-.212.903a2.064 2.064 0 0 1-.601.704 3.047 3.047 0 0 1-.951.458 4.283 4.283 0 0 1-1.23.164c-.67 0-1.237-.119-1.702-.356-.465-.241-.818-.549-1.06-.923a2.183 2.183 0 0 1-.355-1.175h1.592c.019.305.103.549.253.731.155.178.347.308.575.39.232.077.471.116.717.116.297 0 .545-.039.746-.116.2-.082.353-.192.458-.328a.79.79 0 0 0 .157-.479Zm4.919-5.393V130h-1.654v-7.396h1.654Zm-1.764-1.942a.84.84 0 0 1 .247-.622c.168-.169.401-.253.697-.253.291 0 .522.084.69.253a.83.83 0 0 1 .253.622.821.821 0 0 1-.253.615c-.168.164-.399.246-.69.246-.296 0-.529-.082-.697-.246a.831.831 0 0 1-.247-.615Zm5.432-1.162V130h-1.654v-10.5h1.654Zm4.311 9.194 1.812-6.09h1.709l-2.57 7.396h-1.067l.116-1.306Zm-1.387-6.09 1.845 6.118.089 1.278h-1.066l-2.584-7.396h1.716Zm9.191 7.533a3.94 3.94 0 0 1-1.483-.267 3.27 3.27 0 0 1-1.121-.759 3.365 3.365 0 0 1-.704-1.141 4 4 0 0 1-.246-1.415v-.274c0-.579.084-1.103.253-1.572.168-.469.403-.87.704-1.203a3.035 3.035 0 0 1 1.066-.773 3.33 3.33 0 0 1 1.333-.266c.529 0 .991.089 1.388.266.396.178.725.429.984.752.265.319.461.7.588 1.142a5.1 5.1 0 0 1 .198 1.463v.704h-5.714v-1.183h4.087v-.13a2.32 2.32 0 0 0-.177-.834 1.417 1.417 0 0 0-.486-.628c-.218-.16-.51-.24-.875-.24-.273 0-.517.06-.731.178a1.44 1.44 0 0 0-.526.499 2.625 2.625 0 0 0-.329.793 4.502 4.502 0 0 0-.109 1.032v.274c0 .323.043.624.13.902.091.273.223.513.396.718.174.205.383.367.629.485.246.114.527.171.841.171.397 0 .75-.08 1.06-.239.31-.16.579-.385.806-.677l.869.841c-.16.232-.367.456-.623.67a3.12 3.12 0 0 1-.936.512c-.365.133-.788.199-1.272.199Zm6-6.125V130h-1.648v-7.396h1.573l.075 1.408Zm2.263-1.456-.014 1.531a4.345 4.345 0 0 0-.67-.055c-.283 0-.531.041-.745.123a1.419 1.419 0 0 0-.54.342 1.507 1.507 0 0 0-.328.533c-.078.21-.123.445-.137.704l-.376.028c0-.465.046-.896.137-1.292a3.53 3.53 0 0 1 .41-1.046c.187-.301.419-.536.697-.704a1.87 1.87 0 0 1 .978-.253 2.064 2.064 0 0 1 .588.089Z"/><rect width="95" height="31" x="220.5" y="109.5" stroke="#8F909A" rx="7.5"/><path fill="#D2E4FF" d="M33.268 168.013V178H31.62v-8.032l-2.44.827v-1.36l3.89-1.422h.198Zm10.046 4.176v1.627c0 .78-.077 1.445-.232 1.996-.15.547-.37.992-.656 1.334a2.576 2.576 0 0 1-1.033.751c-.396.16-.84.24-1.333.24-.392 0-.756-.05-1.093-.151a2.668 2.668 0 0 1-.903-.471c-.269-.215-.499-.49-.69-.827a4.638 4.638 0 0 1-.438-1.224 8.03 8.03 0 0 1-.15-1.648v-1.627c0-.783.077-1.444.232-1.982.155-.542.376-.982.663-1.319.288-.342.63-.59 1.026-.745a3.69 3.69 0 0 1 1.34-.233c.396 0 .76.05 1.093.151.338.095.639.248.903.458.269.209.496.483.683.82.192.333.338.736.438 1.21.1.469.15 1.016.15 1.64Zm-1.647 1.86v-2.106c0-.396-.023-.745-.069-1.046a3.102 3.102 0 0 0-.205-.772 1.552 1.552 0 0 0-.328-.52 1.158 1.158 0 0 0-.45-.293 1.59 1.59 0 0 0-.568-.096c-.255 0-.483.05-.684.15-.2.096-.37.251-.506.465-.136.214-.241.497-.314.848a6.642 6.642 0 0 0-.103 1.264v2.106c0 .401.023.754.069 1.059.045.306.114.568.205.787.09.214.2.391.328.533.132.136.282.237.451.301.173.063.362.095.567.095.26 0 .49-.05.69-.15.201-.1.37-.26.507-.479.136-.223.239-.512.307-.868a6.87 6.87 0 0 0 .103-1.278Zm3.381 3.131c0-.256.087-.47.26-.643.173-.178.408-.266.704-.266.3 0 .535.088.704.266.173.173.26.387.26.643a.871.871 0 0 1-.26.642c-.169.173-.403.26-.704.26-.296 0-.531-.087-.704-.26a.871.871 0 0 1-.26-.642Zm9.278-9.68V178h-1.654v-10.5h1.654Zm6.075 9.017v-3.528a1.51 1.51 0 0 0-.144-.683 1.004 1.004 0 0 0-.437-.445c-.192-.104-.433-.157-.725-.157-.269 0-.501.046-.697.137a1.125 1.125 0 0 0-.458.369.89.89 0 0 0-.164.526h-1.64c0-.291.07-.574.211-.847.141-.274.346-.518.615-.732.27-.214.59-.383.964-.506a4.01 4.01 0 0 1 1.258-.184c.556 0 1.048.093 1.477.28.432.187.772.469 1.018.848.25.373.376.843.376 1.408v3.288c0 .337.023.64.068.909.05.265.121.495.212.691V178h-1.688a2.916 2.916 0 0 1-.185-.677 5.528 5.528 0 0 1-.061-.806Zm.239-3.015.014 1.019H59.47c-.305 0-.574.029-.806.088a1.669 1.669 0 0 0-.582.246c-.154.11-.27.242-.348.397a1.16 1.16 0 0 0-.116.526c0 .196.045.376.136.54.091.16.224.285.397.376.178.091.392.137.642.137.338 0 .632-.068.882-.205.255-.141.456-.312.602-.513.146-.205.223-.398.232-.581l.533.732a2.497 2.497 0 0 1-.28.601c-.132.214-.305.42-.52.615a2.57 2.57 0 0 1-1.77.657c-.483 0-.914-.096-1.292-.287a2.292 2.292 0 0 1-.889-.787 2.034 2.034 0 0 1-.32-1.127c0-.392.072-.739.218-1.04.15-.305.369-.56.656-.765.292-.205.647-.36 1.067-.465.419-.109.897-.164 1.435-.164h1.292Zm7.75 2.967V167.5h1.654V178h-1.497l-.157-1.531Zm-4.813-2.085v-.144c0-.56.066-1.071.198-1.531.132-.465.324-.864.574-1.196a2.52 2.52 0 0 1 .916-.773 2.66 2.66 0 0 1 1.217-.273c.447 0 .839.086 1.176.26.337.173.624.421.861.745.237.319.426.702.568 1.148.141.442.241.934.3 1.477v.458a7.407 7.407 0 0 1-.3 1.449 3.9 3.9 0 0 1-.568 1.135 2.449 2.449 0 0 1-.868.738c-.337.173-.731.26-1.182.26-.447 0-.85-.094-1.21-.281a2.657 2.657 0 0 1-.91-.786 3.696 3.696 0 0 1-.574-1.189 5.401 5.401 0 0 1-.198-1.497Zm1.647-.144v.144c0 .337.03.651.09.943.063.292.161.549.293.773.132.218.303.392.513.519.214.123.47.185.765.185.374 0 .682-.082.923-.246a1.68 1.68 0 0 0 .568-.663c.141-.283.237-.597.287-.944v-1.237a3.018 3.018 0 0 0-.171-.752 2 2 0 0 0-.335-.608 1.413 1.413 0 0 0-.526-.411c-.205-.1-.45-.15-.732-.15-.3 0-.556.064-.765.191-.21.128-.383.303-.52.527-.132.223-.23.483-.294.779a4.506 4.506 0 0 0-.096.95Zm8.789 2.953 2.01-6.589h1.763l-2.966 8.524c-.069.182-.158.38-.267.595-.11.214-.253.417-.43.608-.174.196-.39.353-.65.472-.26.123-.574.184-.944.184-.145 0-.287-.013-.423-.041a6.46 6.46 0 0 1-.376-.075l-.007-1.258c.045.005.1.009.164.014.068.005.123.007.164.007.273 0 .501-.034.684-.103a.947.947 0 0 0 .444-.314c.118-.146.219-.342.3-.588l.534-1.436Zm-1.135-6.589 1.757 5.537.294 1.736-1.142.294-2.686-7.567h1.777Z"/><rect width="95" height="31" x="12.5" y="157.5" stroke="#8F909A" rx="7.5"/><g clip-path="url(#e)"><path fill="#D2E4FF" d="M137.308 168.013V178h-1.648v-8.032l-2.44.827v-1.36l3.889-1.422h.199Zm8.057 0V178h-1.648v-8.032l-2.44.827v-1.36l3.889-1.422h.199Zm3.723 9.167c0-.256.086-.47.259-.643.174-.178.408-.266.705-.266.3 0 .535.088.704.266a.872.872 0 0 1 .259.643.872.872 0 0 1-.259.642c-.169.173-.404.26-.704.26-.297 0-.531-.087-.705-.26a.872.872 0 0 1-.259-.642Zm12.026-.711V167.5h1.654V178h-1.497l-.157-1.531Zm-4.813-2.085v-.144c0-.56.066-1.071.199-1.531.132-.465.323-.864.574-1.196.25-.338.556-.595.916-.773.36-.182.765-.273 1.217-.273.446 0 .838.086 1.175.26.338.173.625.421.862.745.237.319.426.702.567 1.148.141.442.242.934.301 1.477v.458a7.414 7.414 0 0 1-.301 1.449c-.141.437-.33.816-.567 1.135a2.456 2.456 0 0 1-.868.738c-.338.173-.732.26-1.183.26-.447 0-.85-.094-1.21-.281a2.655 2.655 0 0 1-.909-.786 3.683 3.683 0 0 1-.574-1.189 5.371 5.371 0 0 1-.199-1.497Zm1.648-.144v.144c0 .337.029.651.089.943.063.292.161.549.294.773.132.218.303.392.512.519.215.123.47.185.766.185.374 0 .681-.082.923-.246.241-.164.43-.385.567-.663.141-.283.237-.597.287-.944v-1.237a2.983 2.983 0 0 0-.171-.752 1.985 1.985 0 0 0-.335-.608 1.407 1.407 0 0 0-.526-.411c-.205-.1-.449-.15-.731-.15-.301 0-.556.064-.766.191-.21.128-.383.303-.52.527a2.57 2.57 0 0 0-.293.779 4.492 4.492 0 0 0-.096.95Zm9.903 3.897a3.942 3.942 0 0 1-1.484-.267 3.27 3.27 0 0 1-1.121-.759 3.365 3.365 0 0 1-.704-1.141 4 4 0 0 1-.246-1.415v-.274c0-.579.084-1.103.253-1.572.168-.469.403-.87.704-1.203a3.035 3.035 0 0 1 1.066-.773 3.33 3.33 0 0 1 1.333-.266c.529 0 .992.089 1.388.266.397.178.725.429.984.752.265.319.461.7.588 1.142a5.1 5.1 0 0 1 .199 1.463v.704h-5.715v-1.183h4.088v-.13a2.343 2.343 0 0 0-.178-.834 1.417 1.417 0 0 0-.486-.628c-.218-.16-.51-.24-.875-.24-.273 0-.517.06-.731.178a1.44 1.44 0 0 0-.526.499 2.6 2.6 0 0 0-.328.793c-.073.305-.11.649-.11 1.032v.274c0 .323.043.624.13.902.091.273.223.513.397.718.173.205.382.367.628.485.247.114.527.171.841.171.397 0 .75-.08 1.06-.239.31-.16.579-.385.806-.677l.869.841c-.16.232-.367.456-.622.67-.256.209-.568.38-.937.512a3.703 3.703 0 0 1-1.271.199Zm5.999-6.112v8.819h-1.647v-10.24h1.517l.13 1.421Zm4.819 2.208v.144c0 .538-.063 1.037-.191 1.497a3.648 3.648 0 0 1-.554 1.196c-.241.338-.54.6-.895.786a2.608 2.608 0 0 1-1.231.281c-.46 0-.863-.085-1.21-.253a2.471 2.471 0 0 1-.868-.732 3.964 3.964 0 0 1-.574-1.107 7.11 7.11 0 0 1-.301-1.408v-.554c.059-.542.16-1.034.301-1.477a4 4 0 0 1 .574-1.141c.237-.319.526-.565.868-.738.342-.174.741-.26 1.197-.26.464 0 .877.091 1.237.273.36.178.663.433.909.766.246.328.431.724.554 1.189.123.461.184.973.184 1.538Zm-1.647.144v-.144c0-.341-.032-.658-.096-.95a2.477 2.477 0 0 0-.301-.779 1.44 1.44 0 0 0-1.285-.711c-.291 0-.542.05-.752.15a1.45 1.45 0 0 0-.526.404 1.901 1.901 0 0 0-.328.608 3.616 3.616 0 0 0-.164.745v1.326c.054.328.148.629.28.903.132.273.319.492.561.656.246.159.56.239.943.239.296 0 .549-.064.759-.191.209-.128.38-.303.512-.527.137-.227.237-.489.301-.786.064-.296.096-.61.096-.943Zm7.599 1.88v-5.653h1.654V178h-1.558l-.096-1.743Zm.232-1.538.554-.014c0 .497-.055.955-.164 1.374a3.175 3.175 0 0 1-.506 1.087 2.365 2.365 0 0 1-.875.718c-.355.168-.781.253-1.278.253-.36 0-.691-.053-.991-.158a2.021 2.021 0 0 1-.78-.485 2.217 2.217 0 0 1-.499-.854c-.118-.351-.177-.771-.177-1.258v-4.778h1.647v4.792c0 .268.032.494.096.676.063.178.15.322.259.431.11.109.237.187.383.232.146.046.301.069.465.069.469 0 .839-.091 1.108-.274.273-.187.467-.437.581-.752.118-.314.177-.667.177-1.059Zm6.601-4.115v1.203h-4.17v-1.203h4.17Zm-2.967-1.812h1.648v7.164c0 .228.032.403.096.526a.508.508 0 0 0 .28.24c.118.041.257.061.417.061.114 0 .223-.007.328-.02.105-.014.189-.028.253-.041l.007 1.257a4.004 4.004 0 0 1-.479.11 3.498 3.498 0 0 1-.615.048 2.4 2.4 0 0 1-1.005-.199 1.47 1.47 0 0 1-.683-.663c-.164-.305-.247-.711-.247-1.216v-7.267Zm6.485 8.401 2.01-6.589h1.764l-2.967 8.524c-.068.182-.157.38-.267.595a2.699 2.699 0 0 1-.43.608c-.174.196-.39.353-.65.472-.26.123-.574.184-.943.184a2.11 2.11 0 0 1-.424-.041 6.578 6.578 0 0 1-.376-.075l-.007-1.258c.046.005.1.009.164.014.069.005.123.007.164.007.274 0 .502-.034.684-.103a.948.948 0 0 0 .444-.314c.119-.146.219-.342.301-.588l.533-1.436Zm-1.135-6.589 1.757 5.537.294 1.736-1.141.294-2.687-7.567h1.777Z"/></g><rect width="95" height="31" x="116.5" y="157.5" stroke="#8F909A" rx="7.5"/><g clip-path="url(#f)"><path fill="#D2E4FF" d="M241.695 168.013V178h-1.647v-8.032l-2.441.827v-1.36l3.89-1.422h.198Zm10.231 8.675V178h-6.672v-1.128l3.241-3.534c.355-.401.635-.748.84-1.039.205-.292.349-.554.431-.786.087-.237.13-.467.13-.691 0-.314-.059-.59-.178-.827a1.295 1.295 0 0 0-.506-.567c-.223-.142-.494-.212-.813-.212-.369 0-.679.08-.93.239-.251.16-.44.381-.567.663a2.265 2.265 0 0 0-.192.957h-1.647c0-.579.132-1.107.396-1.586a2.903 2.903 0 0 1 1.149-1.148c.501-.287 1.105-.431 1.811-.431.666 0 1.231.112 1.696.335.464.223.818.54 1.059.95.246.41.369.896.369 1.456 0 .31-.05.618-.15.923-.1.306-.244.611-.431.916a7.728 7.728 0 0 1-.649.909c-.251.301-.526.607-.827.916l-2.154 2.373h4.594Zm1.549.492c0-.256.087-.47.26-.643.173-.178.408-.266.704-.266.301 0 .536.088.704.266a.87.87 0 0 1 .26.643.869.869 0 0 1-.26.642c-.168.173-.403.26-.704.26-.296 0-.531-.087-.704-.26a.872.872 0 0 1-.26-.642Zm10.536-.356c.269 0 .511-.052.725-.157.219-.109.394-.26.526-.451.137-.192.212-.413.226-.663h1.552a2.312 2.312 0 0 1-.424 1.305 2.953 2.953 0 0 1-1.087.937 3.27 3.27 0 0 1-1.497.342c-.565 0-1.057-.096-1.477-.287a2.921 2.921 0 0 1-1.046-.807 3.564 3.564 0 0 1-.629-1.183 4.9 4.9 0 0 1-.205-1.435v-.239c0-.511.069-.989.205-1.436.142-.451.351-.848.629-1.189a2.85 2.85 0 0 1 1.046-.8c.42-.196.909-.294 1.47-.294.592 0 1.112.118 1.559.355.446.233.797.559 1.052.978.26.415.395.898.404 1.449h-1.552a1.655 1.655 0 0 0-.205-.738 1.35 1.35 0 0 0-.506-.533 1.436 1.436 0 0 0-.773-.199c-.332 0-.608.069-.827.205a1.391 1.391 0 0 0-.512.547 2.682 2.682 0 0 0-.267.773c-.05.282-.075.576-.075.882v.239c0 .305.025.601.075.888.05.288.137.545.26.773.127.223.301.403.519.54.219.132.497.198.834.198Zm8.563-.307v-3.528a1.52 1.52 0 0 0-.143-.683 1.007 1.007 0 0 0-.438-.445c-.191-.104-.433-.157-.724-.157-.269 0-.502.046-.698.137a1.13 1.13 0 0 0-.458.369.892.892 0 0 0-.164.526h-1.64c0-.291.07-.574.212-.847.141-.274.346-.518.615-.732.269-.214.59-.383.964-.506a4.007 4.007 0 0 1 1.257-.184c.556 0 1.049.093 1.477.28.433.187.772.469 1.019.848.25.373.376.843.376 1.408v3.288c0 .337.022.64.068.909.05.265.121.495.212.691V178h-1.689a2.914 2.914 0 0 1-.184-.677 5.53 5.53 0 0 1-.062-.806Zm.239-3.015.014 1.019h-1.182c-.306 0-.575.029-.807.088a1.665 1.665 0 0 0-.581.246 1.08 1.08 0 0 0-.349.397c-.077.155-.116.33-.116.526s.046.376.137.54c.091.16.223.285.396.376.178.091.392.137.643.137.337 0 .631-.068.882-.205.255-.141.455-.312.601-.513.146-.205.223-.398.233-.581l.533.732a2.51 2.51 0 0 1-.28.601c-.133.214-.306.42-.52.615a2.577 2.577 0 0 1-1.771.657 2.83 2.83 0 0 1-1.292-.287 2.29 2.29 0 0 1-.888-.787 2.036 2.036 0 0 1-.321-1.127c0-.392.072-.739.218-1.04.151-.305.369-.56.657-.765.291-.205.647-.36 1.066-.465a5.72 5.72 0 0 1 1.435-.164h1.292Zm4.886-1.395V178h-1.648v-7.396h1.552l.096 1.503Zm-.267 1.921-.561-.007c0-.51.064-.982.192-1.415.127-.432.314-.808.56-1.127.247-.324.552-.572.916-.746a2.93 2.93 0 0 1 1.279-.266c.337 0 .645.05.923.15.282.096.526.249.731.458.21.21.369.479.479.807.114.328.17.724.17 1.189V178h-1.647v-4.785c0-.36-.055-.643-.164-.848a.909.909 0 0 0-.458-.437 1.662 1.662 0 0 0-.704-.137c-.31 0-.574.059-.793.178-.214.118-.39.28-.526.485a2.171 2.171 0 0 0-.301.711 3.712 3.712 0 0 0-.096.861Zm4.587-.437-.773.171c0-.447.062-.868.185-1.265.128-.401.312-.752.554-1.053.246-.305.549-.544.909-.717.36-.174.772-.26 1.237-.26.379 0 .716.052 1.012.157.301.1.556.26.766.479.209.218.369.503.478.854.109.346.164.766.164 1.258V178h-1.654v-4.792c0-.374-.055-.663-.164-.868a.85.85 0 0 0-.451-.424 1.82 1.82 0 0 0-.704-.123c-.256 0-.481.048-.677.144a1.35 1.35 0 0 0-.486.389 1.725 1.725 0 0 0-.3.568 2.421 2.421 0 0 0-.096.697Zm9.588 4.546a3.937 3.937 0 0 1-1.483-.267 3.261 3.261 0 0 1-1.121-.759 3.349 3.349 0 0 1-.704-1.141 4 4 0 0 1-.246-1.415v-.274c0-.579.084-1.103.252-1.572a3.58 3.58 0 0 1 .705-1.203c.3-.337.656-.595 1.066-.773.41-.177.854-.266 1.333-.266.529 0 .991.089 1.388.266.396.178.724.429.984.752.264.319.46.7.588 1.142a5.1 5.1 0 0 1 .198 1.463v.704h-5.715v-1.183h4.088v-.13a2.32 2.32 0 0 0-.177-.834 1.417 1.417 0 0 0-.486-.628c-.219-.16-.51-.24-.875-.24-.273 0-.517.06-.731.178a1.45 1.45 0 0 0-.527.499 2.65 2.65 0 0 0-.328.793 4.447 4.447 0 0 0-.109 1.032v.274c0 .323.043.624.13.902.091.273.223.513.396.718.173.205.383.367.629.485.246.114.526.171.841.171.396 0 .75-.08 1.06-.239a2.44 2.44 0 0 0 .806-.677l.868.841a3.382 3.382 0 0 1-.622.67 3.12 3.12 0 0 1-.936.512c-.365.133-.789.199-1.272.199Zm6-6.125V178h-1.648v-7.396h1.572l.076 1.408Zm2.262-1.456-.013 1.531a4.345 4.345 0 0 0-.67-.055c-.283 0-.531.041-.745.123a1.403 1.403 0 0 0-.869.875c-.077.21-.123.445-.136.704l-.376.028c0-.465.045-.896.136-1.292.092-.397.228-.745.411-1.046.186-.301.419-.536.697-.704.282-.169.608-.253.977-.253a2.066 2.066 0 0 1 .588.089Zm5.056 5.961v-3.528c0-.264-.047-.492-.143-.683a1.007 1.007 0 0 0-.438-.445c-.191-.104-.433-.157-.724-.157-.269 0-.502.046-.698.137a1.13 1.13 0 0 0-.458.369.892.892 0 0 0-.164.526h-1.64c0-.291.07-.574.212-.847.141-.274.346-.518.615-.732.269-.214.59-.383.964-.506a4.009 4.009 0 0 1 1.258-.184c.556 0 1.048.093 1.476.28.433.187.773.469 1.019.848.25.373.376.843.376 1.408v3.288c0 .337.022.64.068.909.05.265.121.495.212.691V178h-1.689a2.914 2.914 0 0 1-.184-.677 5.53 5.53 0 0 1-.062-.806Zm.24-3.015.013 1.019h-1.182c-.306 0-.575.029-.807.088a1.673 1.673 0 0 0-.581.246 1.08 1.08 0 0 0-.349.397c-.077.155-.116.33-.116.526s.046.376.137.54c.091.16.223.285.396.376.178.091.392.137.643.137.337 0 .631-.068.882-.205.255-.141.456-.312.601-.513.146-.205.224-.398.233-.581l.533.732a2.51 2.51 0 0 1-.28.601c-.132.214-.306.42-.52.615a2.583 2.583 0 0 1-1.77.657c-.483 0-.914-.096-1.292-.287a2.287 2.287 0 0 1-.889-.787 2.036 2.036 0 0 1-.321-1.127c0-.392.073-.739.218-1.04.151-.305.37-.56.657-.765.291-.205.647-.36 1.066-.465a5.723 5.723 0 0 1 1.436-.164h1.292Z"/></g><rect width="95" height="31" x="220.5" y="157.5" stroke="#8F909A" rx="7.5"/><path fill="#D2E4FF" d="m29.008 264.469 1.57-2.157-2.36-.703.368-1.171 2.36.867-.071-2.688h1.188l-.079 2.735 2.328-.868.36 1.196-2.399.711 1.54 2.117-.97.726-1.445-2.25-1.414 2.196-.976-.711Zm7.39 0 1.57-2.157-2.359-.703.368-1.171 2.359.867-.07-2.688h1.187l-.078 2.735 2.328-.868.36 1.196-2.399.711 1.54 2.117-.97.726-1.445-2.25-1.414 2.196-.977-.711Zm7.391 0 1.57-2.157-2.359-.703.367-1.171 2.36.867-.07-2.688h1.187l-.078 2.735 2.328-.868.36 1.196-2.4.711 1.54 2.117-.969.726-1.445-2.25-1.414 2.196-.977-.711Zm7.39 0 1.571-2.157-2.36-.703.368-1.171 2.36.867-.071-2.688h1.187l-.078 2.735 2.328-.868.36 1.196-2.399.711 1.54 2.117-.97.726-1.445-2.25-1.414 2.196-.976-.711Zm7.391 0 1.57-2.157-2.359-.703.367-1.171 2.36.867-.07-2.688h1.187l-.078 2.735 2.328-.868.36 1.196-2.4.711 1.54 2.117-.969.726-1.445-2.25-1.414 2.196-.977-.711Zm7.39 0 1.571-2.157-2.36-.703.368-1.171 2.36.867-.07-2.688h1.187l-.079 2.735 2.329-.868.359 1.196-2.398.711 1.539 2.117-.97.726-1.444-2.25-1.415 2.196-.976-.711Zm7.392 0 1.57-2.157-2.36-.703.368-1.171 2.36.867-.071-2.688h1.187l-.078 2.735 2.328-.868.36 1.196-2.399.711 1.54 2.117-.97.726-1.445-2.25-1.414 2.196-.976-.711Zm7.39 0 1.57-2.157-2.359-.703.367-1.171 2.36.867-.07-2.688h1.187l-.078 2.735 2.328-.868.36 1.196-2.4.711 1.54 2.117-.969.726-1.445-2.25-1.414 2.196-.977-.711Zm7.39 0 1.571-2.157-2.36-.703.368-1.171 2.36.867-.071-2.688h1.188l-.079 2.735 2.329-.868.359 1.196-2.399.711 1.54 2.117-.97.726-1.445-2.25-1.414 2.196-.976-.711Zm7.391 0 1.57-2.157-2.359-.703.368-1.171 2.359.867-.07-2.688h1.187l-.078 2.735 2.328-.868.36 1.196-2.399.711 1.539 2.117-.969.726-1.445-2.25-1.414 2.196-.977-.711Zm7.391 0 1.57-2.157-2.359-.703.367-1.171 2.36.867-.071-2.688h1.188l-.078 2.735 2.328-.868.359 1.196-2.398.711 1.539 2.117-.969.726-1.445-2.25-1.414 2.196-.977-.711Zm7.391 0 1.57-2.157-2.359-.703.367-1.171 2.359.867-.07-2.688h1.187l-.078 2.735 2.328-.868.36 1.196-2.399.711 1.539 2.117-.968.726-1.446-2.25-1.414 2.196-.976-.711Zm7.39 0 1.571-2.157-2.36-.703.367-1.171 2.36.867-.071-2.688h1.188l-.078 2.735 2.328-.868.359 1.196-2.398.711 1.539 2.117-.969.726-1.445-2.25-1.414 2.196-.977-.711Zm7.391 0 1.57-2.157-2.359-.703.367-1.171 2.359.867-.07-2.688h1.188l-.079 2.735 2.329-.868.359 1.196-2.398.711 1.539 2.117-.969.726-1.445-2.25-1.415 2.196-.976-.711Zm7.391 0 1.57-2.157-2.359-.703.367-1.171 2.359.867-.07-2.688h1.187l-.078 2.735 2.328-.868.36 1.196-2.399.711 1.539 2.117-.969.726-1.445-2.25-1.414 2.196-.976-.711Zm7.39 0 1.571-2.157-2.36-.703.367-1.171 2.36.867-.071-2.688h1.188l-.078 2.735 2.328-.868.359 1.196-2.398.711 1.539 2.117-.969.726-1.445-2.25-1.414 2.196-.977-.711Zm7.391 0 1.57-2.157-2.359-.703.367-1.171 2.359.867-.07-2.688h1.187l-.078 2.735 2.328-.868.36 1.196-2.399.711 1.539 2.117-.968.726-1.446-2.25-1.414 2.196-.976-.711Zm7.39 0 1.571-2.157-2.36-.703.368-1.171 2.359.867-.07-2.688h1.187l-.078 2.735 2.328-.868.359 1.196-2.398.711 1.539 2.117-.969.726-1.445-2.25-1.414 2.196-.977-.711Zm7.391 0 1.57-2.157-2.359-.703.367-1.171 2.36.867-.071-2.688h1.188l-.078 2.735 2.328-.868.359 1.196-2.398.711 1.539 2.117-.969.726-1.445-2.25-1.414 2.196-.977-.711Zm7.391 0 1.57-2.157-2.359-.703.367-1.171 2.359.867-.07-2.688h1.187l-.078 2.735 2.328-.868.36 1.196-2.399.711 1.539 2.117-.968.726-1.446-2.25-1.414 2.196-.976-.711Zm7.39 0 1.571-2.157-2.36-.703.367-1.171 2.36.867-.07-2.688h1.187l-.078 2.735 2.328-.868.359 1.196-2.398.711 1.539 2.117-.969.726-1.445-2.25-1.414 2.196-.977-.711Zm7.391 0 1.57-2.157-2.359-.703.367-1.171 2.359.867-.07-2.688h1.188l-.078 2.735 2.328-.868.359 1.196-2.398.711 1.539 2.117-.969.726-1.445-2.25-1.414 2.196-.977-.711Zm7.391 0 1.57-2.157-2.36-.703.368-1.171 2.359.867-.07-2.688h1.187l-.078 2.735 2.328-.868.36 1.196-2.399.711 1.539 2.117-.968.726-1.446-2.25-1.414 2.196-.976-.711Zm7.39 0 1.57-2.157-2.359-.703.367-1.171 2.36.867-.071-2.688h1.188l-.078 2.735 2.328-.868.359 1.196-2.398.711 1.539 2.117-.969.726-1.445-2.25-1.414 2.196-.977-.711Zm7.391 0 1.57-2.157-2.359-.703.367-1.171 2.359.867-.07-2.688h1.188l-.079 2.735 2.329-.868.359 1.196-2.399.711 1.54 2.117-.969.726-1.446-2.25-1.414 2.196-.976-.711Zm7.39 0 1.571-2.157-2.36-.703.368-1.171 2.359.867-.07-2.688h1.187l-.078 2.735 2.328-.868.36 1.196-2.399.711 1.539 2.117-.969.726-1.445-2.25-1.414 2.196-.977-.711Zm7.391 0 1.57-2.157-2.359-.703.367-1.171 2.36.867-.071-2.688h1.188l-.078 2.735 2.328-.868.359 1.196-2.398.711 1.539 2.117-.969.726-1.445-2.25-1.414 2.196-.977-.711Zm7.391 0 1.57-2.157-2.359-.703.367-1.171 2.359.867-.07-2.688h1.187l-.078 2.735 2.328-.868.36 1.196-2.399.711 1.539 2.117-.968.726-1.446-2.25-1.414 2.196-.976-.711Zm7.39 0 1.571-2.157-2.36-.703.367-1.171 2.36.867-.071-2.688H239l-.078 2.735 2.328-.868.359 1.196-2.398.711 1.539 2.117-.969.726-1.445-2.25-1.414 2.196-.977-.711Zm7.391 0 1.57-2.157-2.359-.703.367-1.171 2.359.867-.07-2.688h1.188l-.079 2.735 2.329-.868.359 1.196-2.398.711 1.539 2.117-.969.726-1.445-2.25-1.415 2.196-.976-.711Zm7.391 0 1.57-2.157-2.359-.703.367-1.171 2.359.867-.07-2.688h1.187l-.078 2.735 2.328-.868.36 1.196-2.399.711 1.539 2.117-.969.726-1.445-2.25-1.414 2.196-.976-.711Zm7.539 4.765c0-.244.075-.45.226-.617.156-.172.38-.258.672-.258.292 0 .513.086.664.258a.87.87 0 0 1 .234.617.86.86 0 0 1-.234.61c-.151.166-.372.25-.664.25-.292 0-.516-.084-.672-.25a.876.876 0 0 1-.226-.61Zm3.414 0c0-.244.075-.45.226-.617.156-.172.38-.258.672-.258.292 0 .513.086.664.258a.871.871 0 0 1 .235.617c0 .24-.079.443-.235.61-.151.166-.372.25-.664.25-.292 0-.516-.084-.672-.25a.876.876 0 0 1-.226-.61Zm3.242 0c0-.244.075-.45.226-.617.157-.172.381-.258.672-.258.292 0 .513.086.664.258a.867.867 0 0 1 .235.617c0 .24-.078.443-.235.61-.151.166-.372.25-.664.25-.291 0-.515-.084-.672-.25a.876.876 0 0 1-.226-.61Z"/><path fill="#001C37" d="M24 229h72v16H24z"/><path fill="#B5C4FF" fill-opacity=".05" d="M24 229h72v16H24z"/><path fill="#C6C6D0" d="M32.137 237.654h-2.28v-.92h2.28c.441 0 .798-.07 1.072-.211.273-.14.473-.335.598-.585.128-.25.193-.536.193-.856 0-.293-.065-.568-.193-.826a1.426 1.426 0 0 0-.598-.621c-.274-.16-.63-.24-1.072-.24H30.12V241h-1.13v-8.531h3.146c.644 0 1.19.111 1.635.334.445.222.783.531 1.013.926.23.39.346.837.346 1.341 0 .547-.115 1.014-.346 1.401-.23.386-.568.681-1.013.884-.446.2-.99.299-1.635.299Zm5.743-1.998V241h-1.084v-6.34h1.055l.03.996Zm1.98-1.031-.005 1.008a1.527 1.527 0 0 0-.258-.035 2.678 2.678 0 0 0-.27-.012c-.25 0-.47.039-.661.117a1.378 1.378 0 0 0-.487.328 1.586 1.586 0 0 0-.316.504 2.432 2.432 0 0 0-.147.633l-.304.176c0-.383.037-.742.111-1.078.078-.336.197-.633.357-.891.16-.262.364-.465.61-.609a1.708 1.708 0 0 1 1.16-.194.793.793 0 0 1 .21.053Zm2.58.035V241h-1.09v-6.34h1.09Zm-1.171-1.681c0-.176.053-.325.158-.446.11-.121.27-.181.48-.181.208 0 .366.06.475.181.113.121.17.27.17.446a.613.613 0 0 1-.17.433c-.11.117-.267.176-.475.176-.21 0-.37-.059-.48-.176a.638.638 0 0 1-.158-.433Zm5.24 7.042 1.734-5.361h1.107L47.071 241h-.727l.165-.979Zm-1.448-5.361 1.787 5.391.123.949h-.726l-2.297-6.34h1.113Zm9.377 5.256v-3.264c0-.25-.05-.466-.153-.65a.997.997 0 0 0-.445-.434 1.621 1.621 0 0 0-.738-.152c-.273 0-.514.047-.72.141a1.24 1.24 0 0 0-.481.369.807.807 0 0 0-.17.492h-1.084c0-.227.059-.451.176-.674.117-.223.285-.424.504-.603.222-.184.488-.329.796-.434.313-.109.66-.164 1.043-.164.461 0 .868.078 1.22.234.355.157.632.393.831.709.203.313.305.705.305 1.178v2.953c0 .211.017.436.053.674.039.238.095.443.17.615V241h-1.131a2.022 2.022 0 0 1-.13-.498 4.008 4.008 0 0 1-.046-.586Zm.187-2.76.012.762h-1.096c-.308 0-.584.025-.826.076a1.883 1.883 0 0 0-.61.217c-.163.098-.288.221-.374.369a.981.981 0 0 0-.129.51c0 .199.045.381.135.545.09.164.224.295.404.392.184.094.408.141.674.141a1.825 1.825 0 0 0 1.483-.727c.152-.203.234-.4.245-.591l.463.521a1.574 1.574 0 0 1-.222.545 2.616 2.616 0 0 1-1.201 1.025 2.315 2.315 0 0 1-.926.176c-.43 0-.807-.084-1.131-.252a1.929 1.929 0 0 1-.75-.674 1.782 1.782 0 0 1-.264-.955c0-.34.066-.638.2-.896.132-.262.323-.479.573-.651.25-.175.551-.308.903-.398.351-.09.744-.135 1.178-.135h1.26Zm5.656-2.496v.832h-3.428v-.832h3.428Zm-2.267-1.541h1.084v6.311c0 .215.033.377.1.486a.477.477 0 0 0 .257.217c.105.035.219.053.34.053.09 0 .183-.008.281-.024.102-.019.178-.035.229-.047l.005.885c-.085.027-.199.053-.34.076a2.532 2.532 0 0 1-.497.041c-.266 0-.51-.053-.733-.158a1.176 1.176 0 0 1-.533-.527c-.129-.25-.193-.586-.193-1.008v-6.305Zm6.57 7.998c-.442 0-.842-.074-1.202-.222a2.74 2.74 0 0 1-.92-.639 2.847 2.847 0 0 1-.585-.973 3.564 3.564 0 0 1-.206-1.23v-.246c0-.516.077-.975.229-1.377.152-.407.36-.75.621-1.032.262-.281.559-.494.89-.638a2.55 2.55 0 0 1 1.032-.217c.453 0 .844.078 1.172.234.332.157.603.375.814.657a2.8 2.8 0 0 1 .469.984c.102.375.152.785.152 1.23v.487h-4.734v-.885h3.65v-.082a2.697 2.697 0 0 0-.175-.82 1.475 1.475 0 0 0-.47-.657c-.214-.171-.507-.257-.878-.257a1.469 1.469 0 0 0-1.213.615 2.297 2.297 0 0 0-.346.744 3.77 3.77 0 0 0-.123 1.014v.246c0 .301.041.584.123.849.086.262.21.493.37.692.164.199.36.355.591.468.235.114.5.17.797.17.383 0 .707-.078.973-.234a2.4 2.4 0 0 0 .697-.627l.656.522a3.02 3.02 0 0 1-.521.591c-.211.188-.47.34-.78.457-.304.118-.665.176-1.083.176Zm8.803-8.648V241h-1.13v-8.531h1.13Zm5.15 0-3.544 3.978-1.992 2.069-.188-1.207 1.5-1.653 2.865-3.187h1.36ZM77.449 241l-3.158-4.16.674-.897L78.796 241h-1.348Zm5.058.117c-.441 0-.841-.074-1.2-.222a2.739 2.739 0 0 1-.92-.639 2.846 2.846 0 0 1-.587-.973 3.566 3.566 0 0 1-.205-1.23v-.246c0-.516.076-.975.229-1.377.152-.407.359-.75.62-1.032.263-.281.56-.494.891-.638a2.55 2.55 0 0 1 1.032-.217c.453 0 .843.078 1.171.234.332.157.604.375.815.657.21.277.367.605.469.984.101.375.152.785.152 1.23v.487h-4.734v-.885h3.65v-.082a2.703 2.703 0 0 0-.176-.82 1.476 1.476 0 0 0-.468-.657c-.215-.171-.508-.257-.88-.257a1.469 1.469 0 0 0-1.212.615 2.301 2.301 0 0 0-.346.744 3.775 3.775 0 0 0-.123 1.014v.246c0 .301.041.584.123.849.086.262.209.493.37.692.163.199.36.355.591.468.234.114.5.17.797.17.383 0 .707-.078.972-.234.266-.156.498-.365.698-.627l.656.522c-.137.207-.31.404-.522.591-.21.188-.47.34-.779.457-.305.118-.666.176-1.084.176Zm5.832-.773 1.764-5.684h1.16l-2.543 7.319a3.999 3.999 0 0 1-.235.503 2.407 2.407 0 0 1-.363.522 1.72 1.72 0 0 1-.539.398 1.615 1.615 0 0 1-.744.159c-.086 0-.195-.012-.328-.036a3.322 3.322 0 0 1-.282-.058l-.005-.879c.03.004.08.008.146.012a1.754 1.754 0 0 0 .773-.088.949.949 0 0 0 .434-.323 1.91 1.91 0 0 0 .31-.615l.452-1.23Zm-1.295-5.684 1.646 4.922.282 1.143-.78.398-2.332-6.463h1.184Z"/><g clip-path="url(#g)"><mask id="h" width="24" height="24" x="280" y="253" maskUnits="userSpaceOnUse" style="mask-type:alpha"><path fill="#D9D9D9" d="M280 253h24v24h-24z"/></mask><g mask="url(#h)"><path fill="#D2E4FF" d="M285 275a1.93 1.93 0 0 1-1.413-.587A1.93 1.93 0 0 1 283 273v-14h2v14h11v2h-11Zm4-4c-.55 0-1.021-.196-1.412-.587A1.927 1.927 0 0 1 287 269v-12c0-.55.196-1.021.588-1.413A1.926 1.926 0 0 1 289 255h9c.55 0 1.021.196 1.413.587.391.392.587.863.587 1.413v12a1.93 1.93 0 0 1-.587 1.413A1.93 1.93 0 0 1 298 271h-9Zm0-2h9v-12h-9v12Z"/></g></g><rect width="303" height="55" x="12.5" y="237.5" stroke="#8F909A" rx="3.5"/><path stroke="#00325A" d="M0 305.5h328"/></g></g><defs><clipPath id="a"><path fill="#fff" d="M0 16C0 7.163 7.163 0 16 0h296c8.837 0 16 7.163 16 16v290H0V16Z"/></clipPath><clipPath id="b"><path fill="#fff" d="M0 0h328v306H0z"/></clipPath><clipPath id="c"><rect width="96" height="32" x="220" y="61" fill="#fff" rx="8"/></clipPath><clipPath id="d"><rect width="96" height="32" x="116" y="109" fill="#fff" rx="8"/></clipPath><clipPath id="e"><rect width="96" height="32" x="116" y="157" fill="#fff" rx="8"/></clipPath><clipPath id="f"><rect width="96" height="32" x="220" y="157" fill="#fff" rx="8"/></clipPath><clipPath id="g"><rect width="40" height="40" x="272" y="245" fill="#fff" rx="20"/></clipPath></defs></svg>