<svg width="848" height="848" viewBox="0 0 848 848" fill="none" xmlns="http://www.w3.org/2000/svg">
<rect x="64" y="64" width="712" height="712" rx="356" fill="#222A45"/>
<g filter="url(#filter0_d_1862_101377)">
<path fill-rule="evenodd" clip-rule="evenodd" d="M715.349 472.91C716.157 468.369 716.863 463.792 717.464 459.183C719.137 446.359 720 433.28 720 420C720 406.72 719.137 393.641 717.464 380.817C716.863 376.208 716.157 371.631 715.349 367.09C714.535 362.513 713.616 357.972 712.597 353.469C698.065 356.043 687.991 369.626 689.92 384.41C691.438 396.046 692.222 407.924 692.222 420C692.222 432.076 691.438 443.954 689.92 455.59C687.991 470.374 698.065 483.957 712.597 486.531C713.616 482.028 714.535 477.487 715.349 472.91ZM706.668 508.708C692.794 503.687 677.287 510.426 671.577 524.196C662.406 546.312 650.396 566.969 635.994 585.709C626.908 597.534 628.811 614.342 640.097 623.858C643.245 620.461 646.315 616.991 649.305 613.45C652.291 609.914 655.197 606.308 658.02 602.635C673.884 581.992 687.122 559.226 697.236 534.836C699.006 530.568 700.68 526.251 702.256 521.886C703.825 517.539 705.297 513.146 706.668 508.708ZM623.858 640.097C614.342 628.811 597.534 626.908 585.709 635.994C566.969 650.396 546.312 662.406 524.196 671.577C510.426 677.287 503.687 692.794 508.708 706.668C513.146 705.297 517.539 703.825 521.886 702.256C526.251 700.68 530.568 699.006 534.836 697.236C559.226 687.122 581.992 673.884 602.635 658.02C606.308 655.197 609.914 652.291 613.45 649.305C616.991 646.315 620.461 643.245 623.858 640.097ZM486.531 712.597C483.957 698.065 470.374 687.991 455.59 689.92C443.954 691.438 432.076 692.222 420 692.222C407.924 692.222 396.046 691.438 384.41 689.92C369.626 687.991 356.043 698.065 353.469 712.597C357.972 713.616 362.513 714.535 367.09 715.349C371.631 716.157 376.208 716.863 380.817 717.464C393.641 719.137 406.72 720 420 720C433.28 720 446.359 719.137 459.183 717.464C463.792 716.863 468.369 716.157 472.91 715.349C477.487 714.535 482.028 713.616 486.531 712.597ZM331.291 706.668C336.313 692.794 329.574 677.287 315.804 671.577C293.688 662.406 273.031 650.396 254.29 635.994C242.466 626.908 225.658 628.811 216.142 640.097C219.539 643.245 223.009 646.315 226.55 649.305C230.086 652.291 233.692 655.197 237.365 658.02C258.008 673.884 280.774 687.122 305.164 697.236C309.432 699.006 313.749 700.68 318.114 702.256C322.461 703.825 326.854 705.297 331.291 706.668ZM199.903 623.858C211.189 614.342 213.092 597.534 204.006 585.709C189.604 566.969 177.594 546.312 168.423 524.196C162.713 510.426 147.206 503.687 133.332 508.708C134.703 513.146 136.175 517.539 137.744 521.886C139.32 526.251 140.994 530.568 142.764 534.836C152.878 559.226 166.116 581.992 181.98 602.635C184.803 606.308 187.709 609.914 190.695 613.45C193.684 616.991 196.755 620.461 199.903 623.858ZM127.403 486.531C141.935 483.957 152.009 470.374 150.08 455.59C148.562 443.954 147.778 432.076 147.778 420C147.778 407.924 148.562 396.046 150.08 384.41C152.009 369.626 141.935 356.043 127.403 353.469C126.384 357.972 125.465 362.513 124.651 367.09C123.843 371.631 123.137 376.208 122.536 380.817C120.863 393.641 120 406.72 120 420C120 433.28 120.863 446.359 122.536 459.183C123.137 463.792 123.843 468.369 124.651 472.91C125.465 477.487 126.384 482.028 127.403 486.531ZM133.332 331.291C147.206 336.313 162.713 329.574 168.423 315.804C177.594 293.688 189.604 273.031 204.006 254.29C213.092 242.466 211.189 225.658 199.903 216.142C196.755 219.539 193.684 223.009 190.695 226.55C187.709 230.086 184.803 233.692 181.98 237.365C166.116 258.008 152.878 280.774 142.764 305.164C140.994 309.432 139.32 313.749 137.744 318.114C136.175 322.461 134.703 326.854 133.332 331.291ZM216.142 199.903C225.658 211.189 242.466 213.092 254.29 204.006C273.031 189.604 293.688 177.594 315.804 168.423C329.574 162.713 336.313 147.206 331.291 133.332C326.854 134.703 322.461 136.175 318.114 137.744C313.749 139.32 309.432 140.994 305.164 142.764C280.774 152.878 258.008 166.116 237.365 181.98C233.692 184.803 230.086 187.709 226.55 190.695C223.009 193.684 219.539 196.755 216.142 199.903ZM353.469 127.403C356.043 141.935 369.626 152.009 384.41 150.08C396.046 148.562 407.924 147.778 420 147.778C432.076 147.778 443.954 148.562 455.59 150.08C470.374 152.009 483.957 141.935 486.531 127.403C482.028 126.384 477.487 125.465 472.91 124.651C468.369 123.843 463.792 123.137 459.183 122.536C446.359 120.863 433.28 120 420 120C406.72 120 393.641 120.863 380.817 122.536C376.208 123.137 371.631 123.843 367.09 124.651C362.513 125.465 357.972 126.384 353.469 127.403ZM508.708 133.332C503.687 147.206 510.426 162.713 524.196 168.423C546.312 177.594 566.969 189.604 585.709 204.006C597.534 213.092 614.342 211.189 623.858 199.903C620.461 196.755 616.991 193.684 613.45 190.695C609.914 187.709 606.308 184.803 602.635 181.98C581.992 166.116 559.226 152.878 534.836 142.764C530.568 140.994 526.251 139.32 521.886 137.744C517.539 136.175 513.146 134.703 508.708 133.332ZM640.097 216.142C628.811 225.658 626.908 242.466 635.994 254.29C650.396 273.031 662.406 293.688 671.577 315.804C677.287 329.574 692.794 336.313 706.668 331.291C705.297 326.854 703.825 322.461 702.256 318.114C700.68 313.749 699.006 309.432 697.236 305.164C687.122 280.774 673.884 258.008 658.02 237.365C655.197 233.692 652.291 230.086 649.305 226.55C646.315 223.009 643.245 219.539 640.097 216.142Z" fill="#FDFCFF"/>
</g>
<defs>
<filter id="filter0_d_1862_101377" x="0" y="0" width="848" height="848" filterUnits="userSpaceOnUse" color-interpolation-filters="sRGB">
<feFlood flood-opacity="0" result="BackgroundImageFix"/>
<feColorMatrix in="SourceAlpha" type="matrix" values="0 0 0 0 0 0 0 0 0 0 0 0 0 0 0 0 0 0 127 0" result="hardAlpha"/>
<feOffset dx="4" dy="4"/>
<feGaussianBlur stdDeviation="62"/>
<feComposite in2="hardAlpha" operator="out"/>
<feColorMatrix type="matrix" values="0 0 0 0 0.278431 0 0 0 0 0.388235 0 0 0 0 0.52549 0 0 0 0.2 0"/>
<feBlend mode="normal" in2="BackgroundImageFix" result="effect1_dropShadow_1862_101377"/>
<feBlend mode="normal" in="SourceGraphic" in2="effect1_dropShadow_1862_101377" result="shape"/>
</filter>
</defs>
</svg>
