<svg width="300" height="60" viewBox="0 0 300 60" fill="none" xmlns="http://www.w3.org/2000/svg">
<path fill-rule="evenodd" clip-rule="evenodd" d="M59.2351 35.1133C59.3155 34.6614 59.3858 34.2061 59.4456 33.7475C59.612 32.4715 59.6979 31.1703 59.6979 29.8489C59.6979 28.5276 59.612 27.2263 59.4456 25.9504C59.3858 25.4918 59.3155 25.0364 59.2351 24.5846C59.1541 24.1292 59.0627 23.6773 58.9613 23.2293C57.5154 23.4855 56.5131 24.8369 56.705 26.3079C56.856 27.4656 56.9341 28.6475 56.9341 29.8489C56.9341 31.0504 56.856 32.2323 56.705 33.39C56.5131 34.8609 57.5154 36.2124 58.9613 36.4686C59.0627 36.0205 59.1541 35.5687 59.2351 35.1133ZM58.3714 38.6751C56.9909 38.1755 55.4481 38.846 54.8799 40.2161C53.9674 42.4165 52.7725 44.4718 51.3396 46.3364C50.4355 47.5129 50.6249 49.1853 51.7478 50.1321C52.061 49.7941 52.3665 49.4488 52.664 49.0965C52.9611 48.7447 53.2502 48.386 53.5311 48.0205C55.1095 45.9665 56.4266 43.7014 57.4329 41.2747C57.609 40.8501 57.7756 40.4205 57.9324 39.9863C58.0885 39.5538 58.235 39.1166 58.3714 38.6751ZM50.1321 51.7478C49.1853 50.6249 47.5129 50.4355 46.3364 51.3396C44.4718 52.7725 42.4165 53.9674 40.2161 54.8799C38.846 55.4481 38.1755 56.9909 38.6751 58.3714C39.1166 58.235 39.5538 58.0885 39.9863 57.9324C40.4205 57.7756 40.8501 57.609 41.2747 57.4329C43.7014 56.4266 45.9665 55.1095 48.0205 53.5311C48.386 53.2502 48.7447 52.9611 49.0965 52.664C49.4488 52.3665 49.7941 52.061 50.1321 51.7478ZM36.4686 58.9613C36.2124 57.5154 34.8609 56.5131 33.39 56.705C32.2323 56.856 31.0504 56.9341 29.8489 56.9341C28.6475 56.9341 27.4656 56.856 26.3079 56.705C24.8369 56.5131 23.4855 57.5154 23.2293 58.9613C23.6773 59.0627 24.1292 59.1541 24.5846 59.2351C25.0364 59.3155 25.4918 59.3858 25.9504 59.4456C27.2263 59.612 28.5276 59.6979 29.8489 59.6979C31.1703 59.6979 32.4715 59.612 33.7475 59.4456C34.2061 59.3858 34.6614 59.3155 35.1133 59.2351C35.5687 59.1541 36.0205 59.0627 36.4686 58.9613ZM21.0228 58.3714C21.5223 56.9909 20.8519 55.4481 19.4818 54.8799C17.2814 53.9674 15.2261 52.7725 13.3614 51.3396C12.185 50.4355 10.5126 50.6249 9.56578 51.7478C9.90379 52.061 10.2491 52.3665 10.6013 52.664C10.9531 52.9611 11.3119 53.2502 11.6774 53.5311C13.7313 55.1095 15.9965 56.4266 18.4231 57.4329C18.8478 57.609 19.2774 57.7756 19.7116 57.9324C20.1441 58.0885 20.5812 58.235 21.0228 58.3714ZM7.95006 50.1321C9.07297 49.1853 9.26234 47.5129 8.35827 46.3364C6.92536 44.4718 5.73043 42.4165 4.81794 40.2161C4.24979 38.846 2.70695 38.1755 1.32645 38.6751C1.46292 39.1166 1.60936 39.5538 1.76551 39.9863C1.92229 40.4205 2.08886 40.8501 2.26495 41.2747C3.27124 43.7014 4.58842 45.9665 6.16681 48.0205C6.44765 48.386 6.73676 48.7447 7.03386 49.0965C7.33135 49.4488 7.63684 49.7941 7.95006 50.1321ZM0.736593 36.4686C2.18245 36.2124 3.18474 34.8609 2.99287 33.39C2.84185 32.2323 2.76379 31.0504 2.76379 29.8489C2.76379 28.6475 2.84185 27.4656 2.99287 26.3079C3.18474 24.8369 2.18245 23.4855 0.736592 23.2293C0.635149 23.6773 0.543783 24.1292 0.462745 24.5846C0.382347 25.0364 0.312114 25.4918 0.252292 25.9504C0.0858553 27.2263 0 28.5276 0 29.8489C0 31.1703 0.0858554 32.4715 0.252292 33.7475C0.312114 34.2061 0.382347 34.6614 0.462745 35.1133C0.543783 35.5687 0.635149 36.0205 0.736593 36.4686ZM1.32645 21.0228C2.70695 21.5223 4.24979 20.8519 4.81794 19.4818C5.73043 17.2814 6.92536 15.2261 8.35827 13.3614C9.26235 12.185 9.07297 10.5126 7.95006 9.56578C7.63684 9.90379 7.33135 10.2491 7.03386 10.6013C6.73676 10.9531 6.44765 11.3119 6.16681 11.6774C4.58842 13.7313 3.27124 15.9965 2.26495 18.4231C2.08886 18.8478 1.92229 19.2774 1.76551 19.7116C1.60936 20.1441 1.46292 20.5812 1.32645 21.0228ZM9.56578 7.95006C10.5126 9.07297 12.185 9.26234 13.3614 8.35827C15.2261 6.92536 17.2814 5.73043 19.4818 4.81794C20.8519 4.24979 21.5223 2.70695 21.0228 1.32645C20.5812 1.46292 20.1441 1.60936 19.7116 1.76551C19.2774 1.92229 18.8478 2.08886 18.4231 2.26495C15.9965 3.27124 13.7313 4.58842 11.6774 6.16681C11.3119 6.44765 10.9531 6.73676 10.6013 7.03386C10.2491 7.33135 9.9038 7.63684 9.56578 7.95006ZM23.2293 0.736592C23.4855 2.18245 24.8369 3.18474 26.3079 2.99287C27.4656 2.84185 28.6475 2.76379 29.8489 2.76379C31.0504 2.76379 32.2323 2.84185 33.39 2.99287C34.8609 3.18474 36.2124 2.18245 36.4686 0.736592C36.0205 0.635149 35.5687 0.543783 35.1133 0.462745C34.6614 0.382347 34.2061 0.312114 33.7475 0.252292C32.4715 0.0858553 31.1703 0 29.8489 0C28.5276 0 27.2263 0.0858554 25.9504 0.252292C25.4918 0.312114 25.0364 0.382347 24.5846 0.462745C24.1292 0.543783 23.6773 0.635149 23.2293 0.736592ZM38.6751 1.32645C38.1755 2.70695 38.846 4.24979 40.2161 4.81794C42.4165 5.73043 44.4718 6.92536 46.3364 8.35827C47.5129 9.26235 49.1853 9.07297 50.1321 7.95006C49.7941 7.63684 49.4488 7.33135 49.0965 7.03386C48.7447 6.73676 48.386 6.44765 48.0205 6.16681C45.9665 4.58842 43.7014 3.27124 41.2747 2.26495C40.8501 2.08886 40.4205 1.92229 39.9863 1.76551C39.5538 1.60936 39.1166 1.46292 38.6751 1.32645ZM51.7478 9.56578C50.6249 10.5126 50.4355 12.185 51.3396 13.3614C52.7725 15.2261 53.9674 17.2814 54.8799 19.4818C55.4481 20.8519 56.9909 21.5223 58.3714 21.0228C58.235 20.5812 58.0885 20.1441 57.9324 19.7116C57.7756 19.2774 57.609 18.8478 57.4329 18.4231C56.4266 15.9965 55.1094 13.7313 53.5311 11.6774C53.2502 11.3119 52.9611 10.9531 52.664 10.6013C52.3665 10.2491 52.061 9.9038 51.7478 9.56578Z" fill="#FDFCFF"/>
<path fill-rule="evenodd" clip-rule="evenodd" d="M59.2351 35.1133C59.3155 34.6614 59.3858 34.2061 59.4456 33.7475C59.612 32.4715 59.6979 31.1703 59.6979 29.8489C59.6979 28.5276 59.612 27.2263 59.4456 25.9504C59.3858 25.4918 59.3155 25.0364 59.2351 24.5846C59.1541 24.1292 59.0627 23.6773 58.9613 23.2293C57.5154 23.4855 56.5131 24.8369 56.705 26.3079C56.856 27.4656 56.9341 28.6475 56.9341 29.8489C56.9341 31.0504 56.856 32.2323 56.705 33.39C56.5131 34.8609 57.5154 36.2124 58.9613 36.4686C59.0627 36.0205 59.1541 35.5687 59.2351 35.1133ZM58.3714 38.6751C56.9909 38.1755 55.4481 38.846 54.8799 40.2161C53.9674 42.4165 52.7725 44.4718 51.3396 46.3364C50.4355 47.5129 50.6249 49.1853 51.7478 50.1321C52.061 49.7941 52.3665 49.4488 52.664 49.0965C52.9611 48.7447 53.2502 48.386 53.5311 48.0205C55.1095 45.9665 56.4266 43.7014 57.4329 41.2747C57.609 40.8501 57.7756 40.4205 57.9324 39.9863C58.0885 39.5538 58.235 39.1166 58.3714 38.6751ZM50.1321 51.7478C49.1853 50.6249 47.5129 50.4355 46.3364 51.3396C44.4718 52.7725 42.4165 53.9674 40.2161 54.8799C38.846 55.4481 38.1755 56.9909 38.6751 58.3714C39.1166 58.235 39.5538 58.0885 39.9863 57.9324C40.4205 57.7756 40.8501 57.609 41.2747 57.4329C43.7014 56.4266 45.9665 55.1095 48.0205 53.5311C48.386 53.2502 48.7447 52.9611 49.0965 52.664C49.4488 52.3665 49.7941 52.061 50.1321 51.7478ZM36.4686 58.9613C36.2124 57.5154 34.8609 56.5131 33.39 56.705C32.2323 56.856 31.0504 56.9341 29.8489 56.9341C28.6475 56.9341 27.4656 56.856 26.3079 56.705C24.8369 56.5131 23.4855 57.5154 23.2293 58.9613C23.6773 59.0627 24.1292 59.1541 24.5846 59.2351C25.0364 59.3155 25.4918 59.3858 25.9504 59.4456C27.2263 59.612 28.5276 59.6979 29.8489 59.6979C31.1703 59.6979 32.4715 59.612 33.7475 59.4456C34.2061 59.3858 34.6614 59.3155 35.1133 59.2351C35.5687 59.1541 36.0205 59.0627 36.4686 58.9613ZM21.0228 58.3714C21.5223 56.9909 20.8519 55.4481 19.4818 54.8799C17.2814 53.9674 15.2261 52.7725 13.3614 51.3396C12.185 50.4355 10.5126 50.6249 9.56578 51.7478C9.90379 52.061 10.2491 52.3665 10.6013 52.664C10.9531 52.9611 11.3119 53.2502 11.6774 53.5311C13.7313 55.1095 15.9965 56.4266 18.4231 57.4329C18.8478 57.609 19.2774 57.7756 19.7116 57.9324C20.1441 58.0885 20.5812 58.235 21.0228 58.3714ZM7.95006 50.1321C9.07297 49.1853 9.26234 47.5129 8.35827 46.3364C6.92536 44.4718 5.73043 42.4165 4.81794 40.2161C4.24979 38.846 2.70695 38.1755 1.32645 38.6751C1.46292 39.1166 1.60936 39.5538 1.76551 39.9863C1.92229 40.4205 2.08886 40.8501 2.26495 41.2747C3.27124 43.7014 4.58842 45.9665 6.16681 48.0205C6.44765 48.386 6.73676 48.7447 7.03386 49.0965C7.33135 49.4488 7.63684 49.7941 7.95006 50.1321ZM0.736593 36.4686C2.18245 36.2124 3.18474 34.8609 2.99287 33.39C2.84185 32.2323 2.76379 31.0504 2.76379 29.8489C2.76379 28.6475 2.84185 27.4656 2.99287 26.3079C3.18474 24.8369 2.18245 23.4855 0.736592 23.2293C0.635149 23.6773 0.543783 24.1292 0.462745 24.5846C0.382347 25.0364 0.312114 25.4918 0.252292 25.9504C0.0858553 27.2263 0 28.5276 0 29.8489C0 31.1703 0.0858554 32.4715 0.252292 33.7475C0.312114 34.2061 0.382347 34.6614 0.462745 35.1133C0.543783 35.5687 0.635149 36.0205 0.736593 36.4686ZM1.32645 21.0228C2.70695 21.5223 4.24979 20.8519 4.81794 19.4818C5.73043 17.2814 6.92536 15.2261 8.35827 13.3614C9.26235 12.185 9.07297 10.5126 7.95006 9.56578C7.63684 9.90379 7.33135 10.2491 7.03386 10.6013C6.73676 10.9531 6.44765 11.3119 6.16681 11.6774C4.58842 13.7313 3.27124 15.9965 2.26495 18.4231C2.08886 18.8478 1.92229 19.2774 1.76551 19.7116C1.60936 20.1441 1.46292 20.5812 1.32645 21.0228ZM9.56578 7.95006C10.5126 9.07297 12.185 9.26234 13.3614 8.35827C15.2261 6.92536 17.2814 5.73043 19.4818 4.81794C20.8519 4.24979 21.5223 2.70695 21.0228 1.32645C20.5812 1.46292 20.1441 1.60936 19.7116 1.76551C19.2774 1.92229 18.8478 2.08886 18.4231 2.26495C15.9965 3.27124 13.7313 4.58842 11.6774 6.16681C11.3119 6.44765 10.9531 6.73676 10.6013 7.03386C10.2491 7.33135 9.9038 7.63684 9.56578 7.95006ZM23.2293 0.736592C23.4855 2.18245 24.8369 3.18474 26.3079 2.99287C27.4656 2.84185 28.6475 2.76379 29.8489 2.76379C31.0504 2.76379 32.2323 2.84185 33.39 2.99287C34.8609 3.18474 36.2124 2.18245 36.4686 0.736592C36.0205 0.635149 35.5687 0.543783 35.1133 0.462745C34.6614 0.382347 34.2061 0.312114 33.7475 0.252292C32.4715 0.0858553 31.1703 0 29.8489 0C28.5276 0 27.2263 0.0858554 25.9504 0.252292C25.4918 0.312114 25.0364 0.382347 24.5846 0.462745C24.1292 0.543783 23.6773 0.635149 23.2293 0.736592ZM38.6751 1.32645C38.1755 2.70695 38.846 4.24979 40.2161 4.81794C42.4165 5.73043 44.4718 6.92536 46.3364 8.35827C47.5129 9.26235 49.1853 9.07297 50.1321 7.95006C49.7941 7.63684 49.4488 7.33135 49.0965 7.03386C48.7447 6.73676 48.386 6.44765 48.0205 6.16681C45.9665 4.58842 43.7014 3.27124 41.2747 2.26495C40.8501 2.08886 40.4205 1.92229 39.9863 1.76551C39.5538 1.60936 39.1166 1.46292 38.6751 1.32645ZM51.7478 9.56578C50.6249 10.5126 50.4355 12.185 51.3396 13.3614C52.7725 15.2261 53.9674 17.2814 54.8799 19.4818C55.4481 20.8519 56.9909 21.5223 58.3714 21.0228C58.235 20.5812 58.0885 20.1441 57.9324 19.7116C57.7756 19.2774 57.609 18.8478 57.4329 18.4231C56.4266 15.9965 55.1094 13.7313 53.5311 11.6774C53.2502 11.3119 52.9611 10.9531 52.664 10.6013C52.3665 10.2491 52.061 9.9038 51.7478 9.56578Z" fill="#FDFCFF"/>
<path d="M105.998 44H100.598V20.9184H84.3995V44H79V16.1429H84.3995V20.1225L88.2563 16.1429H100.598C102.089 16.1429 103.349 16.7 104.378 17.8143C105.458 18.8755 105.998 20.1755 105.998 21.7143V44Z" fill="#FDFCFF"/>
<path d="M143.812 38.4286C143.812 39.9673 143.272 41.2939 142.192 42.4082C141.164 43.4694 139.904 44 138.413 44H122.214C120.723 44 119.437 43.4694 118.357 42.4082C117.329 41.2939 116.815 39.9673 116.815 38.4286V21.7143C116.815 20.1755 117.329 18.8755 118.357 17.8143C119.437 16.7 120.723 16.1429 122.214 16.1429H138.413C139.904 16.1429 141.164 16.7 142.192 17.8143C143.272 18.8755 143.812 20.1755 143.812 21.7143V38.4286ZM138.413 39.2245V20.9184H122.214V39.2245H138.413Z" fill="#FDFCFF"/>
<path d="M176.613 16.1429L171.908 20.9184H158.872V27.2857H169.671C171.162 27.2857 172.422 27.8429 173.45 28.9571C174.53 30.0184 175.07 31.3184 175.07 32.8571V38.4286C175.07 39.9673 174.53 41.2939 173.45 42.4082C172.422 43.4694 171.162 44 169.671 44H153.472V39.2245H169.671V32.0612H158.872C157.38 32.0612 156.095 31.5306 155.015 30.4694C153.986 29.3551 153.472 28.0286 153.472 26.4898V21.7143C153.472 20.1755 153.986 18.8755 155.015 17.8143C156.095 16.7 157.38 16.1429 158.872 16.1429H176.613Z" fill="#FDFCFF"/>
<path d="M202.426 44H191.627C190.136 44 188.85 43.4694 187.77 42.4082C186.742 41.2939 186.228 39.9673 186.228 38.4286V20.9184H178.514L183.142 16.1429H186.228V10.5714L191.627 5V16.1429H202.426V20.9184H191.627V39.2245H202.426V44Z" fill="#FDFCFF"/>
<path d="M231.744 27.2857H226.344V20.9184H215.545V44H210.146V16.1429H215.545V20.1225L219.402 16.1429H226.344C227.836 16.1429 229.096 16.7 230.124 17.8143C231.204 18.8755 231.744 20.1755 231.744 21.7143V27.2857Z" fill="#FDFCFF"/>
<path d="M267.199 38.4286C267.199 39.9673 266.659 41.2939 265.579 42.4082C264.551 43.4694 263.291 44 261.8 44H245.601C244.11 44 242.824 43.4694 241.744 42.4082C240.716 41.2939 240.202 39.9673 240.202 38.4286V21.7143C240.202 20.1755 240.716 18.8755 241.744 17.8143C242.824 16.7 244.11 16.1429 245.601 16.1429H261.8C263.291 16.1429 264.551 16.7 265.579 17.8143C266.659 18.8755 267.199 20.1755 267.199 21.7143V38.4286ZM261.8 39.2245V20.9184H245.601V39.2245H261.8Z" fill="#FDFCFF"/>
<path d="M300 16.1429L295.295 20.9184H282.259V27.2857H293.058C294.549 27.2857 295.809 27.8429 296.837 28.9571C297.917 30.0184 298.457 31.3184 298.457 32.8571V38.4286C298.457 39.9673 297.917 41.2939 296.837 42.4082C295.809 43.4694 294.549 44 293.058 44H276.859V39.2245H293.058V32.0612H282.259C280.767 32.0612 279.482 31.5306 278.402 30.4694C277.373 29.3551 276.859 28.0286 276.859 26.4898V21.7143C276.859 20.1755 277.373 18.8755 278.402 17.8143C279.482 16.7 280.767 16.1429 282.259 16.1429H300Z" fill="#FDFCFF"/>
</svg>
