<svg width="328" height="506" viewBox="0 0 328 506" fill="none" xmlns="http://www.w3.org/2000/svg">
<g clip-path="url(#clip0_1497_81269)">
<path d="M0 28C0 12.536 12.536 0 28 0H300C315.464 0 328 12.536 328 28V506H0V28Z" fill="#001C37"/>
<rect opacity="0.4" x="148" y="16" width="32" height="4" rx="2" fill="#8F909A"/>
<rect x="16" y="36" width="296" height="364" rx="16" fill="#001C37"/>
<rect x="16" y="36" width="296" height="364" rx="16" fill="#B5C4FF" fill-opacity="0.05"/>
<rect x="32" y="52" width="264" height="264" rx="16" fill="white"/>
<mask id="mask0_1497_81269" style="mask-type:alpha" maskUnits="userSpaceOnUse" x="32" y="51" width="264" height="265">
<rect x="32" y="51.9995" width="264" height="264" fill="#D9D9D9"/>
</mask>
<g mask="url(#mask0_1497_81269)">
<path d="M65 173V84.9995H153V173H65ZM87 151H131V107H87V151ZM65 283V195H153V283H65ZM87 261H131V217H87V261ZM175 173V84.9995H263V173H175ZM197 151H241V107H197V151ZM241 283V261H263V283H241ZM175 217V195H197V217H175ZM197 239V217H219V239H197ZM175 261V239H197V261H175ZM197 283V261H219V283H197ZM219 261V239H241V261H219ZM219 217V195H241V217H219ZM241 239V217H263V239H241Z" fill="#001C37"/>
<path d="M65 173V84.9995H153V173H65ZM87 151H131V107H87V151ZM65 283V195H153V283H65ZM87 261H131V217H87V261ZM175 173V84.9995H263V173H175ZM197 151H241V107H197V151ZM241 283V261H263V283H241ZM175 217V195H197V217H175ZM197 239V217H219V239H197ZM175 261V239H197V261H175ZM197 283V261H219V283H197ZM219 261V239H241V261H219ZM219 217V195H241V217H219ZM241 239V217H263V239H241Z" fill="#B5C4FF" fill-opacity="0.05"/>
</g>
<path d="M120.505 338.273V354H118.518V340.755L114.511 342.216V340.422L120.193 338.273H120.505ZM126.596 352.947C126.596 352.611 126.7 352.328 126.907 352.099C127.122 351.862 127.43 351.744 127.831 351.744C128.232 351.744 128.536 351.862 128.744 352.099C128.959 352.328 129.066 352.611 129.066 352.947C129.066 353.277 128.959 353.556 128.744 353.785C128.536 354.014 128.232 354.129 127.831 354.129C127.43 354.129 127.122 354.014 126.907 353.785C126.7 353.556 126.596 353.277 126.596 352.947ZM141.968 344.934V347.318C141.968 348.6 141.853 349.682 141.624 350.562C141.395 351.443 141.065 352.152 140.636 352.689C140.206 353.227 139.687 353.617 139.078 353.86C138.477 354.097 137.796 354.215 137.037 354.215C136.436 354.215 135.881 354.14 135.372 353.989C134.864 353.839 134.405 353.599 133.997 353.27C133.596 352.933 133.252 352.496 132.966 351.959C132.679 351.422 132.461 350.77 132.311 350.004C132.16 349.238 132.085 348.342 132.085 347.318V344.934C132.085 343.652 132.2 342.577 132.429 341.711C132.665 340.844 132.998 340.15 133.428 339.627C133.857 339.097 134.373 338.717 134.975 338.488C135.583 338.259 136.264 338.145 137.016 338.145C137.624 338.145 138.183 338.22 138.691 338.37C139.207 338.513 139.665 338.746 140.066 339.068C140.467 339.383 140.808 339.806 141.087 340.336C141.373 340.859 141.592 341.5 141.742 342.259C141.893 343.018 141.968 343.91 141.968 344.934ZM139.97 347.641V344.601C139.97 343.899 139.927 343.283 139.841 342.753C139.762 342.216 139.644 341.757 139.486 341.378C139.329 340.998 139.128 340.69 138.885 340.454C138.648 340.218 138.373 340.046 138.058 339.938C137.75 339.824 137.402 339.767 137.016 339.767C136.543 339.767 136.124 339.856 135.759 340.035C135.394 340.207 135.086 340.483 134.835 340.862C134.591 341.242 134.405 341.74 134.276 342.355C134.147 342.971 134.083 343.72 134.083 344.601V347.641C134.083 348.342 134.122 348.962 134.201 349.499C134.287 350.036 134.412 350.502 134.577 350.896C134.742 351.282 134.942 351.601 135.179 351.852C135.415 352.102 135.687 352.288 135.995 352.41C136.31 352.525 136.658 352.582 137.037 352.582C137.524 352.582 137.95 352.489 138.315 352.303C138.681 352.117 138.985 351.826 139.229 351.433C139.479 351.032 139.665 350.52 139.787 349.896C139.909 349.266 139.97 348.514 139.97 347.641ZM154.343 344.934V347.318C154.343 348.6 154.228 349.682 153.999 350.562C153.77 351.443 153.44 352.152 153.011 352.689C152.581 353.227 152.062 353.617 151.453 353.86C150.852 354.097 150.171 354.215 149.412 354.215C148.811 354.215 148.256 354.14 147.747 353.989C147.239 353.839 146.78 353.599 146.372 353.27C145.971 352.933 145.627 352.496 145.341 351.959C145.054 351.422 144.836 350.77 144.686 350.004C144.535 349.238 144.46 348.342 144.46 347.318V344.934C144.46 343.652 144.575 342.577 144.804 341.711C145.04 340.844 145.373 340.15 145.803 339.627C146.232 339.097 146.748 338.717 147.35 338.488C147.958 338.259 148.639 338.145 149.391 338.145C149.999 338.145 150.558 338.22 151.066 338.37C151.582 338.513 152.04 338.746 152.441 339.068C152.842 339.383 153.183 339.806 153.462 340.336C153.748 340.859 153.967 341.5 154.117 342.259C154.268 343.018 154.343 343.91 154.343 344.934ZM152.345 347.641V344.601C152.345 343.899 152.302 343.283 152.216 342.753C152.137 342.216 152.019 341.757 151.861 341.378C151.704 340.998 151.503 340.69 151.26 340.454C151.023 340.218 150.748 340.046 150.433 339.938C150.125 339.824 149.777 339.767 149.391 339.767C148.918 339.767 148.499 339.856 148.134 340.035C147.769 340.207 147.461 340.483 147.21 340.862C146.966 341.242 146.78 341.74 146.651 342.355C146.522 342.971 146.458 343.72 146.458 344.601V347.641C146.458 348.342 146.497 348.962 146.576 349.499C146.662 350.036 146.787 350.502 146.952 350.896C147.117 351.282 147.317 351.601 147.554 351.852C147.79 352.102 148.062 352.288 148.37 352.41C148.685 352.525 149.033 352.582 149.412 352.582C149.899 352.582 150.325 352.489 150.69 352.303C151.056 352.117 151.36 351.826 151.604 351.433C151.854 351.032 152.04 350.52 152.162 349.896C152.284 349.266 152.345 348.514 152.345 347.641ZM166.718 344.934V347.318C166.718 348.6 166.603 349.682 166.374 350.562C166.145 351.443 165.815 352.152 165.386 352.689C164.956 353.227 164.437 353.617 163.828 353.86C163.227 354.097 162.546 354.215 161.787 354.215C161.186 354.215 160.631 354.14 160.122 353.989C159.614 353.839 159.155 353.599 158.747 353.27C158.346 352.933 158.002 352.496 157.716 351.959C157.429 351.422 157.211 350.77 157.061 350.004C156.91 349.238 156.835 348.342 156.835 347.318V344.934C156.835 343.652 156.95 342.577 157.179 341.711C157.415 340.844 157.748 340.15 158.178 339.627C158.607 339.097 159.123 338.717 159.725 338.488C160.333 338.259 161.014 338.145 161.766 338.145C162.374 338.145 162.933 338.22 163.441 338.37C163.957 338.513 164.415 338.746 164.816 339.068C165.217 339.383 165.558 339.806 165.837 340.336C166.123 340.859 166.342 341.5 166.492 342.259C166.643 343.018 166.718 343.91 166.718 344.934ZM164.72 347.641V344.601C164.72 343.899 164.677 343.283 164.591 342.753C164.512 342.216 164.394 341.757 164.236 341.378C164.079 340.998 163.878 340.69 163.635 340.454C163.398 340.218 163.123 340.046 162.808 339.938C162.5 339.824 162.152 339.767 161.766 339.767C161.293 339.767 160.874 339.856 160.509 340.035C160.144 340.207 159.836 340.483 159.585 340.862C159.341 341.242 159.155 341.74 159.026 342.355C158.897 342.971 158.833 343.72 158.833 344.601V347.641C158.833 348.342 158.872 348.962 158.951 349.499C159.037 350.036 159.162 350.502 159.327 350.896C159.492 351.282 159.692 351.601 159.929 351.852C160.165 352.102 160.437 352.288 160.745 352.41C161.06 352.525 161.408 352.582 161.787 352.582C162.274 352.582 162.7 352.489 163.065 352.303C163.431 352.117 163.735 351.826 163.979 351.433C164.229 351.032 164.415 350.52 164.537 349.896C164.659 349.266 164.72 348.514 164.72 347.641ZM181.714 350.917C181.714 350.631 181.649 350.366 181.521 350.122C181.399 349.871 181.145 349.646 180.758 349.445C180.378 349.238 179.805 349.059 179.039 348.908C178.395 348.772 177.811 348.611 177.288 348.425C176.772 348.239 176.332 348.013 175.967 347.748C175.609 347.483 175.333 347.172 175.14 346.813C174.946 346.455 174.85 346.036 174.85 345.557C174.85 345.098 174.95 344.665 175.15 344.257C175.358 343.849 175.648 343.487 176.021 343.172C176.4 342.857 176.855 342.61 177.385 342.431C177.915 342.252 178.506 342.162 179.157 342.162C180.088 342.162 180.883 342.327 181.542 342.656C182.201 342.986 182.706 343.426 183.057 343.978C183.408 344.522 183.583 345.127 183.583 345.793H181.596C181.596 345.471 181.499 345.159 181.306 344.858C181.119 344.55 180.844 344.296 180.479 344.096C180.12 343.895 179.68 343.795 179.157 343.795C178.606 343.795 178.158 343.881 177.814 344.053C177.478 344.217 177.231 344.429 177.073 344.687C176.923 344.944 176.848 345.216 176.848 345.503C176.848 345.718 176.883 345.911 176.955 346.083C177.034 346.248 177.17 346.402 177.363 346.545C177.557 346.681 177.829 346.81 178.18 346.932C178.531 347.053 178.978 347.175 179.522 347.297C180.475 347.512 181.259 347.77 181.875 348.07C182.491 348.371 182.949 348.74 183.25 349.177C183.551 349.614 183.701 350.144 183.701 350.767C183.701 351.275 183.594 351.741 183.379 352.163C183.171 352.586 182.867 352.951 182.466 353.259C182.072 353.56 181.599 353.796 181.048 353.968C180.504 354.132 179.891 354.215 179.211 354.215C178.187 354.215 177.32 354.032 176.611 353.667C175.902 353.302 175.365 352.829 175 352.249C174.635 351.669 174.452 351.057 174.452 350.412H176.45C176.479 350.956 176.636 351.39 176.923 351.712C177.209 352.027 177.56 352.253 177.976 352.389C178.391 352.518 178.803 352.582 179.211 352.582C179.755 352.582 180.21 352.51 180.575 352.367C180.948 352.224 181.23 352.027 181.424 351.776C181.617 351.526 181.714 351.239 181.714 350.917ZM193.165 352.013V346.029C193.165 345.571 193.072 345.174 192.886 344.837C192.707 344.493 192.435 344.228 192.069 344.042C191.704 343.856 191.253 343.763 190.716 343.763C190.215 343.763 189.774 343.849 189.395 344.021C189.022 344.192 188.729 344.418 188.514 344.697C188.306 344.977 188.202 345.277 188.202 345.6H186.215C186.215 345.184 186.322 344.772 186.537 344.364C186.752 343.956 187.06 343.587 187.461 343.258C187.869 342.921 188.356 342.656 188.922 342.463C189.495 342.262 190.132 342.162 190.834 342.162C191.679 342.162 192.424 342.305 193.068 342.592C193.72 342.878 194.229 343.312 194.594 343.892C194.966 344.465 195.152 345.184 195.152 346.051V351.465C195.152 351.852 195.185 352.263 195.249 352.7C195.321 353.137 195.424 353.513 195.561 353.828V354H193.487C193.387 353.771 193.308 353.466 193.251 353.087C193.194 352.7 193.165 352.342 193.165 352.013ZM193.509 346.953L193.53 348.35H191.521C190.956 348.35 190.451 348.396 190.007 348.489C189.563 348.575 189.19 348.708 188.89 348.887C188.589 349.066 188.36 349.291 188.202 349.563C188.045 349.828 187.966 350.14 187.966 350.498C187.966 350.863 188.048 351.196 188.213 351.497C188.378 351.798 188.625 352.038 188.954 352.217C189.291 352.389 189.702 352.475 190.189 352.475C190.798 352.475 191.335 352.346 191.801 352.088C192.266 351.83 192.635 351.515 192.907 351.143C193.187 350.77 193.337 350.409 193.358 350.058L194.207 351.014C194.157 351.314 194.021 351.647 193.799 352.013C193.577 352.378 193.28 352.729 192.907 353.065C192.542 353.395 192.105 353.671 191.597 353.893C191.095 354.107 190.53 354.215 189.899 354.215C189.112 354.215 188.421 354.061 187.826 353.753C187.239 353.445 186.781 353.033 186.451 352.518C186.129 351.995 185.968 351.411 185.968 350.767C185.968 350.144 186.09 349.596 186.333 349.123C186.576 348.643 186.927 348.246 187.386 347.931C187.844 347.608 188.396 347.365 189.04 347.2C189.685 347.035 190.404 346.953 191.199 346.953H193.509ZM203.145 342.377V343.902H196.86V342.377H203.145ZM198.987 339.552H200.975V351.121C200.975 351.515 201.035 351.812 201.157 352.013C201.279 352.213 201.437 352.346 201.63 352.41C201.823 352.475 202.031 352.507 202.253 352.507C202.418 352.507 202.59 352.493 202.769 352.464C202.955 352.428 203.094 352.399 203.188 352.378L203.198 354C203.041 354.05 202.833 354.097 202.575 354.14C202.325 354.19 202.02 354.215 201.662 354.215C201.175 354.215 200.728 354.118 200.319 353.925C199.911 353.731 199.585 353.409 199.342 352.958C199.105 352.5 198.987 351.884 198.987 351.11V339.552ZM212.243 350.917C212.243 350.631 212.179 350.366 212.05 350.122C211.928 349.871 211.674 349.646 211.287 349.445C210.908 349.238 210.335 349.059 209.568 348.908C208.924 348.772 208.34 348.611 207.817 348.425C207.302 348.239 206.861 348.013 206.496 347.748C206.138 347.483 205.862 347.172 205.669 346.813C205.476 346.455 205.379 346.036 205.379 345.557C205.379 345.098 205.479 344.665 205.68 344.257C205.887 343.849 206.177 343.487 206.55 343.172C206.929 342.857 207.384 342.61 207.914 342.431C208.444 342.252 209.035 342.162 209.687 342.162C210.618 342.162 211.412 342.327 212.071 342.656C212.73 342.986 213.235 343.426 213.586 343.978C213.937 344.522 214.112 345.127 214.112 345.793H212.125C212.125 345.471 212.028 345.159 211.835 344.858C211.649 344.55 211.373 344.296 211.008 344.096C210.65 343.895 210.209 343.795 209.687 343.795C209.135 343.795 208.688 343.881 208.344 344.053C208.007 344.217 207.76 344.429 207.603 344.687C207.452 344.944 207.377 345.216 207.377 345.503C207.377 345.718 207.413 345.911 207.484 346.083C207.563 346.248 207.699 346.402 207.893 346.545C208.086 346.681 208.358 346.81 208.709 346.932C209.06 347.053 209.507 347.175 210.052 347.297C211.004 347.512 211.788 347.77 212.404 348.07C213.02 348.371 213.479 348.74 213.779 349.177C214.08 349.614 214.23 350.144 214.23 350.767C214.23 351.275 214.123 351.741 213.908 352.163C213.701 352.586 213.396 352.951 212.995 353.259C212.601 353.56 212.129 353.796 211.577 353.968C211.033 354.132 210.421 354.215 209.74 354.215C208.716 354.215 207.85 354.032 207.141 353.667C206.432 353.302 205.895 352.829 205.529 352.249C205.164 351.669 204.981 351.057 204.981 350.412H206.979C207.008 350.956 207.166 351.39 207.452 351.712C207.739 352.027 208.09 352.253 208.505 352.389C208.92 352.518 209.332 352.582 209.74 352.582C210.285 352.582 210.739 352.51 211.104 352.367C211.477 352.224 211.76 352.027 211.953 351.776C212.146 351.526 212.243 351.239 212.243 350.917Z" fill="#D2E4FF"/>
<path d="M128.413 377.489L131.346 369.047H132.774L129.09 379H128.071L128.413 377.489ZM125.672 369.047L128.577 377.489L128.939 379H127.921L124.243 369.047H125.672ZM138.22 377.735V373.928C138.22 373.636 138.16 373.383 138.042 373.169C137.928 372.95 137.755 372.782 137.522 372.663C137.29 372.545 137.003 372.485 136.661 372.485C136.342 372.485 136.062 372.54 135.82 372.649C135.583 372.759 135.396 372.902 135.26 373.08C135.128 373.258 135.062 373.449 135.062 373.654H133.797C133.797 373.39 133.865 373.128 134.002 372.868C134.139 372.608 134.335 372.374 134.59 372.164C134.85 371.95 135.16 371.781 135.52 371.658C135.884 371.531 136.29 371.467 136.736 371.467C137.274 371.467 137.748 371.558 138.158 371.74C138.573 371.923 138.896 372.198 139.129 372.567C139.366 372.932 139.484 373.39 139.484 373.941V377.387C139.484 377.633 139.505 377.895 139.546 378.173C139.591 378.451 139.658 378.69 139.744 378.891V379H138.425C138.361 378.854 138.311 378.66 138.274 378.419C138.238 378.173 138.22 377.945 138.22 377.735ZM138.438 374.516L138.452 375.404H137.174C136.814 375.404 136.493 375.434 136.21 375.493C135.927 375.548 135.69 375.632 135.499 375.746C135.308 375.86 135.162 376.004 135.062 376.177C134.961 376.345 134.911 376.544 134.911 376.771C134.911 377.004 134.964 377.216 135.068 377.407C135.173 377.599 135.33 377.751 135.54 377.865C135.754 377.975 136.016 378.029 136.326 378.029C136.714 378.029 137.055 377.947 137.352 377.783C137.648 377.619 137.882 377.419 138.056 377.182C138.233 376.945 138.329 376.715 138.343 376.491L138.883 377.1C138.851 377.291 138.764 377.503 138.623 377.735C138.482 377.968 138.293 378.191 138.056 378.405C137.823 378.615 137.545 378.79 137.222 378.932C136.903 379.068 136.543 379.137 136.142 379.137C135.64 379.137 135.201 379.039 134.822 378.843C134.449 378.647 134.157 378.385 133.947 378.057C133.742 377.724 133.64 377.353 133.64 376.942C133.64 376.546 133.717 376.197 133.872 375.896C134.027 375.591 134.25 375.338 134.542 375.138C134.834 374.933 135.185 374.778 135.595 374.673C136.005 374.568 136.463 374.516 136.969 374.516H138.438ZM143.098 368.5V379H141.826V368.5H143.098ZM149.903 377.291V371.604H151.175V379H149.965L149.903 377.291ZM150.143 375.732L150.669 375.719C150.669 376.211 150.617 376.667 150.512 377.086C150.411 377.501 150.247 377.861 150.02 378.166C149.792 378.471 149.493 378.711 149.124 378.884C148.755 379.052 148.306 379.137 147.777 379.137C147.417 379.137 147.087 379.084 146.786 378.979C146.49 378.875 146.235 378.713 146.021 378.494C145.806 378.275 145.64 377.991 145.521 377.64C145.408 377.289 145.351 376.867 145.351 376.375V371.604H146.615V376.389C146.615 376.721 146.652 376.997 146.725 377.216C146.802 377.43 146.905 377.601 147.032 377.729C147.164 377.852 147.31 377.938 147.47 377.988C147.634 378.038 147.802 378.063 147.976 378.063C148.513 378.063 148.939 377.961 149.254 377.756C149.568 377.546 149.794 377.266 149.931 376.915C150.072 376.56 150.143 376.165 150.143 375.732ZM156.422 379.137C155.907 379.137 155.44 379.05 155.021 378.877C154.606 378.699 154.248 378.451 153.947 378.132C153.651 377.813 153.423 377.435 153.264 376.997C153.104 376.56 153.024 376.081 153.024 375.562V375.274C153.024 374.673 153.113 374.137 153.291 373.668C153.469 373.194 153.71 372.793 154.016 372.465C154.321 372.137 154.667 371.888 155.055 371.72C155.442 371.551 155.843 371.467 156.258 371.467C156.786 371.467 157.242 371.558 157.625 371.74C158.012 371.923 158.329 372.178 158.575 372.506C158.821 372.829 159.004 373.212 159.122 373.654C159.241 374.092 159.3 374.57 159.3 375.09V375.657H153.776V374.625H158.035V374.529C158.017 374.201 157.949 373.882 157.83 373.572C157.716 373.262 157.534 373.007 157.283 372.807C157.033 372.606 156.691 372.506 156.258 372.506C155.971 372.506 155.706 372.567 155.465 372.69C155.223 372.809 155.016 372.987 154.843 373.224C154.67 373.461 154.535 373.75 154.439 374.092C154.344 374.434 154.296 374.828 154.296 375.274V375.562C154.296 375.912 154.344 376.243 154.439 376.553C154.54 376.858 154.683 377.127 154.87 377.359C155.062 377.592 155.292 377.774 155.561 377.906C155.834 378.038 156.144 378.104 156.49 378.104C156.937 378.104 157.315 378.013 157.625 377.831C157.935 377.649 158.206 377.405 158.438 377.1L159.204 377.708C159.045 377.95 158.842 378.18 158.596 378.398C158.35 378.617 158.047 378.795 157.687 378.932C157.331 379.068 156.91 379.137 156.422 379.137ZM167.616 375.65V376.689H160.425V375.944L164.882 369.047H165.914L164.807 371.043L161.86 375.65H167.616ZM166.229 369.047V379H164.964V369.047H166.229ZM172.556 377.489L175.488 369.047H176.917L173.232 379H172.214L172.556 377.489ZM169.814 369.047L172.72 377.489L173.082 379H172.063L168.386 369.047H169.814ZM182.362 377.735V373.928C182.362 373.636 182.303 373.383 182.185 373.169C182.071 372.95 181.897 372.782 181.665 372.663C181.433 372.545 181.146 372.485 180.804 372.485C180.485 372.485 180.204 372.54 179.963 372.649C179.726 372.759 179.539 372.902 179.402 373.08C179.27 373.258 179.204 373.449 179.204 373.654H177.939C177.939 373.39 178.008 373.128 178.145 372.868C178.281 372.608 178.477 372.374 178.732 372.164C178.992 371.95 179.302 371.781 179.662 371.658C180.027 371.531 180.432 371.467 180.879 371.467C181.417 371.467 181.891 371.558 182.301 371.74C182.715 371.923 183.039 372.198 183.271 372.567C183.508 372.932 183.627 373.39 183.627 373.941V377.387C183.627 377.633 183.647 377.895 183.688 378.173C183.734 378.451 183.8 378.69 183.887 378.891V379H182.567C182.504 378.854 182.453 378.66 182.417 378.419C182.381 378.173 182.362 377.945 182.362 377.735ZM182.581 374.516L182.595 375.404H181.316C180.956 375.404 180.635 375.434 180.353 375.493C180.07 375.548 179.833 375.632 179.642 375.746C179.45 375.86 179.304 376.004 179.204 376.177C179.104 376.345 179.054 376.544 179.054 376.771C179.054 377.004 179.106 377.216 179.211 377.407C179.316 377.599 179.473 377.751 179.683 377.865C179.897 377.975 180.159 378.029 180.469 378.029C180.856 378.029 181.198 377.947 181.494 377.783C181.79 377.619 182.025 377.419 182.198 377.182C182.376 376.945 182.472 376.715 182.485 376.491L183.025 377.1C182.993 377.291 182.907 377.503 182.766 377.735C182.624 377.968 182.435 378.191 182.198 378.405C181.966 378.615 181.688 378.79 181.364 378.932C181.045 379.068 180.685 379.137 180.284 379.137C179.783 379.137 179.343 379.039 178.965 378.843C178.591 378.647 178.299 378.385 178.09 378.057C177.885 377.724 177.782 377.353 177.782 376.942C177.782 376.546 177.86 376.197 178.015 375.896C178.17 375.591 178.393 375.338 178.685 375.138C178.976 374.933 179.327 374.778 179.737 374.673C180.147 374.568 180.605 374.516 181.111 374.516H182.581ZM187.24 368.5V379H185.969V368.5H187.24ZM194.046 377.291V371.604H195.317V379H194.107L194.046 377.291ZM194.285 375.732L194.812 375.719C194.812 376.211 194.759 376.667 194.654 377.086C194.554 377.501 194.39 377.861 194.162 378.166C193.934 378.471 193.636 378.711 193.267 378.884C192.897 379.052 192.449 379.137 191.92 379.137C191.56 379.137 191.229 379.084 190.929 378.979C190.632 378.875 190.377 378.713 190.163 378.494C189.949 378.275 189.783 377.991 189.664 377.64C189.55 377.289 189.493 376.867 189.493 376.375V371.604H190.758V376.389C190.758 376.721 190.794 376.997 190.867 377.216C190.945 377.43 191.047 377.601 191.175 377.729C191.307 377.852 191.453 377.938 191.612 377.988C191.776 378.038 191.945 378.063 192.118 378.063C192.656 378.063 193.082 377.961 193.396 377.756C193.711 377.546 193.937 377.266 194.073 376.915C194.215 376.56 194.285 376.165 194.285 375.732ZM200.564 379.137C200.049 379.137 199.582 379.05 199.163 378.877C198.748 378.699 198.391 378.451 198.09 378.132C197.794 377.813 197.566 377.435 197.406 376.997C197.247 376.56 197.167 376.081 197.167 375.562V375.274C197.167 374.673 197.256 374.137 197.434 373.668C197.611 373.194 197.853 372.793 198.158 372.465C198.464 372.137 198.81 371.888 199.197 371.72C199.585 371.551 199.986 371.467 200.4 371.467C200.929 371.467 201.385 371.558 201.768 371.74C202.155 371.923 202.472 372.178 202.718 372.506C202.964 372.829 203.146 373.212 203.265 373.654C203.383 374.092 203.442 374.57 203.442 375.09V375.657H197.919V374.625H202.178V374.529C202.16 374.201 202.091 373.882 201.973 373.572C201.859 373.262 201.676 373.007 201.426 372.807C201.175 372.606 200.833 372.506 200.4 372.506C200.113 372.506 199.849 372.567 199.607 372.69C199.366 372.809 199.159 372.987 198.985 373.224C198.812 373.461 198.678 373.75 198.582 374.092C198.486 374.434 198.438 374.828 198.438 375.274V375.562C198.438 375.912 198.486 376.243 198.582 376.553C198.682 376.858 198.826 377.127 199.013 377.359C199.204 377.592 199.434 377.774 199.703 377.906C199.977 378.038 200.286 378.104 200.633 378.104C201.079 378.104 201.458 378.013 201.768 377.831C202.077 377.649 202.349 377.405 202.581 377.1L203.347 377.708C203.187 377.95 202.984 378.18 202.738 378.398C202.492 378.617 202.189 378.795 201.829 378.932C201.474 379.068 201.052 379.137 200.564 379.137Z" fill="#C6C6D0"/>
<g clip-path="url(#clip1_1497_81269)">
<mask id="mask1_1497_81269" style="mask-type:alpha" maskUnits="userSpaceOnUse" x="109" y="428" width="25" height="24">
<rect x="109.5" y="428" width="24" height="24" fill="#D9D9D9"/>
</mask>
<g mask="url(#mask1_1497_81269)">
<path d="M114.5 450C113.95 450 113.479 449.804 113.087 449.413C112.696 449.021 112.5 448.55 112.5 448V434H114.5V448H125.5V450H114.5ZM118.5 446C117.95 446 117.479 445.804 117.088 445.413C116.696 445.021 116.5 444.55 116.5 444V432C116.5 431.45 116.696 430.979 117.088 430.587C117.479 430.196 117.95 430 118.5 430H127.5C128.05 430 128.521 430.196 128.913 430.587C129.304 430.979 129.5 431.45 129.5 432V444C129.5 444.55 129.304 445.021 128.913 445.413C128.521 445.804 128.05 446 127.5 446H118.5ZM118.5 444H127.5V432H118.5V444Z" fill="#D2E4FF"/>
</g>
</g>
<path d="M90.6406 474.287H91.7656C91.707 474.826 91.5527 475.309 91.3027 475.734C91.0527 476.16 90.6992 476.498 90.2422 476.748C89.7852 476.994 89.2148 477.117 88.5312 477.117C88.0312 477.117 87.5762 477.023 87.166 476.836C86.7598 476.648 86.4102 476.383 86.1172 476.039C85.8242 475.691 85.5977 475.275 85.4375 474.791C85.2812 474.303 85.2031 473.76 85.2031 473.162V472.312C85.2031 471.715 85.2812 471.174 85.4375 470.689C85.5977 470.201 85.8262 469.783 86.123 469.436C86.4238 469.088 86.7852 468.82 87.207 468.633C87.6289 468.445 88.1035 468.352 88.6309 468.352C89.2754 468.352 89.8203 468.473 90.2656 468.715C90.7109 468.957 91.0566 469.293 91.3027 469.723C91.5527 470.148 91.707 470.643 91.7656 471.205H90.6406C90.5859 470.807 90.4844 470.465 90.3359 470.18C90.1875 469.891 89.9766 469.668 89.7031 469.512C89.4297 469.355 89.0723 469.277 88.6309 469.277C88.252 469.277 87.918 469.35 87.6289 469.494C87.3438 469.639 87.1035 469.844 86.9082 470.109C86.7168 470.375 86.5723 470.693 86.4746 471.064C86.377 471.436 86.3281 471.848 86.3281 472.301V473.162C86.3281 473.58 86.3711 473.973 86.457 474.34C86.5469 474.707 86.6816 475.029 86.8613 475.307C87.041 475.584 87.2695 475.803 87.5469 475.963C87.8242 476.119 88.1523 476.197 88.5312 476.197C89.0117 476.197 89.3945 476.121 89.6797 475.969C89.9648 475.816 90.1797 475.598 90.3242 475.312C90.4727 475.027 90.5781 474.686 90.6406 474.287ZM93.3555 473.9V473.766C93.3555 473.309 93.4219 472.885 93.5547 472.494C93.6875 472.1 93.8789 471.758 94.1289 471.469C94.3789 471.176 94.6816 470.949 95.0371 470.789C95.3926 470.625 95.791 470.543 96.2324 470.543C96.6777 470.543 97.0781 470.625 97.4336 470.789C97.793 470.949 98.0977 471.176 98.3477 471.469C98.6016 471.758 98.7949 472.1 98.9277 472.494C99.0605 472.885 99.127 473.309 99.127 473.766V473.9C99.127 474.357 99.0605 474.781 98.9277 475.172C98.7949 475.562 98.6016 475.904 98.3477 476.197C98.0977 476.486 97.7949 476.713 97.4395 476.877C97.0879 477.037 96.6895 477.117 96.2441 477.117C95.7988 477.117 95.3984 477.037 95.043 476.877C94.6875 476.713 94.3828 476.486 94.1289 476.197C93.8789 475.904 93.6875 475.562 93.5547 475.172C93.4219 474.781 93.3555 474.357 93.3555 473.9ZM94.4395 473.766V473.9C94.4395 474.217 94.4766 474.516 94.5508 474.797C94.625 475.074 94.7363 475.32 94.8848 475.535C95.0371 475.75 95.2266 475.92 95.4531 476.045C95.6797 476.166 95.9434 476.227 96.2441 476.227C96.541 476.227 96.8008 476.166 97.0234 476.045C97.25 475.92 97.4375 475.75 97.5859 475.535C97.7344 475.32 97.8457 475.074 97.9199 474.797C97.998 474.516 98.0371 474.217 98.0371 473.9V473.766C98.0371 473.453 97.998 473.158 97.9199 472.881C97.8457 472.6 97.7324 472.352 97.5801 472.137C97.4316 471.918 97.2441 471.746 97.0176 471.621C96.7949 471.496 96.5332 471.434 96.2324 471.434C95.9355 471.434 95.6738 471.496 95.4473 471.621C95.2246 471.746 95.0371 471.918 94.8848 472.137C94.7363 472.352 94.625 472.6 94.5508 472.881C94.4766 473.158 94.4395 473.453 94.4395 473.766ZM102.07 471.879V479.438H100.98V470.66H101.977L102.07 471.879ZM106.342 473.777V473.9C106.342 474.361 106.287 474.789 106.178 475.184C106.068 475.574 105.908 475.914 105.697 476.203C105.49 476.492 105.234 476.717 104.93 476.877C104.625 477.037 104.275 477.117 103.881 477.117C103.479 477.117 103.123 477.051 102.814 476.918C102.506 476.785 102.244 476.592 102.029 476.338C101.814 476.084 101.643 475.779 101.514 475.424C101.389 475.068 101.303 474.668 101.256 474.223V473.566C101.303 473.098 101.391 472.678 101.52 472.307C101.648 471.936 101.818 471.619 102.029 471.357C102.244 471.092 102.504 470.891 102.809 470.754C103.113 470.613 103.465 470.543 103.863 470.543C104.262 470.543 104.615 470.621 104.924 470.777C105.232 470.93 105.492 471.148 105.703 471.434C105.914 471.719 106.072 472.061 106.178 472.459C106.287 472.854 106.342 473.293 106.342 473.777ZM105.252 473.9V473.777C105.252 473.461 105.219 473.164 105.152 472.887C105.086 472.605 104.982 472.359 104.842 472.148C104.705 471.934 104.529 471.766 104.314 471.645C104.1 471.52 103.844 471.457 103.547 471.457C103.273 471.457 103.035 471.504 102.832 471.598C102.633 471.691 102.463 471.818 102.322 471.979C102.182 472.135 102.066 472.314 101.977 472.518C101.891 472.717 101.826 472.924 101.783 473.139V474.656C101.861 474.93 101.971 475.188 102.111 475.43C102.252 475.668 102.439 475.861 102.674 476.01C102.908 476.154 103.203 476.227 103.559 476.227C103.852 476.227 104.104 476.166 104.314 476.045C104.529 475.92 104.705 475.75 104.842 475.535C104.982 475.32 105.086 475.074 105.152 474.797C105.219 474.516 105.252 474.217 105.252 473.9ZM109.936 476.344L111.699 470.66H112.859L110.316 477.979C110.258 478.135 110.18 478.303 110.082 478.482C109.988 478.666 109.867 478.84 109.719 479.004C109.57 479.168 109.391 479.301 109.18 479.402C108.973 479.508 108.725 479.561 108.436 479.561C108.35 479.561 108.24 479.549 108.107 479.525C107.975 479.502 107.881 479.482 107.826 479.467L107.82 478.588C107.852 478.592 107.9 478.596 107.967 478.6C108.037 478.607 108.086 478.611 108.113 478.611C108.359 478.611 108.568 478.578 108.74 478.512C108.912 478.449 109.057 478.342 109.174 478.189C109.295 478.041 109.398 477.836 109.484 477.574L109.936 476.344ZM108.641 470.66L110.287 475.582L110.568 476.725L109.789 477.123L107.457 470.66H108.641ZM118.992 470.66V477H117.902V470.66H118.992ZM117.82 468.979C117.82 468.803 117.873 468.654 117.979 468.533C118.088 468.412 118.248 468.352 118.459 468.352C118.666 468.352 118.824 468.412 118.934 468.533C119.047 468.654 119.104 468.803 119.104 468.979C119.104 469.146 119.047 469.291 118.934 469.412C118.824 469.529 118.666 469.588 118.459 469.588C118.248 469.588 118.088 469.529 117.979 469.412C117.873 469.291 117.82 469.146 117.82 468.979ZM122.316 472.014V477H121.232V470.66H122.258L122.316 472.014ZM122.059 473.59L121.607 473.572C121.611 473.139 121.676 472.738 121.801 472.371C121.926 472 122.102 471.678 122.328 471.404C122.555 471.131 122.824 470.92 123.137 470.771C123.453 470.619 123.803 470.543 124.186 470.543C124.498 470.543 124.779 470.586 125.029 470.672C125.279 470.754 125.492 470.887 125.668 471.07C125.848 471.254 125.984 471.492 126.078 471.785C126.172 472.074 126.219 472.428 126.219 472.846V477H125.129V472.834C125.129 472.502 125.08 472.236 124.982 472.037C124.885 471.834 124.742 471.688 124.555 471.598C124.367 471.504 124.137 471.457 123.863 471.457C123.594 471.457 123.348 471.514 123.125 471.627C122.906 471.74 122.717 471.896 122.557 472.096C122.4 472.295 122.277 472.523 122.188 472.781C122.102 473.035 122.059 473.305 122.059 473.59ZM130.293 476.021L132.027 470.66H133.135L130.855 477H130.129L130.293 476.021ZM128.846 470.66L130.633 476.051L130.756 477H130.029L127.732 470.66H128.846ZM134.297 473.9V473.766C134.297 473.309 134.363 472.885 134.496 472.494C134.629 472.1 134.82 471.758 135.07 471.469C135.32 471.176 135.623 470.949 135.979 470.789C136.334 470.625 136.732 470.543 137.174 470.543C137.619 470.543 138.02 470.625 138.375 470.789C138.734 470.949 139.039 471.176 139.289 471.469C139.543 471.758 139.736 472.1 139.869 472.494C140.002 472.885 140.068 473.309 140.068 473.766V473.9C140.068 474.357 140.002 474.781 139.869 475.172C139.736 475.562 139.543 475.904 139.289 476.197C139.039 476.486 138.736 476.713 138.381 476.877C138.029 477.037 137.631 477.117 137.186 477.117C136.74 477.117 136.34 477.037 135.984 476.877C135.629 476.713 135.324 476.486 135.07 476.197C134.82 475.904 134.629 475.562 134.496 475.172C134.363 474.781 134.297 474.357 134.297 473.9ZM135.381 473.766V473.9C135.381 474.217 135.418 474.516 135.492 474.797C135.566 475.074 135.678 475.32 135.826 475.535C135.979 475.75 136.168 475.92 136.395 476.045C136.621 476.166 136.885 476.227 137.186 476.227C137.482 476.227 137.742 476.166 137.965 476.045C138.191 475.92 138.379 475.75 138.527 475.535C138.676 475.32 138.787 475.074 138.861 474.797C138.939 474.516 138.979 474.217 138.979 473.9V473.766C138.979 473.453 138.939 473.158 138.861 472.881C138.787 472.6 138.674 472.352 138.521 472.137C138.373 471.918 138.186 471.746 137.959 471.621C137.736 471.496 137.475 471.434 137.174 471.434C136.877 471.434 136.615 471.496 136.389 471.621C136.166 471.746 135.979 471.918 135.826 472.137C135.678 472.352 135.566 472.6 135.492 472.881C135.418 473.158 135.381 473.453 135.381 473.766ZM143.105 470.66V477H142.016V470.66H143.105ZM141.934 468.979C141.934 468.803 141.986 468.654 142.092 468.533C142.201 468.412 142.361 468.352 142.572 468.352C142.779 468.352 142.938 468.412 143.047 468.533C143.16 468.654 143.217 468.803 143.217 468.979C143.217 469.146 143.16 469.291 143.047 469.412C142.938 469.529 142.779 469.588 142.572 469.588C142.361 469.588 142.201 469.529 142.092 469.412C141.986 469.291 141.934 469.146 141.934 468.979ZM147.883 476.227C148.141 476.227 148.379 476.174 148.598 476.068C148.816 475.963 148.996 475.818 149.137 475.635C149.277 475.447 149.357 475.234 149.377 474.996H150.408C150.389 475.371 150.262 475.721 150.027 476.045C149.797 476.365 149.494 476.625 149.119 476.824C148.744 477.02 148.332 477.117 147.883 477.117C147.406 477.117 146.99 477.033 146.635 476.865C146.283 476.697 145.99 476.467 145.756 476.174C145.525 475.881 145.352 475.545 145.234 475.166C145.121 474.783 145.064 474.379 145.064 473.953V473.707C145.064 473.281 145.121 472.879 145.234 472.5C145.352 472.117 145.525 471.779 145.756 471.486C145.99 471.193 146.283 470.963 146.635 470.795C146.99 470.627 147.406 470.543 147.883 470.543C148.379 470.543 148.812 470.645 149.184 470.848C149.555 471.047 149.846 471.32 150.057 471.668C150.271 472.012 150.389 472.402 150.408 472.84H149.377C149.357 472.578 149.283 472.342 149.154 472.131C149.029 471.92 148.857 471.752 148.639 471.627C148.424 471.498 148.172 471.434 147.883 471.434C147.551 471.434 147.271 471.5 147.045 471.633C146.822 471.762 146.645 471.938 146.512 472.16C146.383 472.379 146.289 472.623 146.23 472.893C146.176 473.158 146.148 473.43 146.148 473.707V473.953C146.148 474.23 146.176 474.504 146.23 474.773C146.285 475.043 146.377 475.287 146.506 475.506C146.639 475.725 146.816 475.9 147.039 476.033C147.266 476.162 147.547 476.227 147.883 476.227ZM154.758 477.117C154.316 477.117 153.916 477.043 153.557 476.895C153.201 476.742 152.895 476.529 152.637 476.256C152.383 475.982 152.188 475.658 152.051 475.283C151.914 474.908 151.846 474.498 151.846 474.053V473.807C151.846 473.291 151.922 472.832 152.074 472.43C152.227 472.023 152.434 471.68 152.695 471.398C152.957 471.117 153.254 470.904 153.586 470.76C153.918 470.615 154.262 470.543 154.617 470.543C155.07 470.543 155.461 470.621 155.789 470.777C156.121 470.934 156.393 471.152 156.604 471.434C156.814 471.711 156.971 472.039 157.072 472.418C157.174 472.793 157.225 473.203 157.225 473.648V474.135H152.49V473.25H156.141V473.168C156.125 472.887 156.066 472.613 155.965 472.348C155.867 472.082 155.711 471.863 155.496 471.691C155.281 471.52 154.988 471.434 154.617 471.434C154.371 471.434 154.145 471.486 153.938 471.592C153.73 471.693 153.553 471.846 153.404 472.049C153.256 472.252 153.141 472.5 153.059 472.793C152.977 473.086 152.936 473.424 152.936 473.807V474.053C152.936 474.354 152.977 474.637 153.059 474.902C153.145 475.164 153.268 475.395 153.428 475.594C153.592 475.793 153.789 475.949 154.02 476.062C154.254 476.176 154.52 476.232 154.816 476.232C155.199 476.232 155.523 476.154 155.789 475.998C156.055 475.842 156.287 475.633 156.486 475.371L157.143 475.893C157.006 476.1 156.832 476.297 156.621 476.484C156.41 476.672 156.15 476.824 155.842 476.941C155.537 477.059 155.176 477.117 154.758 477.117Z" fill="#D2E4FF"/>
<g clip-path="url(#clip2_1497_81269)">
<mask id="mask2_1497_81269" style="mask-type:alpha" maskUnits="userSpaceOnUse" x="197" y="428" width="24" height="24">
<rect x="197" y="428" width="24" height="24" fill="#D9D9D9"/>
</mask>
<g mask="url(#mask2_1497_81269)">
<path d="M213 441.5C213.433 441.5 213.792 441.358 214.075 441.075C214.358 440.792 214.5 440.433 214.5 440C214.5 439.567 214.358 439.208 214.075 438.925C213.792 438.642 213.433 438.5 213 438.5C212.567 438.5 212.208 438.642 211.925 438.925C211.642 439.208 211.5 439.567 211.5 440C211.5 440.433 211.642 440.792 211.925 441.075C212.208 441.358 212.567 441.5 213 441.5ZM202 449C201.45 449 200.979 448.804 200.587 448.413C200.196 448.021 200 447.55 200 447V433C200 432.45 200.196 431.979 200.587 431.587C200.979 431.196 201.45 431 202 431H216C216.55 431 217.021 431.196 217.413 431.587C217.804 431.979 218 432.45 218 433V435.5H216V433H202V447H216V444.5H218V447C218 447.55 217.804 448.021 217.413 448.413C217.021 448.804 216.55 449 216 449H202ZM210 445C209.45 445 208.979 444.804 208.588 444.413C208.196 444.021 208 443.55 208 443V437C208 436.45 208.196 435.979 208.588 435.587C208.979 435.196 209.45 435 210 435H217C217.55 435 218.021 435.196 218.413 435.587C218.804 435.979 219 436.45 219 437V443C219 443.55 218.804 444.021 218.413 444.413C218.021 444.804 217.55 445 217 445H210ZM217 443V437H210V443H217Z" fill="#D2E4FF"/>
</g>
</g>
<path d="M182.059 472.465V473.004C182.059 473.645 181.979 474.219 181.818 474.727C181.658 475.234 181.428 475.666 181.127 476.021C180.826 476.377 180.465 476.648 180.043 476.836C179.625 477.023 179.156 477.117 178.637 477.117C178.133 477.117 177.67 477.023 177.248 476.836C176.83 476.648 176.467 476.377 176.158 476.021C175.854 475.666 175.617 475.234 175.449 474.727C175.281 474.219 175.197 473.645 175.197 473.004V472.465C175.197 471.824 175.279 471.252 175.443 470.748C175.611 470.24 175.848 469.809 176.152 469.453C176.457 469.094 176.818 468.82 177.236 468.633C177.658 468.445 178.121 468.352 178.625 468.352C179.145 468.352 179.613 468.445 180.031 468.633C180.453 468.82 180.814 469.094 181.115 469.453C181.42 469.809 181.652 470.24 181.812 470.748C181.977 471.252 182.059 471.824 182.059 472.465ZM180.939 473.004V472.453C180.939 471.945 180.887 471.496 180.781 471.105C180.68 470.715 180.529 470.387 180.33 470.121C180.131 469.855 179.887 469.654 179.598 469.518C179.312 469.381 178.988 469.312 178.625 469.312C178.273 469.312 177.955 469.381 177.67 469.518C177.389 469.654 177.146 469.855 176.943 470.121C176.744 470.387 176.59 470.715 176.48 471.105C176.371 471.496 176.316 471.945 176.316 472.453V473.004C176.316 473.516 176.371 473.969 176.48 474.363C176.59 474.754 176.746 475.084 176.949 475.354C177.156 475.619 177.4 475.82 177.682 475.957C177.967 476.094 178.285 476.162 178.637 476.162C179.004 476.162 179.33 476.094 179.615 475.957C179.9 475.82 180.141 475.619 180.336 475.354C180.535 475.084 180.686 474.754 180.787 474.363C180.889 473.969 180.939 473.516 180.939 473.004ZM185.172 471.879V479.438H184.082V470.66H185.078L185.172 471.879ZM189.443 473.777V473.9C189.443 474.361 189.389 474.789 189.279 475.184C189.17 475.574 189.01 475.914 188.799 476.203C188.592 476.492 188.336 476.717 188.031 476.877C187.727 477.037 187.377 477.117 186.982 477.117C186.58 477.117 186.225 477.051 185.916 476.918C185.607 476.785 185.346 476.592 185.131 476.338C184.916 476.084 184.744 475.779 184.615 475.424C184.49 475.068 184.404 474.668 184.357 474.223V473.566C184.404 473.098 184.492 472.678 184.621 472.307C184.75 471.936 184.92 471.619 185.131 471.357C185.346 471.092 185.605 470.891 185.91 470.754C186.215 470.613 186.566 470.543 186.965 470.543C187.363 470.543 187.717 470.621 188.025 470.777C188.334 470.93 188.594 471.148 188.805 471.434C189.016 471.719 189.174 472.061 189.279 472.459C189.389 472.854 189.443 473.293 189.443 473.777ZM188.354 473.9V473.777C188.354 473.461 188.32 473.164 188.254 472.887C188.188 472.605 188.084 472.359 187.943 472.148C187.807 471.934 187.631 471.766 187.416 471.645C187.201 471.52 186.945 471.457 186.648 471.457C186.375 471.457 186.137 471.504 185.934 471.598C185.734 471.691 185.564 471.818 185.424 471.979C185.283 472.135 185.168 472.314 185.078 472.518C184.992 472.717 184.928 472.924 184.885 473.139V474.656C184.963 474.93 185.072 475.188 185.213 475.43C185.354 475.668 185.541 475.861 185.775 476.01C186.01 476.154 186.305 476.227 186.66 476.227C186.953 476.227 187.205 476.166 187.416 476.045C187.631 475.92 187.807 475.75 187.943 475.535C188.084 475.32 188.188 475.074 188.254 474.797C188.32 474.516 188.354 474.217 188.354 473.9ZM193.957 477.117C193.516 477.117 193.115 477.043 192.756 476.895C192.4 476.742 192.094 476.529 191.836 476.256C191.582 475.982 191.387 475.658 191.25 475.283C191.113 474.908 191.045 474.498 191.045 474.053V473.807C191.045 473.291 191.121 472.832 191.273 472.43C191.426 472.023 191.633 471.68 191.895 471.398C192.156 471.117 192.453 470.904 192.785 470.76C193.117 470.615 193.461 470.543 193.816 470.543C194.27 470.543 194.66 470.621 194.988 470.777C195.32 470.934 195.592 471.152 195.803 471.434C196.014 471.711 196.17 472.039 196.271 472.418C196.373 472.793 196.424 473.203 196.424 473.648V474.135H191.689V473.25H195.34V473.168C195.324 472.887 195.266 472.613 195.164 472.348C195.066 472.082 194.91 471.863 194.695 471.691C194.48 471.52 194.188 471.434 193.816 471.434C193.57 471.434 193.344 471.486 193.137 471.592C192.93 471.693 192.752 471.846 192.604 472.049C192.455 472.252 192.34 472.5 192.258 472.793C192.176 473.086 192.135 473.424 192.135 473.807V474.053C192.135 474.354 192.176 474.637 192.258 474.902C192.344 475.164 192.467 475.395 192.627 475.594C192.791 475.793 192.988 475.949 193.219 476.062C193.453 476.176 193.719 476.232 194.016 476.232C194.398 476.232 194.723 476.154 194.988 475.998C195.254 475.842 195.486 475.633 195.686 475.371L196.342 475.893C196.205 476.1 196.031 476.297 195.82 476.484C195.609 476.672 195.35 476.824 195.041 476.941C194.736 477.059 194.375 477.117 193.957 477.117ZM199.273 472.014V477H198.189V470.66H199.215L199.273 472.014ZM199.016 473.59L198.564 473.572C198.568 473.139 198.633 472.738 198.758 472.371C198.883 472 199.059 471.678 199.285 471.404C199.512 471.131 199.781 470.92 200.094 470.771C200.41 470.619 200.76 470.543 201.143 470.543C201.455 470.543 201.736 470.586 201.986 470.672C202.236 470.754 202.449 470.887 202.625 471.07C202.805 471.254 202.941 471.492 203.035 471.785C203.129 472.074 203.176 472.428 203.176 472.846V477H202.086V472.834C202.086 472.502 202.037 472.236 201.939 472.037C201.842 471.834 201.699 471.688 201.512 471.598C201.324 471.504 201.094 471.457 200.82 471.457C200.551 471.457 200.305 471.514 200.082 471.627C199.863 471.74 199.674 471.896 199.514 472.096C199.357 472.295 199.234 472.523 199.145 472.781C199.059 473.035 199.016 473.305 199.016 473.59ZM210.404 475.875L212.033 470.66H212.748L212.607 471.697L210.949 477H210.252L210.404 475.875ZM209.309 470.66L210.697 475.934L210.797 477H210.064L208.225 470.66H209.309ZM214.307 475.893L215.631 470.66H216.709L214.869 477H214.143L214.307 475.893ZM212.906 470.66L214.5 475.787L214.682 477H213.99L212.285 471.686L212.145 470.66H212.906ZM222.061 475.916V472.652C222.061 472.402 222.01 472.186 221.908 472.002C221.811 471.814 221.662 471.67 221.463 471.568C221.264 471.467 221.018 471.416 220.725 471.416C220.451 471.416 220.211 471.463 220.004 471.557C219.801 471.65 219.641 471.773 219.523 471.926C219.41 472.078 219.354 472.242 219.354 472.418H218.27C218.27 472.191 218.328 471.967 218.445 471.744C218.562 471.521 218.73 471.32 218.949 471.141C219.172 470.957 219.438 470.812 219.746 470.707C220.059 470.598 220.406 470.543 220.789 470.543C221.25 470.543 221.656 470.621 222.008 470.777C222.363 470.934 222.641 471.17 222.84 471.486C223.043 471.799 223.145 472.191 223.145 472.664V475.617C223.145 475.828 223.162 476.053 223.197 476.291C223.236 476.529 223.293 476.734 223.367 476.906V477H222.236C222.182 476.875 222.139 476.709 222.107 476.502C222.076 476.291 222.061 476.096 222.061 475.916ZM222.248 473.156L222.26 473.918H221.164C220.855 473.918 220.58 473.943 220.338 473.994C220.096 474.041 219.893 474.113 219.729 474.211C219.564 474.309 219.439 474.432 219.354 474.58C219.268 474.725 219.225 474.895 219.225 475.09C219.225 475.289 219.27 475.471 219.359 475.635C219.449 475.799 219.584 475.93 219.764 476.027C219.947 476.121 220.172 476.168 220.438 476.168C220.77 476.168 221.062 476.098 221.316 475.957C221.57 475.816 221.771 475.645 221.92 475.441C222.072 475.238 222.154 475.041 222.166 474.85L222.629 475.371C222.602 475.535 222.527 475.717 222.406 475.916C222.285 476.115 222.123 476.307 221.92 476.49C221.721 476.67 221.482 476.82 221.205 476.941C220.932 477.059 220.623 477.117 220.279 477.117C219.85 477.117 219.473 477.033 219.148 476.865C218.828 476.697 218.578 476.473 218.398 476.191C218.223 475.906 218.135 475.588 218.135 475.236C218.135 474.896 218.201 474.598 218.334 474.34C218.467 474.078 218.658 473.861 218.908 473.689C219.158 473.514 219.459 473.381 219.811 473.291C220.162 473.201 220.555 473.156 220.988 473.156H222.248ZM226.527 468V477H225.438V468H226.527ZM229.945 468V477H228.855V468H229.945ZM234.816 477.117C234.375 477.117 233.975 477.043 233.615 476.895C233.26 476.742 232.953 476.529 232.695 476.256C232.441 475.982 232.246 475.658 232.109 475.283C231.973 474.908 231.904 474.498 231.904 474.053V473.807C231.904 473.291 231.98 472.832 232.133 472.43C232.285 472.023 232.492 471.68 232.754 471.398C233.016 471.117 233.312 470.904 233.645 470.76C233.977 470.615 234.32 470.543 234.676 470.543C235.129 470.543 235.52 470.621 235.848 470.777C236.18 470.934 236.451 471.152 236.662 471.434C236.873 471.711 237.029 472.039 237.131 472.418C237.232 472.793 237.283 473.203 237.283 473.648V474.135H232.549V473.25H236.199V473.168C236.184 472.887 236.125 472.613 236.023 472.348C235.926 472.082 235.77 471.863 235.555 471.691C235.34 471.52 235.047 471.434 234.676 471.434C234.43 471.434 234.203 471.486 233.996 471.592C233.789 471.693 233.611 471.846 233.463 472.049C233.314 472.252 233.199 472.5 233.117 472.793C233.035 473.086 232.994 473.424 232.994 473.807V474.053C232.994 474.354 233.035 474.637 233.117 474.902C233.203 475.164 233.326 475.395 233.486 475.594C233.65 475.793 233.848 475.949 234.078 476.062C234.312 476.176 234.578 476.232 234.875 476.232C235.258 476.232 235.582 476.154 235.848 475.998C236.113 475.842 236.346 475.633 236.545 475.371L237.201 475.893C237.064 476.1 236.891 476.297 236.68 476.484C236.469 476.672 236.209 476.824 235.9 476.941C235.596 477.059 235.234 477.117 234.816 477.117ZM241.703 470.66V471.492H238.275V470.66H241.703ZM239.436 469.119H240.52V475.43C240.52 475.645 240.553 475.807 240.619 475.916C240.686 476.025 240.771 476.098 240.877 476.133C240.982 476.168 241.096 476.186 241.217 476.186C241.307 476.186 241.4 476.178 241.498 476.162C241.6 476.143 241.676 476.127 241.727 476.115L241.732 477C241.646 477.027 241.533 477.053 241.393 477.076C241.256 477.104 241.09 477.117 240.895 477.117C240.629 477.117 240.385 477.064 240.162 476.959C239.939 476.854 239.762 476.678 239.629 476.432C239.5 476.182 239.436 475.846 239.436 475.424V469.119Z" fill="#D2E4FF"/>
</g>
<defs>
<clipPath id="clip0_1497_81269">
<path d="M0 28C0 12.536 12.536 0 28 0H300C315.464 0 328 12.536 328 28V506H0V28Z" fill="white"/>
</clipPath>
<clipPath id="clip1_1497_81269">
<rect x="101.5" y="420" width="40" height="40" rx="20" fill="white"/>
</clipPath>
<clipPath id="clip2_1497_81269">
<rect x="189" y="420" width="40" height="40" rx="20" fill="white"/>
</clipPath>
</defs>
</svg>
